G04 EAGLE Gerber RS-274X export*
G75*
%MOMM*%
%FSLAX34Y34*%
%LPD*%
%AMOC8*
5,1,8,0,0,1.08239X$1,22.5*%
G01*
%ADD10C,0.076200*%
%ADD11C,0.152400*%
%ADD12R,0.120000X0.020000*%
%ADD13R,0.340000X0.020000*%
%ADD14R,0.320000X0.020000*%
%ADD15R,0.140000X0.020000*%
%ADD16R,0.280000X0.020000*%
%ADD17R,0.360000X0.020000*%
%ADD18R,0.420000X0.020000*%
%ADD19R,0.380000X0.020000*%
%ADD20R,0.480000X0.020000*%
%ADD21R,0.540000X0.020000*%
%ADD22R,0.560000X0.020000*%
%ADD23R,0.400000X0.020000*%
%ADD24R,0.640000X0.020000*%
%ADD25R,0.620000X0.020000*%
%ADD26R,0.700000X0.020000*%
%ADD27R,0.660000X0.020000*%
%ADD28R,0.740000X0.020000*%
%ADD29R,1.080000X0.020000*%
%ADD30R,0.800000X0.020000*%
%ADD31R,1.100000X0.020000*%
%ADD32R,0.440000X0.020000*%
%ADD33R,0.840000X0.020000*%
%ADD34R,1.120000X0.020000*%
%ADD35R,0.460000X0.020000*%
%ADD36R,0.860000X0.020000*%
%ADD37R,0.900000X0.020000*%
%ADD38R,1.140000X0.020000*%
%ADD39R,0.920000X0.020000*%
%ADD40R,1.160000X0.020000*%
%ADD41R,0.960000X0.020000*%
%ADD42R,0.500000X0.020000*%
%ADD43R,0.520000X0.020000*%
%ADD44R,0.940000X0.020000*%
%ADD45R,0.260000X0.020000*%
%ADD46R,0.180000X0.020000*%
%ADD47R,0.580000X0.020000*%
%ADD48R,0.060000X0.020000*%
%ADD49R,0.600000X0.020000*%
%ADD50R,0.300000X0.020000*%
%ADD51R,0.040000X0.020000*%
%ADD52R,0.100000X0.020000*%
%ADD53R,0.160000X0.020000*%
%ADD54R,0.220000X0.020000*%
%ADD55R,0.980000X0.020000*%
%ADD56R,0.880000X0.020000*%
%ADD57R,0.760000X0.020000*%
%ADD58R,1.060000X0.020000*%
%ADD59R,0.720000X0.020000*%
%ADD60R,0.820000X0.020000*%
%ADD61R,1.180000X0.020000*%
%ADD62R,1.340000X0.020000*%
%ADD63R,1.460000X0.020000*%
%ADD64R,1.600000X0.020000*%
%ADD65R,1.700000X0.020000*%
%ADD66R,1.820000X0.020000*%
%ADD67R,1.900000X0.020000*%
%ADD68R,1.980000X0.020000*%
%ADD69R,2.100000X0.020000*%
%ADD70R,2.160000X0.020000*%
%ADD71R,2.260000X0.020000*%
%ADD72R,2.340000X0.020000*%
%ADD73R,2.400000X0.020000*%
%ADD74R,2.480000X0.020000*%
%ADD75R,2.540000X0.020000*%
%ADD76R,2.600000X0.020000*%
%ADD77R,2.680000X0.020000*%
%ADD78R,2.720000X0.020000*%
%ADD79R,2.800000X0.020000*%
%ADD80R,2.840000X0.020000*%
%ADD81R,2.900000X0.020000*%
%ADD82R,2.960000X0.020000*%
%ADD83R,3.000000X0.020000*%
%ADD84R,3.060000X0.020000*%
%ADD85R,3.120000X0.020000*%
%ADD86R,3.160000X0.020000*%
%ADD87R,3.200000X0.020000*%
%ADD88R,3.260000X0.020000*%
%ADD89R,3.300000X0.020000*%
%ADD90R,3.340000X0.020000*%
%ADD91R,3.380000X0.020000*%
%ADD92R,3.420000X0.020000*%
%ADD93R,3.460000X0.020000*%
%ADD94R,3.520000X0.020000*%
%ADD95R,3.540000X0.020000*%
%ADD96R,3.580000X0.020000*%
%ADD97R,3.620000X0.020000*%
%ADD98R,3.660000X0.020000*%
%ADD99R,3.700000X0.020000*%
%ADD100R,3.740000X0.020000*%
%ADD101R,3.780000X0.020000*%
%ADD102R,3.800000X0.020000*%
%ADD103R,3.840000X0.020000*%
%ADD104R,3.860000X0.020000*%
%ADD105R,3.900000X0.020000*%
%ADD106R,3.940000X0.020000*%
%ADD107R,3.960000X0.020000*%
%ADD108R,3.980000X0.020000*%
%ADD109R,4.020000X0.020000*%
%ADD110R,4.060000X0.020000*%
%ADD111R,4.080000X0.020000*%
%ADD112R,4.100000X0.020000*%
%ADD113R,4.120000X0.020000*%
%ADD114R,4.160000X0.020000*%
%ADD115R,4.180000X0.020000*%
%ADD116R,4.200000X0.020000*%
%ADD117R,4.240000X0.020000*%
%ADD118R,4.260000X0.020000*%
%ADD119R,4.280000X0.020000*%
%ADD120R,4.300000X0.020000*%
%ADD121R,4.320000X0.020000*%
%ADD122R,4.340000X0.020000*%
%ADD123R,4.380000X0.020000*%
%ADD124R,4.400000X0.020000*%
%ADD125R,4.440000X0.020000*%
%ADD126R,4.460000X0.020000*%
%ADD127R,4.500000X0.020000*%
%ADD128R,4.520000X0.020000*%
%ADD129R,4.540000X0.020000*%
%ADD130R,4.560000X0.020000*%
%ADD131R,4.580000X0.020000*%
%ADD132R,4.600000X0.020000*%
%ADD133R,4.620000X0.020000*%
%ADD134R,4.640000X0.020000*%
%ADD135R,4.660000X0.020000*%
%ADD136R,4.680000X0.020000*%
%ADD137R,4.700000X0.020000*%
%ADD138R,4.720000X0.020000*%
%ADD139R,4.740000X0.020000*%
%ADD140R,0.680000X0.020000*%
%ADD141R,1.480000X0.020000*%
%ADD142R,1.580000X0.020000*%
%ADD143R,1.560000X0.020000*%
%ADD144R,1.540000X0.020000*%
%ADD145R,1.520000X0.020000*%
%ADD146R,1.500000X0.020000*%
%ADD147R,1.440000X0.020000*%
%ADD148R,1.400000X0.020000*%
%ADD149R,1.420000X0.020000*%
%ADD150R,1.380000X0.020000*%
%ADD151R,1.360000X0.020000*%
%ADD152R,1.320000X0.020000*%
%ADD153R,1.300000X0.020000*%
%ADD154R,1.260000X0.020000*%
%ADD155R,1.220000X0.020000*%
%ADD156R,1.200000X0.020000*%
%ADD157R,1.040000X0.020000*%
%ADD158R,1.020000X0.020000*%
%ADD159R,1.000000X0.020000*%
%ADD160R,1.280000X0.020000*%
%ADD161R,0.780000X0.020000*%
%ADD162R,1.240000X0.020000*%
%ADD163R,0.020000X0.020000*%
%ADD164R,1.840000X0.020000*%
%ADD165R,1.800000X0.020000*%
%ADD166R,1.780000X0.020000*%
%ADD167R,1.760000X0.020000*%
%ADD168R,1.740000X0.020000*%
%ADD169R,1.680000X0.020000*%
%ADD170R,1.660000X0.020000*%
%ADD171R,1.620000X0.020000*%

G36*
X173595Y32065D02*
X173595Y32065D01*
X173594Y32066D01*
X173595Y32067D01*
X173595Y50777D01*
X173590Y50782D01*
X173590Y50787D01*
X173354Y50941D01*
X173353Y50941D01*
X171919Y51780D01*
X170486Y52616D01*
X169050Y53452D01*
X167614Y54286D01*
X166177Y55120D01*
X164741Y55954D01*
X163306Y56788D01*
X161868Y57622D01*
X160433Y58456D01*
X159019Y59277D01*
X157605Y60098D01*
X156194Y60921D01*
X153370Y62567D01*
X151960Y63393D01*
X150550Y64222D01*
X149144Y65052D01*
X147768Y65889D01*
X149302Y66574D01*
X150865Y67245D01*
X152432Y67913D01*
X154000Y68579D01*
X155567Y69242D01*
X157136Y69904D01*
X158705Y70566D01*
X160276Y71225D01*
X161882Y71900D01*
X163487Y72574D01*
X165093Y73249D01*
X166699Y73926D01*
X168304Y74601D01*
X169910Y75277D01*
X171514Y75956D01*
X173118Y76638D01*
X173120Y76643D01*
X173125Y76647D01*
X173123Y76649D01*
X173125Y76652D01*
X173118Y76655D01*
X173114Y76661D01*
X171468Y76769D01*
X171467Y76769D01*
X171133Y76773D01*
X171130Y76773D01*
X170024Y76784D01*
X170024Y76785D01*
X170021Y76785D01*
X169768Y76787D01*
X168345Y76796D01*
X168340Y76796D01*
X168069Y76798D01*
X166370Y76806D01*
X165049Y76808D01*
X165034Y76808D01*
X164671Y76809D01*
X162972Y76813D01*
X161273Y76815D01*
X159573Y76816D01*
X157874Y76818D01*
X156175Y76818D01*
X154476Y76820D01*
X151078Y76820D01*
X150959Y76820D01*
X150930Y76820D01*
X149359Y76822D01*
X144202Y76822D01*
X142483Y76824D01*
X139044Y76824D01*
X137325Y76826D01*
X132168Y76826D01*
X130449Y76827D01*
X130449Y76828D01*
X128730Y76828D01*
X128718Y76817D01*
X128719Y76816D01*
X128718Y76816D01*
X128718Y58028D01*
X128723Y58023D01*
X128724Y58018D01*
X130163Y57184D01*
X133045Y55512D01*
X134485Y54677D01*
X135926Y53843D01*
X137365Y53007D01*
X138806Y52171D01*
X140247Y51335D01*
X141687Y50500D01*
X143129Y49664D01*
X144572Y48826D01*
X146013Y47989D01*
X147455Y47149D01*
X148897Y46310D01*
X150339Y45471D01*
X151778Y44627D01*
X153217Y43784D01*
X154629Y42942D01*
X152988Y42227D01*
X151318Y41518D01*
X149649Y40812D01*
X147979Y40108D01*
X146307Y39404D01*
X144634Y38702D01*
X142963Y37999D01*
X141353Y37324D01*
X139742Y36648D01*
X138131Y35973D01*
X136522Y35298D01*
X134910Y34622D01*
X133299Y33947D01*
X130080Y32593D01*
X128883Y32087D01*
X128880Y32081D01*
X128875Y32077D01*
X128877Y32075D01*
X128876Y32073D01*
X128882Y32069D01*
X128887Y32064D01*
X134044Y32064D01*
X135762Y32062D01*
X142638Y32062D01*
X144357Y32060D01*
X151235Y32060D01*
X152954Y32058D01*
X159831Y32058D01*
X161550Y32057D01*
X168426Y32057D01*
X170145Y32055D01*
X173583Y32055D01*
X173595Y32065D01*
G37*
G36*
X137724Y7719D02*
X137724Y7719D01*
X138266Y7732D01*
X138267Y7732D01*
X139531Y7909D01*
X139531Y7910D01*
X139532Y7910D01*
X139533Y7910D01*
X141223Y8513D01*
X141224Y8515D01*
X141225Y8514D01*
X142772Y9427D01*
X142773Y9428D01*
X142774Y9428D01*
X144124Y10611D01*
X144124Y10613D01*
X144125Y10613D01*
X145210Y11992D01*
X145209Y11993D01*
X145211Y11994D01*
X146010Y13554D01*
X146010Y13555D01*
X146011Y13556D01*
X146475Y15248D01*
X146475Y15249D01*
X146476Y15250D01*
X146620Y16996D01*
X146619Y16997D01*
X146620Y16998D01*
X146485Y18790D01*
X146484Y18792D01*
X146484Y18793D01*
X146002Y20525D01*
X146000Y20526D01*
X146001Y20527D01*
X145196Y22114D01*
X145195Y22115D01*
X145195Y22116D01*
X144099Y23519D01*
X144098Y23519D01*
X144098Y23520D01*
X142759Y24696D01*
X142758Y24696D01*
X142758Y24698D01*
X141229Y25608D01*
X141227Y25608D01*
X141227Y25609D01*
X139555Y26226D01*
X139554Y26225D01*
X139553Y26226D01*
X138154Y26451D01*
X138153Y26451D01*
X137725Y26473D01*
X137350Y26492D01*
X136873Y26516D01*
X136737Y26523D01*
X136736Y26522D01*
X136736Y26523D01*
X135322Y26442D01*
X135321Y26441D01*
X135320Y26442D01*
X133555Y25988D01*
X133554Y25987D01*
X133553Y25988D01*
X131889Y25243D01*
X131888Y25242D01*
X131887Y25242D01*
X130378Y24222D01*
X130378Y24220D01*
X130376Y24220D01*
X129393Y23209D01*
X129393Y23208D01*
X129391Y23208D01*
X128578Y22055D01*
X128578Y22054D01*
X128577Y22054D01*
X127922Y20803D01*
X127922Y20802D01*
X127921Y20802D01*
X127450Y19472D01*
X127450Y19470D01*
X127449Y19470D01*
X127233Y17908D01*
X127234Y17907D01*
X127233Y17906D01*
X127233Y16326D01*
X127234Y16325D01*
X127233Y16324D01*
X127451Y14763D01*
X127452Y14762D01*
X127451Y14760D01*
X128013Y13189D01*
X128014Y13189D01*
X128014Y13188D01*
X128835Y11734D01*
X128836Y11733D01*
X128836Y11732D01*
X129898Y10446D01*
X129900Y10446D01*
X129900Y10445D01*
X131175Y9369D01*
X131176Y9369D01*
X131176Y9368D01*
X132619Y8532D01*
X132621Y8533D01*
X132621Y8532D01*
X134016Y7996D01*
X134018Y7996D01*
X134019Y7995D01*
X135493Y7746D01*
X135494Y7747D01*
X135494Y7746D01*
X136988Y7702D01*
X136989Y7703D01*
X136989Y7702D01*
X137724Y7719D01*
G37*
G36*
X173699Y7914D02*
X173699Y7914D01*
X173699Y7915D01*
X173697Y9457D01*
X173694Y10999D01*
X173690Y11003D01*
X173691Y11007D01*
X172692Y12168D01*
X171694Y13327D01*
X169697Y15650D01*
X168698Y16809D01*
X167700Y17971D01*
X166699Y19132D01*
X165701Y20291D01*
X164702Y21453D01*
X163721Y22593D01*
X165308Y22602D01*
X168534Y22620D01*
X170147Y22629D01*
X171760Y22638D01*
X173375Y22647D01*
X173387Y22658D01*
X173386Y22659D01*
X173387Y22659D01*
X173387Y26213D01*
X173376Y26224D01*
X173375Y26224D01*
X173375Y26225D01*
X158422Y26225D01*
X158411Y26214D01*
X158411Y26213D01*
X158410Y26213D01*
X158410Y23180D01*
X158414Y23177D01*
X158413Y23173D01*
X159415Y22006D01*
X160418Y20841D01*
X161420Y19674D01*
X162422Y18509D01*
X163424Y17344D01*
X164426Y16178D01*
X165429Y15013D01*
X166431Y13846D01*
X167433Y12681D01*
X168418Y11534D01*
X168210Y11533D01*
X168205Y11533D01*
X166774Y11525D01*
X166030Y11521D01*
X166025Y11521D01*
X165103Y11516D01*
X163849Y11509D01*
X163844Y11509D01*
X163433Y11506D01*
X161764Y11497D01*
X161672Y11497D01*
X161666Y11497D01*
X160092Y11488D01*
X159336Y11485D01*
X159329Y11485D01*
X158422Y11481D01*
X158410Y11470D01*
X158411Y11470D01*
X158410Y11469D01*
X158410Y7915D01*
X158421Y7904D01*
X158422Y7904D01*
X173687Y7904D01*
X173699Y7914D01*
G37*
G36*
X108261Y7703D02*
X108261Y7703D01*
X108262Y7702D01*
X109970Y7898D01*
X109971Y7900D01*
X109972Y7899D01*
X111541Y8453D01*
X111542Y8454D01*
X111543Y8454D01*
X112994Y9269D01*
X112994Y9271D01*
X112995Y9271D01*
X114266Y10342D01*
X114267Y10344D01*
X114268Y10344D01*
X115318Y11633D01*
X115318Y11635D01*
X115319Y11635D01*
X116122Y13093D01*
X116121Y13094D01*
X116123Y13094D01*
X116678Y14663D01*
X116678Y14665D01*
X116679Y14666D01*
X116851Y15882D01*
X116850Y15883D01*
X116851Y15883D01*
X116866Y17116D01*
X116865Y17116D01*
X116866Y17116D01*
X116836Y18453D01*
X116835Y18454D01*
X116836Y18455D01*
X116578Y19763D01*
X116577Y19764D01*
X116578Y19765D01*
X116011Y21237D01*
X116010Y21238D01*
X116010Y21239D01*
X115220Y22605D01*
X115219Y22605D01*
X115219Y22607D01*
X114208Y23817D01*
X114206Y23817D01*
X114206Y23819D01*
X112999Y24832D01*
X112998Y24832D01*
X112997Y24833D01*
X111631Y25620D01*
X111630Y25619D01*
X111629Y25620D01*
X110154Y26180D01*
X110152Y26179D01*
X110152Y26180D01*
X108592Y26468D01*
X108591Y26467D01*
X108590Y26468D01*
X108581Y26468D01*
X108268Y26480D01*
X107955Y26492D01*
X107642Y26504D01*
X107641Y26504D01*
X107329Y26516D01*
X107328Y26516D01*
X107015Y26528D01*
X107006Y26528D01*
X107005Y26528D01*
X105425Y26387D01*
X105424Y26387D01*
X105423Y26387D01*
X104075Y26091D01*
X104074Y26090D01*
X102782Y25602D01*
X102782Y25601D01*
X102781Y25601D01*
X101590Y24903D01*
X101590Y24901D01*
X101589Y24902D01*
X100499Y24053D01*
X100498Y24053D01*
X100140Y23746D01*
X100139Y23737D01*
X100138Y23736D01*
X100138Y23735D01*
X100138Y23730D01*
X100139Y23730D01*
X100139Y23729D01*
X100781Y22990D01*
X101421Y22253D01*
X102704Y20775D01*
X102711Y20774D01*
X102713Y20774D01*
X102720Y20773D01*
X102721Y20773D01*
X103470Y21336D01*
X104884Y22209D01*
X106459Y22731D01*
X108116Y22759D01*
X109696Y22261D01*
X110975Y21363D01*
X111924Y20122D01*
X112502Y18668D01*
X112701Y17114D01*
X112522Y15559D01*
X111962Y14097D01*
X111037Y12836D01*
X109971Y12002D01*
X108709Y11517D01*
X107359Y11378D01*
X105891Y11526D01*
X104515Y12050D01*
X103300Y12892D01*
X102628Y13446D01*
X102612Y13445D01*
X101317Y12139D01*
X100670Y11488D01*
X100022Y10835D01*
X100022Y10832D01*
X100022Y10831D01*
X100021Y10820D01*
X100023Y10820D01*
X100023Y10818D01*
X100701Y10193D01*
X100702Y10193D01*
X100702Y10192D01*
X101938Y9194D01*
X101939Y9194D01*
X101939Y9193D01*
X103318Y8408D01*
X103320Y8408D01*
X103320Y8407D01*
X104824Y7899D01*
X104825Y7899D01*
X104826Y7898D01*
X106536Y7706D01*
X106537Y7707D01*
X106537Y7706D01*
X108260Y7702D01*
X108261Y7703D01*
G37*
G36*
X88996Y7701D02*
X88996Y7701D01*
X88997Y7701D01*
X90745Y7902D01*
X90747Y7903D01*
X90748Y7902D01*
X92317Y8471D01*
X92318Y8473D01*
X92319Y8472D01*
X93757Y9319D01*
X93757Y9320D01*
X93758Y9320D01*
X95018Y10414D01*
X95019Y10415D01*
X95020Y10415D01*
X96060Y11719D01*
X96060Y11721D01*
X96062Y11721D01*
X96855Y13190D01*
X96855Y13191D01*
X96856Y13191D01*
X97379Y14777D01*
X97379Y14778D01*
X97380Y14779D01*
X97383Y14802D01*
X97390Y14850D01*
X97395Y14885D01*
X97397Y14897D01*
X97402Y14933D01*
X97404Y14945D01*
X97409Y14981D01*
X97416Y15029D01*
X97423Y15076D01*
X97424Y15076D01*
X97423Y15076D01*
X97431Y15124D01*
X97436Y15160D01*
X97438Y15172D01*
X97443Y15208D01*
X97445Y15220D01*
X97450Y15255D01*
X97457Y15303D01*
X97464Y15351D01*
X97471Y15399D01*
X97476Y15434D01*
X97476Y15435D01*
X97478Y15446D01*
X97483Y15482D01*
X97485Y15494D01*
X97490Y15530D01*
X97497Y15578D01*
X97504Y15625D01*
X97504Y15626D01*
X97511Y15673D01*
X97517Y15709D01*
X97518Y15721D01*
X97524Y15757D01*
X97525Y15769D01*
X97531Y15805D01*
X97538Y15852D01*
X97545Y15900D01*
X97552Y15948D01*
X97557Y15984D01*
X97559Y15996D01*
X97564Y16031D01*
X97566Y16043D01*
X97571Y16079D01*
X97578Y16127D01*
X97585Y16175D01*
X97592Y16222D01*
X97598Y16258D01*
X97599Y16270D01*
X97605Y16306D01*
X97606Y16318D01*
X97612Y16354D01*
X97619Y16401D01*
X97623Y16430D01*
X97622Y16432D01*
X97623Y16433D01*
X97579Y18100D01*
X97578Y18101D01*
X97579Y18102D01*
X97277Y19701D01*
X97276Y19702D01*
X97277Y19703D01*
X96717Y21230D01*
X96716Y21230D01*
X96716Y21232D01*
X95901Y22638D01*
X95899Y22638D01*
X95899Y22640D01*
X94844Y23876D01*
X94843Y23876D01*
X94843Y23877D01*
X93584Y24907D01*
X93583Y24907D01*
X93583Y24908D01*
X92163Y25702D01*
X92162Y25702D01*
X92162Y25703D01*
X90631Y26253D01*
X90629Y26252D01*
X90628Y26254D01*
X88862Y26482D01*
X88861Y26482D01*
X88860Y26482D01*
X87494Y26478D01*
X87483Y26478D01*
X87075Y26477D01*
X87075Y26476D01*
X87074Y26477D01*
X85307Y26248D01*
X85306Y26247D01*
X85305Y26248D01*
X83769Y25721D01*
X83768Y25720D01*
X83767Y25720D01*
X82337Y24956D01*
X82336Y24954D01*
X82335Y24955D01*
X81594Y24379D01*
X81594Y24378D01*
X81593Y24378D01*
X80940Y23714D01*
X80940Y23698D01*
X81731Y22709D01*
X81732Y22708D01*
X82569Y21753D01*
X82570Y21753D01*
X83451Y20842D01*
X83465Y20841D01*
X83467Y20841D01*
X84249Y21393D01*
X85420Y22153D01*
X86723Y22642D01*
X88110Y22779D01*
X89565Y22585D01*
X90904Y21994D01*
X92004Y21029D01*
X92794Y19794D01*
X93261Y18458D01*
X93378Y17047D01*
X93188Y15459D01*
X92597Y13975D01*
X91608Y12721D01*
X90289Y11823D01*
X89333Y11468D01*
X88312Y11393D01*
X86754Y11475D01*
X85294Y12006D01*
X84009Y12888D01*
X83290Y13452D01*
X83274Y13451D01*
X82056Y12227D01*
X80836Y10892D01*
X80836Y10876D01*
X81679Y9967D01*
X81680Y9966D01*
X82640Y9175D01*
X82642Y9176D01*
X82642Y9174D01*
X84014Y8430D01*
X84015Y8430D01*
X84015Y8429D01*
X85484Y7906D01*
X85486Y7907D01*
X85487Y7905D01*
X87233Y7702D01*
X87234Y7703D01*
X87234Y7702D01*
X88996Y7701D01*
X88996Y7701D01*
G37*
%LPC*%
G36*
X135530Y11490D02*
X135530Y11490D01*
X134182Y12033D01*
X133040Y12935D01*
X132168Y14101D01*
X131615Y15446D01*
X131461Y17016D01*
X131602Y18507D01*
X132120Y19907D01*
X133013Y21106D01*
X134253Y22084D01*
X135721Y22664D01*
X137294Y22804D01*
X137722Y22721D01*
X138843Y22498D01*
X140326Y21653D01*
X141461Y20372D01*
X142171Y18814D01*
X142412Y17120D01*
X142171Y15366D01*
X141434Y13758D01*
X140226Y12466D01*
X138669Y11625D01*
X137722Y11475D01*
X137109Y11380D01*
X135530Y11490D01*
G37*
%LPD*%
G36*
X154462Y7914D02*
X154462Y7914D01*
X154461Y7915D01*
X154462Y7915D01*
X154462Y26213D01*
X154452Y26224D01*
X154451Y26224D01*
X154450Y26225D01*
X150372Y26225D01*
X150360Y26214D01*
X150361Y26213D01*
X150360Y26213D01*
X150360Y7915D01*
X150370Y7904D01*
X150371Y7904D01*
X150372Y7904D01*
X154450Y7904D01*
X154462Y7914D01*
G37*
G36*
X124141Y7914D02*
X124141Y7914D01*
X124140Y7915D01*
X124141Y7915D01*
X124141Y12098D01*
X124130Y12110D01*
X124129Y12109D01*
X124129Y12110D01*
X119946Y12110D01*
X119934Y12099D01*
X119935Y12099D01*
X119934Y12098D01*
X119934Y7915D01*
X119945Y7904D01*
X119946Y7904D01*
X124129Y7904D01*
X124141Y7914D01*
G37*
D10*
X239141Y256673D02*
X234226Y256673D01*
X234226Y255445D01*
X239141Y250530D01*
X239141Y249301D01*
X234226Y249301D01*
X231657Y254216D02*
X230428Y254216D01*
X230428Y249301D01*
X231657Y249301D02*
X229199Y249301D01*
X230428Y256673D02*
X230428Y257902D01*
X225439Y249301D02*
X222981Y249301D01*
X221753Y250530D01*
X221753Y252987D01*
X222981Y254216D01*
X225439Y254216D01*
X226667Y252987D01*
X226667Y250530D01*
X225439Y249301D01*
X211699Y250530D02*
X211699Y255445D01*
X210470Y256673D01*
X208013Y256673D01*
X206784Y255445D01*
X206784Y250530D01*
X208013Y249301D01*
X210470Y249301D01*
X211699Y250530D01*
X209242Y251758D02*
X206784Y249301D01*
X204215Y250530D02*
X204215Y254216D01*
X204215Y250530D02*
X202986Y249301D01*
X201758Y250530D01*
X200529Y249301D01*
X199300Y250530D01*
X199300Y254216D01*
X196731Y254216D02*
X195502Y254216D01*
X195502Y249301D01*
X196731Y249301D02*
X194273Y249301D01*
X195502Y256673D02*
X195502Y257902D01*
X191741Y254216D02*
X190513Y254216D01*
X190513Y249301D01*
X191741Y249301D02*
X189284Y249301D01*
X190513Y256673D02*
X190513Y257902D01*
X185523Y254216D02*
X181837Y254216D01*
X185523Y254216D02*
X186752Y252987D01*
X186752Y250530D01*
X185523Y249301D01*
X181837Y249301D01*
X169326Y249301D02*
X169326Y256673D01*
X166869Y256673D02*
X171784Y256673D01*
X164299Y254216D02*
X164299Y249301D01*
X164299Y251758D02*
X161842Y254216D01*
X160613Y254216D01*
X158063Y254216D02*
X156834Y254216D01*
X156834Y249301D01*
X158063Y249301D02*
X155605Y249301D01*
X156834Y256673D02*
X156834Y257902D01*
X153073Y254216D02*
X153073Y246844D01*
X153073Y254216D02*
X149387Y254216D01*
X148158Y252987D01*
X148158Y250530D01*
X149387Y249301D01*
X153073Y249301D01*
X145589Y256673D02*
X144360Y256673D01*
X144360Y249301D01*
X143132Y249301D02*
X145589Y249301D01*
X139371Y249301D02*
X136914Y249301D01*
X139371Y249301D02*
X140600Y250530D01*
X140600Y252987D01*
X139371Y254216D01*
X136914Y254216D01*
X135685Y252987D01*
X135685Y251758D01*
X140600Y251758D01*
X125631Y249301D02*
X125631Y254216D01*
X123174Y256673D01*
X120716Y254216D01*
X120716Y249301D01*
X120716Y252987D02*
X125631Y252987D01*
X118147Y254216D02*
X113232Y249301D01*
X118147Y249301D02*
X113232Y254216D01*
X110663Y254216D02*
X109434Y254216D01*
X109434Y249301D01*
X108206Y249301D02*
X110663Y249301D01*
X109434Y256673D02*
X109434Y257902D01*
X105674Y249301D02*
X101987Y249301D01*
X100759Y250530D01*
X101987Y251758D01*
X104445Y251758D01*
X105674Y252987D01*
X104445Y254216D01*
X100759Y254216D01*
X90705Y256673D02*
X90705Y249301D01*
X88248Y254216D02*
X90705Y256673D01*
X88248Y254216D02*
X85790Y256673D01*
X85790Y249301D01*
X81992Y254216D02*
X79535Y254216D01*
X78306Y252987D01*
X78306Y249301D01*
X81992Y249301D01*
X83221Y250530D01*
X81992Y251758D01*
X78306Y251758D01*
X73280Y246844D02*
X72051Y246844D01*
X70822Y248072D01*
X70822Y254216D01*
X74508Y254216D01*
X75737Y252987D01*
X75737Y250530D01*
X74508Y249301D01*
X70822Y249301D01*
X68253Y249301D02*
X68253Y254216D01*
X64567Y254216D01*
X63338Y252987D01*
X63338Y249301D01*
X59540Y249301D02*
X57083Y249301D01*
X59540Y249301D02*
X60769Y250530D01*
X60769Y252987D01*
X59540Y254216D01*
X57083Y254216D01*
X55854Y252987D01*
X55854Y251758D01*
X60769Y251758D01*
X52056Y250530D02*
X52056Y255445D01*
X52056Y250530D02*
X50827Y249301D01*
X50827Y254216D02*
X53284Y254216D01*
X47066Y249301D02*
X44609Y249301D01*
X43380Y250530D01*
X43380Y252987D01*
X44609Y254216D01*
X47066Y254216D01*
X48295Y252987D01*
X48295Y250530D01*
X47066Y249301D01*
X40811Y249301D02*
X40811Y254216D01*
X39582Y254216D01*
X38353Y252987D01*
X38353Y249301D01*
X38353Y252987D02*
X37125Y254216D01*
X35896Y252987D01*
X35896Y249301D01*
X32098Y249301D02*
X29641Y249301D01*
X32098Y249301D02*
X33327Y250530D01*
X33327Y252987D01*
X32098Y254216D01*
X29641Y254216D01*
X28412Y252987D01*
X28412Y251758D01*
X33327Y251758D01*
X24614Y250530D02*
X24614Y255445D01*
X24614Y250530D02*
X23385Y249301D01*
X23385Y254216D02*
X25843Y254216D01*
X19624Y249301D02*
X17167Y249301D01*
X19624Y249301D02*
X20853Y250530D01*
X20853Y252987D01*
X19624Y254216D01*
X17167Y254216D01*
X15938Y252987D01*
X15938Y251758D01*
X20853Y251758D01*
X13369Y249301D02*
X13369Y254216D01*
X10912Y254216D02*
X13369Y251758D01*
X10912Y254216D02*
X9683Y254216D01*
X239141Y244481D02*
X239141Y237109D01*
X236684Y242024D02*
X239141Y244481D01*
X236684Y242024D02*
X234226Y244481D01*
X234226Y237109D01*
X231657Y237109D02*
X231657Y244481D01*
X231657Y237109D02*
X226742Y237109D01*
X219258Y237109D02*
X224173Y244481D01*
X219258Y244481D02*
X224173Y237109D01*
X216689Y238338D02*
X215460Y237109D01*
X213002Y237109D01*
X211774Y238338D01*
X211774Y243253D01*
X213002Y244481D01*
X215460Y244481D01*
X216689Y243253D01*
X216689Y242024D01*
X215460Y240795D01*
X211774Y240795D01*
X209204Y238338D02*
X209204Y243253D01*
X207976Y244481D01*
X205518Y244481D01*
X204290Y243253D01*
X204290Y238338D01*
X205518Y237109D01*
X207976Y237109D01*
X209204Y238338D01*
X204290Y243253D01*
X201720Y243253D02*
X200492Y244481D01*
X198034Y244481D01*
X196805Y243253D01*
X196805Y242024D01*
X198034Y240795D01*
X199263Y240795D01*
X198034Y240795D02*
X196805Y239566D01*
X196805Y238338D01*
X198034Y237109D01*
X200492Y237109D01*
X201720Y238338D01*
X194236Y238338D02*
X193007Y237109D01*
X190550Y237109D01*
X189321Y238338D01*
X189321Y243253D01*
X190550Y244481D01*
X193007Y244481D01*
X194236Y243253D01*
X194236Y242024D01*
X193007Y240795D01*
X189321Y240795D01*
X184295Y243253D02*
X181837Y244481D01*
X184295Y243253D02*
X186752Y240795D01*
X186752Y238338D01*
X185523Y237109D01*
X183066Y237109D01*
X181837Y238338D01*
X181837Y239566D01*
X183066Y240795D01*
X186752Y240795D01*
X100965Y74000D02*
X99736Y72771D01*
X98508Y72771D01*
X97279Y74000D01*
X97279Y80143D01*
X98508Y80143D02*
X96050Y80143D01*
X93481Y80143D02*
X93481Y72771D01*
X93481Y80143D02*
X89795Y80143D01*
X88566Y78915D01*
X88566Y76457D01*
X89795Y75228D01*
X93481Y75228D01*
X85997Y77686D02*
X83539Y80143D01*
X83539Y72771D01*
X81082Y72771D02*
X85997Y72771D01*
X199771Y152019D02*
X199771Y156934D01*
X197314Y159391D01*
X194856Y156934D01*
X194856Y152019D01*
X194856Y155705D02*
X199771Y155705D01*
X192287Y153248D02*
X192287Y158163D01*
X191058Y159391D01*
X188601Y159391D01*
X187372Y158163D01*
X187372Y153248D01*
X188601Y152019D01*
X191058Y152019D01*
X192287Y153248D01*
X187372Y158163D01*
X199771Y135344D02*
X199771Y130429D01*
X199771Y135344D02*
X197314Y137801D01*
X194856Y135344D01*
X194856Y130429D01*
X194856Y134115D02*
X199771Y134115D01*
X192287Y135344D02*
X189829Y137801D01*
X189829Y130429D01*
X187372Y130429D02*
X192287Y130429D01*
X109217Y146437D02*
X107988Y145209D01*
X109217Y146437D02*
X111674Y146437D01*
X112903Y145209D01*
X112903Y140294D01*
X111674Y139065D01*
X109217Y139065D01*
X107988Y140294D01*
X101733Y146437D02*
X100504Y145209D01*
X101733Y146437D02*
X104190Y146437D01*
X105419Y145209D01*
X105419Y143980D01*
X104190Y142751D01*
X101733Y142751D01*
X100504Y141522D01*
X100504Y140294D01*
X101733Y139065D01*
X104190Y139065D01*
X105419Y140294D01*
X67437Y145463D02*
X66208Y146691D01*
X63751Y146691D01*
X62522Y145463D01*
X62522Y144234D01*
X63751Y143005D01*
X64980Y143005D01*
X63751Y143005D02*
X62522Y141776D01*
X62522Y140548D01*
X63751Y139319D01*
X66208Y139319D01*
X67437Y140548D01*
X59953Y141776D02*
X59953Y146691D01*
X59953Y141776D02*
X57495Y139319D01*
X55038Y141776D01*
X55038Y146691D01*
X52469Y145463D02*
X51240Y146691D01*
X48783Y146691D01*
X47554Y145463D01*
X47554Y144234D01*
X48783Y143005D01*
X50011Y143005D01*
X48783Y143005D02*
X47554Y141776D01*
X47554Y140548D01*
X48783Y139319D01*
X51240Y139319D01*
X52469Y140548D01*
D11*
X78232Y86708D02*
X103632Y86708D01*
X78232Y107028D02*
X78132Y107026D01*
X78033Y107020D01*
X77933Y107010D01*
X77835Y106997D01*
X77736Y106979D01*
X77639Y106958D01*
X77543Y106933D01*
X77447Y106904D01*
X77353Y106871D01*
X77260Y106835D01*
X77169Y106795D01*
X77079Y106751D01*
X76991Y106704D01*
X76905Y106654D01*
X76821Y106600D01*
X76739Y106543D01*
X76660Y106483D01*
X76582Y106419D01*
X76508Y106353D01*
X76436Y106284D01*
X76367Y106212D01*
X76301Y106138D01*
X76237Y106060D01*
X76177Y105981D01*
X76120Y105899D01*
X76066Y105815D01*
X76016Y105729D01*
X75969Y105641D01*
X75925Y105551D01*
X75885Y105460D01*
X75849Y105367D01*
X75816Y105273D01*
X75787Y105177D01*
X75762Y105081D01*
X75741Y104984D01*
X75723Y104885D01*
X75710Y104787D01*
X75700Y104687D01*
X75694Y104588D01*
X75692Y104488D01*
X103632Y107028D02*
X103732Y107026D01*
X103831Y107020D01*
X103931Y107010D01*
X104029Y106997D01*
X104128Y106979D01*
X104225Y106958D01*
X104321Y106933D01*
X104417Y106904D01*
X104511Y106871D01*
X104604Y106835D01*
X104695Y106795D01*
X104785Y106751D01*
X104873Y106704D01*
X104959Y106654D01*
X105043Y106600D01*
X105125Y106543D01*
X105204Y106483D01*
X105282Y106419D01*
X105356Y106353D01*
X105428Y106284D01*
X105497Y106212D01*
X105563Y106138D01*
X105627Y106060D01*
X105687Y105981D01*
X105744Y105899D01*
X105798Y105815D01*
X105848Y105729D01*
X105895Y105641D01*
X105939Y105551D01*
X105979Y105460D01*
X106015Y105367D01*
X106048Y105273D01*
X106077Y105177D01*
X106102Y105081D01*
X106123Y104984D01*
X106141Y104885D01*
X106154Y104787D01*
X106164Y104687D01*
X106170Y104588D01*
X106172Y104488D01*
X106172Y89248D02*
X106170Y89148D01*
X106164Y89049D01*
X106154Y88949D01*
X106141Y88851D01*
X106123Y88752D01*
X106102Y88655D01*
X106077Y88559D01*
X106048Y88463D01*
X106015Y88369D01*
X105979Y88276D01*
X105939Y88185D01*
X105895Y88095D01*
X105848Y88007D01*
X105798Y87921D01*
X105744Y87837D01*
X105687Y87755D01*
X105627Y87676D01*
X105563Y87598D01*
X105497Y87524D01*
X105428Y87452D01*
X105356Y87383D01*
X105282Y87317D01*
X105204Y87253D01*
X105125Y87193D01*
X105043Y87136D01*
X104959Y87082D01*
X104873Y87032D01*
X104785Y86985D01*
X104695Y86941D01*
X104604Y86901D01*
X104511Y86865D01*
X104417Y86832D01*
X104321Y86803D01*
X104225Y86778D01*
X104128Y86757D01*
X104029Y86739D01*
X103931Y86726D01*
X103831Y86716D01*
X103732Y86710D01*
X103632Y86708D01*
X78232Y86708D02*
X78132Y86710D01*
X78033Y86716D01*
X77933Y86726D01*
X77835Y86739D01*
X77736Y86757D01*
X77639Y86778D01*
X77543Y86803D01*
X77447Y86832D01*
X77353Y86865D01*
X77260Y86901D01*
X77169Y86941D01*
X77079Y86985D01*
X76991Y87032D01*
X76905Y87082D01*
X76821Y87136D01*
X76739Y87193D01*
X76660Y87253D01*
X76582Y87317D01*
X76508Y87383D01*
X76436Y87452D01*
X76367Y87524D01*
X76301Y87598D01*
X76237Y87676D01*
X76177Y87755D01*
X76120Y87837D01*
X76066Y87921D01*
X76016Y88007D01*
X75969Y88095D01*
X75925Y88185D01*
X75885Y88276D01*
X75849Y88369D01*
X75816Y88463D01*
X75787Y88559D01*
X75762Y88655D01*
X75741Y88752D01*
X75723Y88851D01*
X75710Y88949D01*
X75700Y89049D01*
X75694Y89148D01*
X75692Y89248D01*
X75692Y104488D01*
X106172Y104488D02*
X106172Y89248D01*
X103632Y107028D02*
X78232Y107028D01*
X164256Y166028D02*
X181528Y166028D01*
X184068Y148248D02*
X184066Y148148D01*
X184060Y148049D01*
X184050Y147949D01*
X184037Y147851D01*
X184019Y147752D01*
X183998Y147655D01*
X183973Y147559D01*
X183944Y147463D01*
X183911Y147369D01*
X183875Y147276D01*
X183835Y147185D01*
X183791Y147095D01*
X183744Y147007D01*
X183694Y146921D01*
X183640Y146837D01*
X183583Y146755D01*
X183523Y146676D01*
X183459Y146598D01*
X183393Y146524D01*
X183324Y146452D01*
X183252Y146383D01*
X183178Y146317D01*
X183100Y146253D01*
X183021Y146193D01*
X182939Y146136D01*
X182855Y146082D01*
X182769Y146032D01*
X182681Y145985D01*
X182591Y145941D01*
X182500Y145901D01*
X182407Y145865D01*
X182313Y145832D01*
X182217Y145803D01*
X182121Y145778D01*
X182024Y145757D01*
X181925Y145739D01*
X181827Y145726D01*
X181727Y145716D01*
X181628Y145710D01*
X181528Y145708D01*
X164256Y145708D02*
X164156Y145710D01*
X164057Y145716D01*
X163957Y145726D01*
X163859Y145739D01*
X163760Y145757D01*
X163663Y145778D01*
X163567Y145803D01*
X163471Y145832D01*
X163377Y145865D01*
X163284Y145901D01*
X163193Y145941D01*
X163103Y145985D01*
X163015Y146032D01*
X162929Y146082D01*
X162845Y146136D01*
X162763Y146193D01*
X162684Y146253D01*
X162606Y146317D01*
X162532Y146383D01*
X162460Y146452D01*
X162391Y146524D01*
X162325Y146598D01*
X162261Y146676D01*
X162201Y146755D01*
X162144Y146837D01*
X162090Y146921D01*
X162040Y147007D01*
X161993Y147095D01*
X161949Y147185D01*
X161909Y147276D01*
X161873Y147369D01*
X161840Y147463D01*
X161811Y147559D01*
X161786Y147655D01*
X161765Y147752D01*
X161747Y147851D01*
X161734Y147949D01*
X161724Y148049D01*
X161718Y148148D01*
X161716Y148248D01*
X161716Y163488D02*
X161718Y163588D01*
X161724Y163687D01*
X161734Y163787D01*
X161747Y163885D01*
X161765Y163984D01*
X161786Y164081D01*
X161811Y164177D01*
X161840Y164273D01*
X161873Y164367D01*
X161909Y164460D01*
X161949Y164551D01*
X161993Y164641D01*
X162040Y164729D01*
X162090Y164815D01*
X162144Y164899D01*
X162201Y164981D01*
X162261Y165060D01*
X162325Y165138D01*
X162391Y165212D01*
X162460Y165284D01*
X162532Y165353D01*
X162606Y165419D01*
X162684Y165483D01*
X162763Y165543D01*
X162845Y165600D01*
X162929Y165654D01*
X163015Y165704D01*
X163103Y165751D01*
X163193Y165795D01*
X163284Y165835D01*
X163377Y165871D01*
X163471Y165904D01*
X163567Y165933D01*
X163663Y165958D01*
X163760Y165979D01*
X163859Y165997D01*
X163957Y166010D01*
X164057Y166020D01*
X164156Y166026D01*
X164256Y166028D01*
X181528Y166028D02*
X181628Y166026D01*
X181727Y166020D01*
X181827Y166010D01*
X181925Y165997D01*
X182024Y165979D01*
X182121Y165958D01*
X182217Y165933D01*
X182313Y165904D01*
X182407Y165871D01*
X182500Y165835D01*
X182591Y165795D01*
X182681Y165751D01*
X182769Y165704D01*
X182855Y165654D01*
X182939Y165600D01*
X183021Y165543D01*
X183100Y165483D01*
X183178Y165419D01*
X183252Y165353D01*
X183324Y165284D01*
X183393Y165212D01*
X183459Y165138D01*
X183523Y165060D01*
X183583Y164981D01*
X183640Y164899D01*
X183694Y164815D01*
X183744Y164729D01*
X183791Y164641D01*
X183835Y164551D01*
X183875Y164460D01*
X183911Y164367D01*
X183944Y164273D01*
X183973Y164177D01*
X183998Y164081D01*
X184019Y163984D01*
X184037Y163885D01*
X184050Y163787D01*
X184060Y163687D01*
X184066Y163588D01*
X184068Y163488D01*
X184068Y148248D01*
X161716Y148248D02*
X161716Y163488D01*
X164256Y145708D02*
X181528Y145708D01*
X181356Y143858D02*
X164084Y143858D01*
X183896Y126078D02*
X183894Y125978D01*
X183888Y125879D01*
X183878Y125779D01*
X183865Y125681D01*
X183847Y125582D01*
X183826Y125485D01*
X183801Y125389D01*
X183772Y125293D01*
X183739Y125199D01*
X183703Y125106D01*
X183663Y125015D01*
X183619Y124925D01*
X183572Y124837D01*
X183522Y124751D01*
X183468Y124667D01*
X183411Y124585D01*
X183351Y124506D01*
X183287Y124428D01*
X183221Y124354D01*
X183152Y124282D01*
X183080Y124213D01*
X183006Y124147D01*
X182928Y124083D01*
X182849Y124023D01*
X182767Y123966D01*
X182683Y123912D01*
X182597Y123862D01*
X182509Y123815D01*
X182419Y123771D01*
X182328Y123731D01*
X182235Y123695D01*
X182141Y123662D01*
X182045Y123633D01*
X181949Y123608D01*
X181852Y123587D01*
X181753Y123569D01*
X181655Y123556D01*
X181555Y123546D01*
X181456Y123540D01*
X181356Y123538D01*
X164084Y123538D02*
X163984Y123540D01*
X163885Y123546D01*
X163785Y123556D01*
X163687Y123569D01*
X163588Y123587D01*
X163491Y123608D01*
X163395Y123633D01*
X163299Y123662D01*
X163205Y123695D01*
X163112Y123731D01*
X163021Y123771D01*
X162931Y123815D01*
X162843Y123862D01*
X162757Y123912D01*
X162673Y123966D01*
X162591Y124023D01*
X162512Y124083D01*
X162434Y124147D01*
X162360Y124213D01*
X162288Y124282D01*
X162219Y124354D01*
X162153Y124428D01*
X162089Y124506D01*
X162029Y124585D01*
X161972Y124667D01*
X161918Y124751D01*
X161868Y124837D01*
X161821Y124925D01*
X161777Y125015D01*
X161737Y125106D01*
X161701Y125199D01*
X161668Y125293D01*
X161639Y125389D01*
X161614Y125485D01*
X161593Y125582D01*
X161575Y125681D01*
X161562Y125779D01*
X161552Y125879D01*
X161546Y125978D01*
X161544Y126078D01*
X161544Y141318D02*
X161546Y141418D01*
X161552Y141517D01*
X161562Y141617D01*
X161575Y141715D01*
X161593Y141814D01*
X161614Y141911D01*
X161639Y142007D01*
X161668Y142103D01*
X161701Y142197D01*
X161737Y142290D01*
X161777Y142381D01*
X161821Y142471D01*
X161868Y142559D01*
X161918Y142645D01*
X161972Y142729D01*
X162029Y142811D01*
X162089Y142890D01*
X162153Y142968D01*
X162219Y143042D01*
X162288Y143114D01*
X162360Y143183D01*
X162434Y143249D01*
X162512Y143313D01*
X162591Y143373D01*
X162673Y143430D01*
X162757Y143484D01*
X162843Y143534D01*
X162931Y143581D01*
X163021Y143625D01*
X163112Y143665D01*
X163205Y143701D01*
X163299Y143734D01*
X163395Y143763D01*
X163491Y143788D01*
X163588Y143809D01*
X163687Y143827D01*
X163785Y143840D01*
X163885Y143850D01*
X163984Y143856D01*
X164084Y143858D01*
X181356Y143858D02*
X181456Y143856D01*
X181555Y143850D01*
X181655Y143840D01*
X181753Y143827D01*
X181852Y143809D01*
X181949Y143788D01*
X182045Y143763D01*
X182141Y143734D01*
X182235Y143701D01*
X182328Y143665D01*
X182419Y143625D01*
X182509Y143581D01*
X182597Y143534D01*
X182683Y143484D01*
X182767Y143430D01*
X182849Y143373D01*
X182928Y143313D01*
X183006Y143249D01*
X183080Y143183D01*
X183152Y143114D01*
X183221Y143042D01*
X183287Y142968D01*
X183351Y142890D01*
X183411Y142811D01*
X183468Y142729D01*
X183522Y142645D01*
X183572Y142559D01*
X183619Y142471D01*
X183663Y142381D01*
X183703Y142290D01*
X183739Y142197D01*
X183772Y142103D01*
X183801Y142007D01*
X183826Y141911D01*
X183847Y141814D01*
X183865Y141715D01*
X183878Y141617D01*
X183888Y141517D01*
X183894Y141418D01*
X183896Y141318D01*
X183896Y126078D01*
X161544Y126078D02*
X161544Y141318D01*
X164084Y123538D02*
X181356Y123538D01*
X90170Y132428D02*
X72898Y132428D01*
X70358Y150208D02*
X70360Y150308D01*
X70366Y150407D01*
X70376Y150507D01*
X70389Y150605D01*
X70407Y150704D01*
X70428Y150801D01*
X70453Y150897D01*
X70482Y150993D01*
X70515Y151087D01*
X70551Y151180D01*
X70591Y151271D01*
X70635Y151361D01*
X70682Y151449D01*
X70732Y151535D01*
X70786Y151619D01*
X70843Y151701D01*
X70903Y151780D01*
X70967Y151858D01*
X71033Y151932D01*
X71102Y152004D01*
X71174Y152073D01*
X71248Y152139D01*
X71326Y152203D01*
X71405Y152263D01*
X71487Y152320D01*
X71571Y152374D01*
X71657Y152424D01*
X71745Y152471D01*
X71835Y152515D01*
X71926Y152555D01*
X72019Y152591D01*
X72113Y152624D01*
X72209Y152653D01*
X72305Y152678D01*
X72402Y152699D01*
X72501Y152717D01*
X72599Y152730D01*
X72699Y152740D01*
X72798Y152746D01*
X72898Y152748D01*
X90170Y152748D02*
X90270Y152746D01*
X90369Y152740D01*
X90469Y152730D01*
X90567Y152717D01*
X90666Y152699D01*
X90763Y152678D01*
X90859Y152653D01*
X90955Y152624D01*
X91049Y152591D01*
X91142Y152555D01*
X91233Y152515D01*
X91323Y152471D01*
X91411Y152424D01*
X91497Y152374D01*
X91581Y152320D01*
X91663Y152263D01*
X91742Y152203D01*
X91820Y152139D01*
X91894Y152073D01*
X91966Y152004D01*
X92035Y151932D01*
X92101Y151858D01*
X92165Y151780D01*
X92225Y151701D01*
X92282Y151619D01*
X92336Y151535D01*
X92386Y151449D01*
X92433Y151361D01*
X92477Y151271D01*
X92517Y151180D01*
X92553Y151087D01*
X92586Y150993D01*
X92615Y150897D01*
X92640Y150801D01*
X92661Y150704D01*
X92679Y150605D01*
X92692Y150507D01*
X92702Y150407D01*
X92708Y150308D01*
X92710Y150208D01*
X92710Y134968D02*
X92708Y134868D01*
X92702Y134769D01*
X92692Y134669D01*
X92679Y134571D01*
X92661Y134472D01*
X92640Y134375D01*
X92615Y134279D01*
X92586Y134183D01*
X92553Y134089D01*
X92517Y133996D01*
X92477Y133905D01*
X92433Y133815D01*
X92386Y133727D01*
X92336Y133641D01*
X92282Y133557D01*
X92225Y133475D01*
X92165Y133396D01*
X92101Y133318D01*
X92035Y133244D01*
X91966Y133172D01*
X91894Y133103D01*
X91820Y133037D01*
X91742Y132973D01*
X91663Y132913D01*
X91581Y132856D01*
X91497Y132802D01*
X91411Y132752D01*
X91323Y132705D01*
X91233Y132661D01*
X91142Y132621D01*
X91049Y132585D01*
X90955Y132552D01*
X90859Y132523D01*
X90763Y132498D01*
X90666Y132477D01*
X90567Y132459D01*
X90469Y132446D01*
X90369Y132436D01*
X90270Y132430D01*
X90170Y132428D01*
X72898Y132428D02*
X72798Y132430D01*
X72699Y132436D01*
X72599Y132446D01*
X72501Y132459D01*
X72402Y132477D01*
X72305Y132498D01*
X72209Y132523D01*
X72113Y132552D01*
X72019Y132585D01*
X71926Y132621D01*
X71835Y132661D01*
X71745Y132705D01*
X71657Y132752D01*
X71571Y132802D01*
X71487Y132856D01*
X71405Y132913D01*
X71326Y132973D01*
X71248Y133037D01*
X71174Y133103D01*
X71102Y133172D01*
X71033Y133244D01*
X70967Y133318D01*
X70903Y133396D01*
X70843Y133475D01*
X70786Y133557D01*
X70732Y133641D01*
X70682Y133727D01*
X70635Y133815D01*
X70591Y133905D01*
X70551Y133996D01*
X70515Y134089D01*
X70482Y134183D01*
X70453Y134279D01*
X70428Y134375D01*
X70407Y134472D01*
X70389Y134571D01*
X70376Y134669D01*
X70366Y134769D01*
X70360Y134868D01*
X70358Y134968D01*
X70358Y150208D01*
X92710Y150208D02*
X92710Y134968D01*
X90170Y152748D02*
X72898Y152748D01*
D12*
X81206Y231320D03*
D13*
X75906Y231320D03*
X71706Y231320D03*
D14*
X63806Y231320D03*
X56206Y231320D03*
D13*
X52106Y231320D03*
X47906Y231320D03*
D15*
X40106Y231320D03*
D16*
X81206Y231120D03*
D17*
X75806Y231120D03*
X71606Y231120D03*
X63806Y231120D03*
D13*
X56106Y231120D03*
D17*
X52206Y231120D03*
X47806Y231120D03*
D14*
X40006Y231120D03*
D18*
X81306Y230920D03*
D17*
X75806Y230920D03*
X71606Y230920D03*
D19*
X63906Y230920D03*
D17*
X56206Y230920D03*
X52206Y230920D03*
X47806Y230920D03*
D20*
X40006Y230920D03*
X81206Y230720D03*
D17*
X75806Y230720D03*
X71606Y230720D03*
D19*
X63906Y230720D03*
D13*
X56306Y230720D03*
D17*
X52206Y230720D03*
X47806Y230720D03*
D21*
X40106Y230720D03*
D22*
X81206Y230520D03*
D17*
X75806Y230520D03*
X71406Y230520D03*
D23*
X63806Y230520D03*
D13*
X56306Y230520D03*
D17*
X52206Y230520D03*
X47806Y230520D03*
D24*
X40006Y230520D03*
D25*
X81306Y230320D03*
D17*
X75806Y230320D03*
X71406Y230320D03*
D23*
X63806Y230320D03*
D17*
X56406Y230320D03*
X52206Y230320D03*
X47806Y230320D03*
D26*
X40106Y230320D03*
D27*
X81306Y230120D03*
D19*
X75906Y230120D03*
D13*
X71306Y230120D03*
D18*
X63906Y230120D03*
D13*
X56506Y230120D03*
D17*
X52206Y230120D03*
X47806Y230120D03*
D28*
X40106Y230120D03*
D29*
X79406Y229920D03*
D17*
X71206Y229920D03*
D18*
X63906Y229920D03*
D13*
X56506Y229920D03*
D17*
X52206Y229920D03*
X47806Y229920D03*
D30*
X40006Y229920D03*
D31*
X79506Y229720D03*
D17*
X71206Y229720D03*
D32*
X63806Y229720D03*
D13*
X56506Y229720D03*
D17*
X52206Y229720D03*
X47806Y229720D03*
D33*
X40006Y229720D03*
D34*
X79606Y229520D03*
D13*
X71106Y229520D03*
D35*
X63906Y229520D03*
D13*
X56706Y229520D03*
D17*
X52206Y229520D03*
X47806Y229520D03*
D36*
X40106Y229520D03*
D34*
X79606Y229320D03*
D13*
X71106Y229320D03*
D35*
X63906Y229320D03*
D13*
X56706Y229320D03*
D17*
X52206Y229320D03*
X47806Y229320D03*
D37*
X40106Y229320D03*
D38*
X79706Y229120D03*
D17*
X71006Y229120D03*
D20*
X63806Y229120D03*
D14*
X56806Y229120D03*
D17*
X52206Y229120D03*
X47806Y229120D03*
D39*
X40006Y229120D03*
D40*
X79806Y228920D03*
D13*
X70906Y228920D03*
D20*
X63806Y228920D03*
D13*
X56906Y228920D03*
D17*
X52206Y228920D03*
X47806Y228920D03*
D41*
X40006Y228920D03*
D40*
X79806Y228720D03*
D13*
X70906Y228720D03*
D42*
X63906Y228720D03*
D13*
X56906Y228720D03*
D17*
X52206Y228720D03*
X47806Y228720D03*
D41*
X40206Y228720D03*
D40*
X79806Y228520D03*
D17*
X70806Y228520D03*
D43*
X63806Y228520D03*
D13*
X56906Y228520D03*
D17*
X52206Y228520D03*
X47806Y228520D03*
D44*
X40306Y228520D03*
D20*
X83406Y228320D03*
D21*
X76706Y228320D03*
D13*
X70706Y228320D03*
D43*
X63806Y228320D03*
D14*
X57006Y228320D03*
D17*
X52206Y228320D03*
X47806Y228320D03*
D20*
X42806Y228320D03*
D14*
X37606Y228320D03*
D35*
X83706Y228120D03*
D42*
X76506Y228120D03*
D13*
X70706Y228120D03*
D43*
X63806Y228120D03*
D13*
X57106Y228120D03*
D17*
X52206Y228120D03*
X47806Y228120D03*
D32*
X43006Y228120D03*
D45*
X37506Y228120D03*
D18*
X83906Y227920D03*
D35*
X76306Y227920D03*
D17*
X70606Y227920D03*
D21*
X63906Y227920D03*
D14*
X57206Y227920D03*
D17*
X52206Y227920D03*
X47806Y227920D03*
D18*
X43306Y227920D03*
D46*
X37506Y227920D03*
D23*
X84006Y227720D03*
D32*
X76206Y227720D03*
D13*
X70506Y227720D03*
D21*
X63906Y227720D03*
D14*
X57206Y227720D03*
D17*
X52206Y227720D03*
X47806Y227720D03*
D23*
X43406Y227720D03*
D12*
X37606Y227720D03*
D23*
X84006Y227520D03*
D18*
X76106Y227520D03*
D13*
X70506Y227520D03*
D47*
X63906Y227520D03*
D13*
X57306Y227520D03*
D17*
X52206Y227520D03*
X47806Y227520D03*
D19*
X43506Y227520D03*
D48*
X37706Y227520D03*
D19*
X84106Y227320D03*
D23*
X76006Y227320D03*
D14*
X70406Y227320D03*
D47*
X63906Y227320D03*
D14*
X57406Y227320D03*
D17*
X52206Y227320D03*
X47806Y227320D03*
X43606Y227320D03*
D19*
X84306Y227120D03*
D23*
X76006Y227120D03*
D13*
X70306Y227120D03*
D49*
X63806Y227120D03*
D14*
X57406Y227120D03*
D17*
X52206Y227120D03*
X47806Y227120D03*
D19*
X43706Y227120D03*
X84306Y226920D03*
D23*
X76006Y226920D03*
D13*
X70306Y226920D03*
D49*
X63806Y226920D03*
D14*
X57606Y226920D03*
D17*
X52206Y226920D03*
X47806Y226920D03*
D19*
X43706Y226920D03*
X84306Y226720D03*
X75906Y226720D03*
D14*
X70206Y226720D03*
D16*
X65406Y226720D03*
D50*
X62306Y226720D03*
D14*
X57606Y226720D03*
D17*
X52206Y226720D03*
X47806Y226720D03*
X43806Y226720D03*
X84406Y226520D03*
D19*
X75906Y226520D03*
D13*
X70106Y226520D03*
D16*
X65606Y226520D03*
D50*
X62306Y226520D03*
D14*
X57606Y226520D03*
D17*
X52206Y226520D03*
X47806Y226520D03*
X43806Y226520D03*
X84406Y226320D03*
D19*
X75906Y226320D03*
D13*
X70106Y226320D03*
D16*
X65606Y226320D03*
D50*
X62106Y226320D03*
X57706Y226320D03*
D17*
X52206Y226320D03*
X47806Y226320D03*
X43806Y226320D03*
X84406Y226120D03*
X75806Y226120D03*
D14*
X70006Y226120D03*
D50*
X65706Y226120D03*
X62106Y226120D03*
D14*
X57806Y226120D03*
D17*
X52206Y226120D03*
X47806Y226120D03*
X43806Y226120D03*
X84406Y225920D03*
X75806Y225920D03*
D13*
X69906Y225920D03*
D50*
X65706Y225920D03*
X62106Y225920D03*
D14*
X57806Y225920D03*
D17*
X52206Y225920D03*
X47806Y225920D03*
X43806Y225920D03*
X84406Y225720D03*
X75806Y225720D03*
D14*
X69806Y225720D03*
D16*
X65806Y225720D03*
X62006Y225720D03*
D50*
X57906Y225720D03*
D17*
X52206Y225720D03*
X47806Y225720D03*
X43806Y225720D03*
X84406Y225520D03*
X75806Y225520D03*
D14*
X69806Y225520D03*
D16*
X65806Y225520D03*
D50*
X61906Y225520D03*
D14*
X58006Y225520D03*
D17*
X52206Y225520D03*
X47806Y225520D03*
X43806Y225520D03*
X84406Y225320D03*
X75806Y225320D03*
D14*
X69806Y225320D03*
D16*
X66006Y225320D03*
D50*
X61906Y225320D03*
X58106Y225320D03*
D17*
X52206Y225320D03*
X47806Y225320D03*
X43806Y225320D03*
X84406Y225120D03*
D19*
X75906Y225120D03*
D13*
X69706Y225120D03*
D16*
X66006Y225120D03*
D50*
X61706Y225120D03*
X58106Y225120D03*
D17*
X52206Y225120D03*
X47806Y225120D03*
X43806Y225120D03*
X84406Y224920D03*
D19*
X75906Y224920D03*
D14*
X69606Y224920D03*
D16*
X66006Y224920D03*
D50*
X61706Y224920D03*
X58106Y224920D03*
D17*
X52206Y224920D03*
X47806Y224920D03*
X43806Y224920D03*
D19*
X84306Y224720D03*
X75906Y224720D03*
D14*
X69606Y224720D03*
D16*
X66006Y224720D03*
D50*
X61706Y224720D03*
D14*
X58206Y224720D03*
D17*
X52206Y224720D03*
X47806Y224720D03*
D19*
X43706Y224720D03*
X84306Y224520D03*
D23*
X76006Y224520D03*
D14*
X69406Y224520D03*
D16*
X66206Y224520D03*
D50*
X61706Y224520D03*
X58306Y224520D03*
D17*
X52206Y224520D03*
X47806Y224520D03*
D19*
X43706Y224520D03*
X84306Y224320D03*
D23*
X76006Y224320D03*
D25*
X67906Y224320D03*
X59906Y224320D03*
D17*
X52206Y224320D03*
X47806Y224320D03*
D19*
X43506Y224320D03*
D51*
X37606Y224320D03*
D19*
X84106Y224120D03*
D23*
X76006Y224120D03*
D25*
X67906Y224120D03*
D49*
X60006Y224120D03*
D17*
X52206Y224120D03*
X47806Y224120D03*
D19*
X43506Y224120D03*
D52*
X37506Y224120D03*
D23*
X84006Y223920D03*
D18*
X76106Y223920D03*
D47*
X67906Y223920D03*
X59906Y223920D03*
D17*
X52206Y223920D03*
X47806Y223920D03*
D23*
X43406Y223920D03*
D53*
X37406Y223920D03*
D23*
X84006Y223720D03*
D32*
X76206Y223720D03*
D47*
X67906Y223720D03*
X59906Y223720D03*
D17*
X52206Y223720D03*
X47806Y223720D03*
D18*
X43306Y223720D03*
D54*
X37306Y223720D03*
D18*
X83906Y223520D03*
D35*
X76306Y223520D03*
D47*
X67906Y223520D03*
D22*
X60006Y223520D03*
D17*
X52206Y223520D03*
X47806Y223520D03*
D32*
X43006Y223520D03*
D16*
X37406Y223520D03*
D32*
X83606Y223320D03*
D20*
X76406Y223320D03*
D21*
X67906Y223320D03*
D22*
X60006Y223320D03*
D17*
X52206Y223320D03*
X47806Y223320D03*
D41*
X40406Y223320D03*
D35*
X83506Y223120D03*
D43*
X76606Y223120D03*
D21*
X67906Y223120D03*
X59906Y223120D03*
D17*
X52206Y223120D03*
X47806Y223120D03*
D41*
X40206Y223120D03*
D43*
X83006Y222920D03*
D49*
X77006Y222920D03*
D43*
X67806Y222920D03*
X60006Y222920D03*
D17*
X52206Y222920D03*
X47806Y222920D03*
D55*
X40106Y222920D03*
D40*
X79806Y222720D03*
D42*
X67906Y222720D03*
D43*
X60006Y222720D03*
D17*
X52206Y222720D03*
X47806Y222720D03*
D44*
X40106Y222720D03*
D40*
X79806Y222520D03*
D42*
X67906Y222520D03*
D20*
X60006Y222520D03*
D17*
X52206Y222520D03*
X47806Y222520D03*
D39*
X40006Y222520D03*
D38*
X79706Y222320D03*
D20*
X67806Y222320D03*
X60006Y222320D03*
D17*
X52206Y222320D03*
X47806Y222320D03*
D56*
X40006Y222320D03*
D34*
X79606Y222120D03*
D20*
X67806Y222120D03*
X60006Y222120D03*
D17*
X52206Y222120D03*
X47806Y222120D03*
D33*
X40006Y222120D03*
D31*
X79506Y221920D03*
D35*
X67906Y221920D03*
D32*
X60006Y221920D03*
D17*
X52206Y221920D03*
X47806Y221920D03*
D30*
X40006Y221920D03*
D29*
X79406Y221720D03*
D32*
X67806Y221720D03*
X60006Y221720D03*
D17*
X52206Y221720D03*
X47806Y221720D03*
D57*
X40006Y221720D03*
D58*
X79306Y221520D03*
D18*
X67906Y221520D03*
D32*
X60006Y221520D03*
D17*
X52206Y221520D03*
X47806Y221520D03*
D59*
X40006Y221520D03*
D24*
X81206Y221320D03*
D19*
X75906Y221320D03*
D23*
X67806Y221320D03*
D18*
X60106Y221320D03*
D17*
X52206Y221320D03*
X47806Y221320D03*
D24*
X40006Y221320D03*
D49*
X81206Y221120D03*
D17*
X75806Y221120D03*
D23*
X67806Y221120D03*
X60006Y221120D03*
D17*
X52206Y221120D03*
X47806Y221120D03*
D49*
X40006Y221120D03*
D22*
X81206Y220920D03*
D17*
X75806Y220920D03*
D23*
X67806Y220920D03*
D19*
X60106Y220920D03*
D17*
X52206Y220920D03*
X47806Y220920D03*
D42*
X40106Y220920D03*
D20*
X81206Y220720D03*
D17*
X75806Y220720D03*
X67806Y220720D03*
D19*
X60106Y220720D03*
D17*
X52206Y220720D03*
X47806Y220720D03*
X40006Y220720D03*
D23*
X81206Y220520D03*
D17*
X75806Y220520D03*
X67806Y220520D03*
X60006Y220520D03*
D13*
X52106Y220520D03*
D17*
X47806Y220520D03*
D54*
X40106Y220520D03*
D16*
X81206Y220320D03*
D17*
X75806Y220320D03*
D52*
X81106Y220120D03*
D17*
X75806Y220120D03*
X75806Y219920D03*
X75806Y219720D03*
X75806Y219520D03*
X75806Y219320D03*
X75806Y219120D03*
X75806Y218920D03*
X75806Y218720D03*
X75806Y218520D03*
X75806Y218320D03*
X75806Y218120D03*
X75806Y217920D03*
D18*
X60106Y217920D03*
D17*
X75806Y217720D03*
D60*
X60106Y217720D03*
D17*
X75806Y217520D03*
D55*
X60106Y217520D03*
D17*
X75806Y217320D03*
D61*
X60106Y217320D03*
D17*
X75806Y217120D03*
D62*
X60106Y217120D03*
D17*
X75806Y216920D03*
D63*
X60106Y216920D03*
D17*
X75806Y216720D03*
D64*
X60006Y216720D03*
D13*
X75906Y216520D03*
D65*
X60106Y216520D03*
D66*
X60106Y216320D03*
D67*
X60106Y216120D03*
D68*
X60106Y215920D03*
D69*
X60106Y215720D03*
D70*
X60006Y215520D03*
D71*
X60106Y215320D03*
D72*
X60106Y215120D03*
D73*
X60006Y214920D03*
D74*
X60006Y214720D03*
D75*
X60106Y214520D03*
D76*
X60006Y214320D03*
D77*
X60006Y214120D03*
D78*
X60006Y213920D03*
D79*
X60006Y213720D03*
D80*
X60006Y213520D03*
D81*
X60106Y213320D03*
D82*
X60006Y213120D03*
D83*
X60006Y212920D03*
D84*
X60106Y212720D03*
D85*
X60006Y212520D03*
D86*
X60006Y212320D03*
D87*
X60006Y212120D03*
D88*
X60106Y211920D03*
D89*
X60106Y211720D03*
D90*
X60106Y211520D03*
D91*
X60106Y211320D03*
D92*
X60106Y211120D03*
D93*
X60106Y210920D03*
D94*
X60006Y210720D03*
D95*
X60106Y210520D03*
D96*
X60106Y210320D03*
D97*
X60106Y210120D03*
D98*
X60106Y209920D03*
D99*
X60106Y209720D03*
D100*
X60106Y209520D03*
D101*
X60106Y209320D03*
D102*
X60006Y209120D03*
D103*
X60006Y208920D03*
D104*
X60106Y208720D03*
D105*
X60106Y208520D03*
D106*
X60106Y208320D03*
D107*
X60006Y208120D03*
D108*
X60106Y207920D03*
D109*
X60106Y207720D03*
D110*
X60106Y207520D03*
D111*
X60006Y207320D03*
D112*
X60106Y207120D03*
D113*
X60006Y206920D03*
D114*
X60006Y206720D03*
D115*
X60106Y206520D03*
D116*
X60006Y206320D03*
D117*
X60006Y206120D03*
D118*
X60106Y205920D03*
D119*
X60006Y205720D03*
D120*
X60106Y205520D03*
D121*
X60006Y205320D03*
D122*
X60106Y205120D03*
D123*
X60106Y204920D03*
X60106Y204720D03*
D124*
X60006Y204520D03*
D125*
X60006Y204320D03*
D126*
X60106Y204120D03*
X60106Y203920D03*
D127*
X60106Y203720D03*
D128*
X60006Y203520D03*
X60006Y203320D03*
D129*
X60106Y203120D03*
D130*
X60006Y202920D03*
D131*
X60106Y202720D03*
D132*
X60006Y202520D03*
X60006Y202320D03*
D133*
X60106Y202120D03*
D134*
X60006Y201920D03*
D135*
X60106Y201720D03*
X60106Y201520D03*
D136*
X60006Y201320D03*
D137*
X60106Y201120D03*
D138*
X60006Y200920D03*
X60006Y200720D03*
D139*
X60106Y200520D03*
X60106Y200320D03*
D49*
X80806Y200120D03*
D24*
X39406Y200120D03*
D49*
X81006Y199920D03*
D25*
X39306Y199920D03*
D47*
X81106Y199720D03*
D25*
X39306Y199720D03*
D47*
X81106Y199520D03*
D25*
X39306Y199520D03*
D47*
X81106Y199320D03*
D24*
X39206Y199320D03*
D49*
X81206Y199120D03*
D24*
X39206Y199120D03*
D49*
X81206Y198920D03*
D24*
X39206Y198920D03*
D49*
X81206Y198720D03*
D27*
X39106Y198720D03*
D49*
X81206Y198520D03*
D27*
X39106Y198520D03*
D25*
X81306Y198320D03*
D27*
X39106Y198320D03*
D25*
X81306Y198120D03*
D27*
X39106Y198120D03*
D25*
X81306Y197920D03*
D27*
X39106Y197920D03*
D25*
X81306Y197720D03*
D27*
X39106Y197720D03*
D25*
X81306Y197520D03*
D140*
X39006Y197520D03*
D24*
X81406Y197320D03*
D140*
X39006Y197320D03*
D24*
X81406Y197120D03*
D140*
X39006Y197120D03*
D24*
X81406Y196920D03*
D140*
X39006Y196920D03*
D24*
X81406Y196720D03*
D140*
X39006Y196720D03*
D24*
X81406Y196520D03*
D26*
X38906Y196520D03*
D24*
X81406Y196320D03*
D26*
X38906Y196320D03*
D24*
X81406Y196120D03*
D26*
X38906Y196120D03*
D24*
X81406Y195920D03*
D26*
X38906Y195920D03*
D24*
X81406Y195720D03*
D26*
X38906Y195720D03*
D24*
X81406Y195520D03*
D26*
X38906Y195520D03*
D27*
X81506Y195320D03*
D35*
X71106Y195320D03*
D20*
X64006Y195320D03*
X56806Y195320D03*
D35*
X49706Y195320D03*
D26*
X38906Y195320D03*
D27*
X81506Y195120D03*
D20*
X71206Y195120D03*
X64006Y195120D03*
D42*
X56706Y195120D03*
D20*
X49606Y195120D03*
D26*
X38906Y195120D03*
D27*
X81506Y194920D03*
D20*
X71206Y194920D03*
X64006Y194920D03*
D42*
X56706Y194920D03*
D20*
X49606Y194920D03*
D26*
X38906Y194920D03*
D27*
X81506Y194720D03*
D20*
X71206Y194720D03*
X64006Y194720D03*
D42*
X56706Y194720D03*
D20*
X49606Y194720D03*
D26*
X38906Y194720D03*
D27*
X81506Y194520D03*
D20*
X71206Y194520D03*
X64006Y194520D03*
D42*
X56706Y194520D03*
D20*
X49606Y194520D03*
D26*
X38906Y194520D03*
D27*
X81506Y194320D03*
D20*
X71206Y194320D03*
X64006Y194320D03*
D42*
X56706Y194320D03*
D20*
X49606Y194320D03*
D26*
X38906Y194320D03*
D27*
X81506Y194120D03*
D20*
X71206Y194120D03*
X64006Y194120D03*
D42*
X56706Y194120D03*
D20*
X49606Y194120D03*
D26*
X38906Y194120D03*
D27*
X81506Y193920D03*
D20*
X71206Y193920D03*
X64006Y193920D03*
D42*
X56706Y193920D03*
D20*
X49606Y193920D03*
D59*
X38806Y193920D03*
D27*
X81506Y193720D03*
D20*
X71206Y193720D03*
X64006Y193720D03*
D42*
X56706Y193720D03*
D20*
X49606Y193720D03*
D59*
X38806Y193720D03*
D27*
X81506Y193520D03*
D20*
X71206Y193520D03*
X64006Y193520D03*
D42*
X56706Y193520D03*
D20*
X49606Y193520D03*
D59*
X38806Y193520D03*
D27*
X81506Y193320D03*
D20*
X71206Y193320D03*
X64006Y193320D03*
D42*
X56706Y193320D03*
D20*
X49606Y193320D03*
D59*
X38806Y193320D03*
D27*
X81506Y193120D03*
D20*
X71206Y193120D03*
X64006Y193120D03*
D42*
X56706Y193120D03*
D20*
X49606Y193120D03*
D59*
X38806Y193120D03*
D27*
X81506Y192920D03*
D20*
X71206Y192920D03*
X64006Y192920D03*
D42*
X56706Y192920D03*
D20*
X49606Y192920D03*
D59*
X38806Y192920D03*
D27*
X81506Y192720D03*
D20*
X71206Y192720D03*
X64006Y192720D03*
D42*
X56706Y192720D03*
D20*
X49606Y192720D03*
D59*
X38806Y192720D03*
D27*
X81506Y192520D03*
D20*
X71206Y192520D03*
X64006Y192520D03*
D42*
X56706Y192520D03*
D20*
X49606Y192520D03*
D59*
X38806Y192520D03*
D27*
X81506Y192320D03*
D20*
X71206Y192320D03*
X64006Y192320D03*
D42*
X56706Y192320D03*
D20*
X49606Y192320D03*
D26*
X38906Y192320D03*
D27*
X81506Y192120D03*
D20*
X71206Y192120D03*
X64006Y192120D03*
D42*
X56706Y192120D03*
D20*
X49606Y192120D03*
D26*
X38906Y192120D03*
D27*
X81506Y191920D03*
D20*
X71206Y191920D03*
X64006Y191920D03*
D42*
X56706Y191920D03*
D20*
X49606Y191920D03*
D26*
X38906Y191920D03*
D27*
X81506Y191720D03*
D20*
X71206Y191720D03*
X64006Y191720D03*
D42*
X56706Y191720D03*
D20*
X49606Y191720D03*
D26*
X38906Y191720D03*
D27*
X81506Y191520D03*
D20*
X71206Y191520D03*
X64006Y191520D03*
D42*
X56706Y191520D03*
D20*
X49606Y191520D03*
D26*
X38906Y191520D03*
D27*
X81506Y191320D03*
D20*
X71206Y191320D03*
X64006Y191320D03*
D42*
X56706Y191320D03*
D20*
X49606Y191320D03*
D26*
X38906Y191320D03*
D27*
X81506Y191120D03*
D20*
X71206Y191120D03*
X64006Y191120D03*
D42*
X56706Y191120D03*
D20*
X49606Y191120D03*
D26*
X38906Y191120D03*
D24*
X81406Y190920D03*
D20*
X71206Y190920D03*
X64006Y190920D03*
D42*
X56706Y190920D03*
D20*
X49606Y190920D03*
D26*
X38906Y190920D03*
D24*
X81406Y190720D03*
D35*
X71106Y190720D03*
D20*
X64006Y190720D03*
X56806Y190720D03*
D35*
X49706Y190720D03*
D26*
X38906Y190720D03*
D24*
X81406Y190520D03*
D26*
X38906Y190520D03*
D24*
X81406Y190320D03*
D26*
X38906Y190320D03*
D24*
X81406Y190120D03*
D26*
X38906Y190120D03*
D24*
X81406Y189920D03*
D26*
X38906Y189920D03*
D24*
X81406Y189720D03*
D26*
X38906Y189720D03*
D24*
X81406Y189520D03*
D140*
X39006Y189520D03*
D24*
X81406Y189320D03*
D140*
X39006Y189320D03*
D24*
X81406Y189120D03*
D140*
X39006Y189120D03*
D25*
X81306Y188920D03*
D140*
X39006Y188920D03*
D25*
X81306Y188720D03*
D27*
X39106Y188720D03*
D25*
X81306Y188520D03*
D27*
X39106Y188520D03*
D25*
X81306Y188320D03*
D27*
X39106Y188320D03*
D25*
X81306Y188120D03*
D27*
X39106Y188120D03*
D49*
X81206Y187920D03*
D27*
X39106Y187920D03*
D49*
X81206Y187720D03*
D27*
X39106Y187720D03*
D49*
X81206Y187520D03*
D24*
X39206Y187520D03*
D49*
X81206Y187320D03*
D24*
X39206Y187320D03*
D47*
X81106Y187120D03*
D24*
X39206Y187120D03*
D47*
X81106Y186920D03*
D24*
X39206Y186920D03*
D47*
X81106Y186720D03*
D25*
X39306Y186720D03*
D47*
X81106Y186520D03*
D25*
X39306Y186520D03*
D22*
X81006Y186320D03*
D25*
X39306Y186320D03*
D22*
X81006Y186120D03*
D49*
X39406Y186120D03*
D47*
X80906Y185920D03*
D25*
X39506Y185920D03*
D141*
X76206Y185720D03*
D27*
X60506Y185720D03*
D142*
X44306Y185720D03*
D141*
X76206Y185520D03*
D27*
X60506Y185520D03*
D142*
X44306Y185520D03*
D141*
X76206Y185320D03*
D27*
X60506Y185320D03*
D143*
X44406Y185320D03*
D141*
X76206Y185120D03*
D140*
X60406Y185120D03*
D144*
X44306Y185120D03*
D63*
X76106Y184920D03*
D140*
X60406Y184920D03*
D145*
X44406Y184920D03*
D141*
X76006Y184720D03*
D140*
X60406Y184720D03*
D145*
X44406Y184720D03*
D63*
X75906Y184520D03*
D140*
X60406Y184520D03*
D145*
X44406Y184520D03*
D63*
X75906Y184320D03*
D26*
X60306Y184320D03*
D146*
X44306Y184320D03*
D63*
X75906Y184120D03*
D140*
X60206Y184120D03*
D141*
X44406Y184120D03*
D147*
X75806Y183920D03*
D140*
X60206Y183920D03*
D63*
X44306Y183920D03*
D147*
X75806Y183720D03*
D140*
X60206Y183720D03*
D147*
X44406Y183720D03*
X75606Y183520D03*
D26*
X60106Y183520D03*
D147*
X44406Y183520D03*
X75606Y183320D03*
D26*
X60106Y183320D03*
D148*
X44406Y183320D03*
D149*
X75506Y183120D03*
D140*
X60006Y183120D03*
D148*
X44406Y183120D03*
D149*
X75506Y182920D03*
D26*
X59906Y182920D03*
D150*
X44306Y182920D03*
D149*
X75506Y182720D03*
D26*
X59906Y182720D03*
D151*
X44406Y182720D03*
D148*
X75406Y182520D03*
D26*
X59906Y182520D03*
D152*
X44406Y182520D03*
D149*
X75306Y182320D03*
D26*
X59706Y182320D03*
D152*
X44406Y182320D03*
D148*
X75206Y182120D03*
D26*
X59706Y182120D03*
D153*
X44306Y182120D03*
D148*
X75206Y181920D03*
D26*
X59706Y181920D03*
D154*
X44306Y181920D03*
D150*
X75106Y181720D03*
D59*
X59606Y181720D03*
D154*
X44306Y181720D03*
D148*
X75006Y181520D03*
D26*
X59506Y181520D03*
D155*
X44306Y181520D03*
D150*
X74906Y181320D03*
D59*
X59406Y181320D03*
D156*
X44406Y181320D03*
D151*
X74806Y181120D03*
D59*
X59406Y181120D03*
D61*
X44306Y181120D03*
D151*
X74806Y180920D03*
D59*
X59206Y180920D03*
D38*
X44306Y180920D03*
D151*
X74606Y180720D03*
D59*
X59206Y180720D03*
D38*
X44306Y180720D03*
D151*
X74606Y180520D03*
D28*
X59106Y180520D03*
D31*
X44306Y180520D03*
D62*
X74506Y180320D03*
D59*
X59006Y180320D03*
D29*
X44206Y180320D03*
D152*
X74406Y180120D03*
D28*
X58906Y180120D03*
D157*
X44206Y180120D03*
D62*
X74306Y179920D03*
D28*
X58906Y179920D03*
D158*
X44306Y179920D03*
D152*
X74206Y179720D03*
D28*
X58706Y179720D03*
D159*
X44206Y179720D03*
D62*
X74106Y179520D03*
D28*
X58706Y179520D03*
D41*
X44206Y179520D03*
D152*
X74006Y179320D03*
D28*
X58506Y179320D03*
D39*
X44206Y179320D03*
D153*
X73906Y179120D03*
D57*
X58406Y179120D03*
D37*
X44106Y179120D03*
D153*
X73906Y178920D03*
D57*
X58406Y178920D03*
D36*
X44106Y178920D03*
D153*
X73706Y178720D03*
D57*
X58206Y178720D03*
D60*
X44106Y178720D03*
D160*
X73606Y178520D03*
D57*
X58206Y178520D03*
D30*
X44006Y178520D03*
D160*
X73406Y178320D03*
D57*
X58006Y178320D03*
X44006Y178320D03*
D160*
X73406Y178120D03*
D161*
X57906Y178120D03*
D26*
X43906Y178120D03*
D154*
X73306Y177920D03*
D161*
X57706Y177920D03*
D27*
X43906Y177920D03*
D154*
X73106Y177720D03*
D161*
X57706Y177720D03*
D24*
X43806Y177720D03*
D154*
X73106Y177520D03*
D161*
X57506Y177520D03*
D49*
X43806Y177520D03*
D155*
X72906Y177320D03*
D30*
X57406Y177320D03*
D21*
X43706Y177320D03*
D162*
X72806Y177120D03*
D30*
X57206Y177120D03*
D20*
X43606Y177120D03*
D155*
X72706Y176920D03*
D30*
X57206Y176920D03*
D32*
X43606Y176920D03*
D155*
X72506Y176720D03*
D30*
X57006Y176720D03*
D19*
X43506Y176720D03*
D156*
X72406Y176520D03*
D60*
X56906Y176520D03*
D14*
X43406Y176520D03*
D156*
X72206Y176320D03*
D60*
X56706Y176320D03*
D16*
X43206Y176320D03*
D61*
X72106Y176120D03*
D33*
X56606Y176120D03*
D54*
X43106Y176120D03*
D61*
X71906Y175920D03*
D33*
X56406Y175920D03*
D15*
X42906Y175920D03*
D40*
X71806Y175720D03*
D33*
X56206Y175720D03*
D163*
X42906Y175720D03*
D40*
X71606Y175520D03*
D36*
X56106Y175520D03*
D38*
X71506Y175320D03*
D36*
X55906Y175320D03*
D38*
X71306Y175120D03*
D56*
X55806Y175120D03*
D34*
X71206Y174920D03*
D56*
X55606Y174920D03*
D34*
X71006Y174720D03*
D56*
X55406Y174720D03*
D31*
X70906Y174520D03*
D56*
X55206Y174520D03*
D31*
X70706Y174320D03*
D39*
X55006Y174320D03*
D29*
X70606Y174120D03*
D39*
X54806Y174120D03*
D29*
X70406Y173920D03*
D39*
X54606Y173920D03*
D157*
X70206Y173720D03*
D41*
X54406Y173720D03*
D157*
X70006Y173520D03*
D41*
X54206Y173520D03*
D157*
X69806Y173320D03*
D41*
X54006Y173320D03*
D159*
X69606Y173120D03*
D55*
X53706Y173120D03*
D159*
X69406Y172920D03*
D158*
X53506Y172920D03*
D41*
X69206Y172720D03*
D158*
X53306Y172720D03*
D41*
X69006Y172520D03*
D157*
X53006Y172520D03*
D44*
X68706Y172320D03*
D58*
X52706Y172320D03*
D44*
X68506Y172120D03*
D29*
X52406Y172120D03*
D37*
X68306Y171920D03*
D31*
X52106Y171920D03*
D56*
X68006Y171720D03*
D34*
X51806Y171720D03*
D36*
X67906Y171520D03*
D40*
X51406Y171520D03*
D33*
X67606Y171320D03*
D61*
X51106Y171320D03*
D60*
X67306Y171120D03*
D162*
X50606Y171120D03*
D30*
X67006Y170920D03*
D160*
X50206Y170920D03*
D57*
X66806Y170720D03*
D62*
X49706Y170720D03*
D28*
X66506Y170520D03*
D149*
X49106Y170520D03*
D59*
X66206Y170320D03*
D144*
X48306Y170320D03*
D48*
X39306Y170320D03*
D140*
X65806Y170120D03*
D164*
X46606Y170120D03*
D27*
X65506Y169920D03*
D66*
X46506Y169920D03*
D47*
X65106Y169720D03*
D165*
X46406Y169720D03*
D21*
X64706Y169520D03*
D166*
X46306Y169520D03*
D42*
X64306Y169320D03*
D167*
X46206Y169320D03*
D32*
X63806Y169120D03*
D168*
X46106Y169120D03*
D23*
X63406Y168920D03*
D65*
X45906Y168920D03*
D50*
X62706Y168720D03*
D169*
X45806Y168720D03*
D12*
X62006Y168520D03*
D170*
X45706Y168520D03*
D171*
X45506Y168320D03*
D64*
X45406Y168120D03*
D143*
X45206Y167920D03*
D144*
X45106Y167720D03*
D145*
X45006Y167520D03*
D141*
X44806Y167320D03*
D147*
X44606Y167120D03*
D149*
X44506Y166920D03*
D150*
X44306Y166720D03*
D62*
X44106Y166520D03*
D153*
X43906Y166320D03*
D154*
X43706Y166120D03*
D155*
X43506Y165920D03*
D61*
X43306Y165720D03*
D34*
X43006Y165520D03*
D29*
X42806Y165320D03*
D158*
X42506Y165120D03*
D55*
X42306Y164920D03*
D37*
X41906Y164720D03*
D33*
X41606Y164520D03*
D161*
X41306Y164320D03*
D140*
X40806Y164120D03*
D49*
X40406Y163920D03*
D32*
X39606Y163720D03*
D11*
X203708Y188468D02*
X207518Y179832D01*
X209296Y180848D01*
X213868Y177800D01*
X217424Y181356D01*
X214376Y185928D01*
X216408Y191008D02*
X221996Y192024D01*
X221996Y197104D01*
X216154Y198120D01*
X214122Y202946D02*
X217424Y207772D01*
X213868Y211328D01*
X209042Y208026D01*
X204470Y209804D02*
X203200Y215900D01*
X198374Y215900D01*
X197104Y209804D01*
X192532Y208026D02*
X187452Y211328D01*
X183896Y207772D01*
X187452Y202946D01*
X185166Y198120D02*
X179578Y197104D01*
X179578Y192024D01*
X185166Y191008D01*
X187198Y185928D02*
X183896Y181356D01*
X187452Y177800D01*
X192024Y180848D01*
X194056Y179832D01*
X197612Y188468D01*
X197460Y188545D01*
X197311Y188625D01*
X197163Y188709D01*
X197017Y188797D01*
X196874Y188888D01*
X196733Y188983D01*
X196594Y189081D01*
X196457Y189182D01*
X196323Y189287D01*
X196192Y189395D01*
X196064Y189506D01*
X195938Y189620D01*
X195815Y189738D01*
X195695Y189858D01*
X195578Y189981D01*
X195464Y190107D01*
X195353Y190236D01*
X195245Y190368D01*
X195141Y190502D01*
X195040Y190638D01*
X194942Y190777D01*
X194848Y190919D01*
X194757Y191063D01*
X194670Y191208D01*
X194586Y191356D01*
X194506Y191506D01*
X194430Y191658D01*
X194357Y191812D01*
X194289Y191968D01*
X194224Y192125D01*
X194163Y192283D01*
X194106Y192443D01*
X194053Y192605D01*
X194003Y192768D01*
X193958Y192931D01*
X193917Y193096D01*
X193880Y193262D01*
X193847Y193429D01*
X193818Y193596D01*
X193793Y193765D01*
X193773Y193933D01*
X193756Y194102D01*
X193744Y194272D01*
X193735Y194442D01*
X193731Y194612D01*
X193732Y194782D01*
X193736Y194952D01*
X193744Y195121D01*
X193757Y195291D01*
X193774Y195460D01*
X193795Y195629D01*
X193820Y195797D01*
X193849Y195964D01*
X193882Y196131D01*
X193920Y196297D01*
X193961Y196462D01*
X194006Y196625D01*
X194056Y196788D01*
X194109Y196949D01*
X194167Y197109D01*
X194228Y197268D01*
X194293Y197425D01*
X194362Y197580D01*
X194435Y197734D01*
X194511Y197886D01*
X194592Y198035D01*
X194675Y198183D01*
X194763Y198329D01*
X194854Y198473D01*
X194948Y198614D01*
X195046Y198753D01*
X195148Y198889D01*
X195252Y199023D01*
X195360Y199155D01*
X195471Y199283D01*
X195585Y199409D01*
X195703Y199532D01*
X195823Y199652D01*
X195946Y199769D01*
X196072Y199883D01*
X196201Y199994D01*
X196332Y200102D01*
X196466Y200207D01*
X196603Y200308D01*
X196742Y200406D01*
X196883Y200500D01*
X197027Y200591D01*
X197173Y200678D01*
X197321Y200762D01*
X197470Y200842D01*
X197622Y200919D01*
X197776Y200991D01*
X197931Y201060D01*
X198088Y201125D01*
X198247Y201186D01*
X198407Y201244D01*
X198568Y201297D01*
X198731Y201346D01*
X198895Y201391D01*
X199060Y201433D01*
X199226Y201470D01*
X199392Y201503D01*
X199560Y201532D01*
X199728Y201557D01*
X199897Y201578D01*
X200066Y201594D01*
X200235Y201607D01*
X200405Y201615D01*
X200575Y201619D01*
X200745Y201619D01*
X200915Y201615D01*
X201085Y201607D01*
X201254Y201594D01*
X201423Y201578D01*
X201592Y201557D01*
X201760Y201532D01*
X201928Y201503D01*
X202094Y201470D01*
X202260Y201433D01*
X202425Y201391D01*
X202589Y201346D01*
X202752Y201297D01*
X202913Y201244D01*
X203073Y201186D01*
X203232Y201125D01*
X203389Y201060D01*
X203544Y200991D01*
X203698Y200919D01*
X203850Y200842D01*
X203999Y200762D01*
X204147Y200678D01*
X204293Y200591D01*
X204437Y200500D01*
X204578Y200406D01*
X204717Y200308D01*
X204854Y200207D01*
X204988Y200102D01*
X205119Y199994D01*
X205248Y199883D01*
X205374Y199769D01*
X205497Y199652D01*
X205617Y199532D01*
X205735Y199409D01*
X205849Y199283D01*
X205960Y199155D01*
X206068Y199023D01*
X206172Y198889D01*
X206274Y198753D01*
X206372Y198614D01*
X206466Y198473D01*
X206557Y198329D01*
X206645Y198183D01*
X206728Y198035D01*
X206809Y197886D01*
X206885Y197734D01*
X206958Y197580D01*
X207027Y197425D01*
X207092Y197268D01*
X207153Y197109D01*
X207211Y196949D01*
X207264Y196788D01*
X207314Y196625D01*
X207359Y196462D01*
X207400Y196297D01*
X207438Y196131D01*
X207471Y195964D01*
X207500Y195797D01*
X207525Y195629D01*
X207546Y195460D01*
X207563Y195291D01*
X207576Y195121D01*
X207584Y194952D01*
X207588Y194782D01*
X207589Y194612D01*
X207585Y194442D01*
X207576Y194272D01*
X207564Y194102D01*
X207547Y193933D01*
X207527Y193765D01*
X207502Y193596D01*
X207473Y193429D01*
X207440Y193262D01*
X207403Y193096D01*
X207362Y192931D01*
X207317Y192768D01*
X207267Y192605D01*
X207214Y192443D01*
X207157Y192283D01*
X207096Y192125D01*
X207031Y191968D01*
X206963Y191812D01*
X206890Y191658D01*
X206814Y191506D01*
X206734Y191356D01*
X206650Y191208D01*
X206563Y191063D01*
X206472Y190919D01*
X206378Y190777D01*
X206280Y190638D01*
X206179Y190502D01*
X206075Y190368D01*
X205967Y190236D01*
X205856Y190107D01*
X205742Y189981D01*
X205625Y189858D01*
X205505Y189738D01*
X205382Y189620D01*
X205256Y189506D01*
X205128Y189395D01*
X204997Y189287D01*
X204863Y189182D01*
X204726Y189081D01*
X204587Y188983D01*
X204446Y188888D01*
X204303Y188797D01*
X204157Y188709D01*
X204009Y188625D01*
X203860Y188545D01*
X203708Y188468D01*
X214315Y186050D02*
X214507Y186352D01*
X214692Y186657D01*
X214871Y186967D01*
X215042Y187281D01*
X215206Y187599D01*
X215362Y187920D01*
X215511Y188245D01*
X215653Y188573D01*
X215787Y188904D01*
X215913Y189239D01*
X216032Y189576D01*
X216143Y189915D01*
X216246Y190258D01*
X216342Y190602D01*
X216200Y198176D02*
X216105Y198536D01*
X216002Y198894D01*
X215891Y199250D01*
X215771Y199602D01*
X215644Y199952D01*
X215508Y200299D01*
X215364Y200643D01*
X215212Y200983D01*
X215052Y201319D01*
X214884Y201652D01*
X214709Y201981D01*
X214525Y202305D01*
X214335Y202625D01*
X214137Y202941D01*
X208981Y207919D02*
X208658Y208107D01*
X208331Y208286D01*
X208000Y208458D01*
X207665Y208622D01*
X207326Y208779D01*
X206983Y208927D01*
X206637Y209067D01*
X206288Y209199D01*
X205935Y209323D01*
X205580Y209438D01*
X205223Y209545D01*
X204863Y209643D01*
X204500Y209733D01*
X197104Y209840D02*
X196736Y209752D01*
X196370Y209654D01*
X196007Y209549D01*
X195646Y209434D01*
X195289Y209311D01*
X194934Y209179D01*
X194582Y209039D01*
X194234Y208891D01*
X193890Y208734D01*
X193549Y208569D01*
X193212Y208396D01*
X192880Y208215D01*
X192552Y208026D01*
X187325Y202905D02*
X187128Y202614D01*
X186938Y202318D01*
X186755Y202018D01*
X186578Y201713D01*
X186409Y201405D01*
X186247Y201093D01*
X186092Y200777D01*
X185944Y200458D01*
X185804Y200136D01*
X185671Y199810D01*
X185545Y199481D01*
X185428Y199150D01*
X185317Y198816D01*
X185215Y198479D01*
X185120Y198140D01*
X185191Y191028D02*
X185271Y190672D01*
X185359Y190318D01*
X185455Y189967D01*
X185560Y189617D01*
X185672Y189271D01*
X185792Y188927D01*
X185920Y188585D01*
X186056Y188247D01*
X186199Y187912D01*
X186350Y187580D01*
X186509Y187252D01*
X186675Y186928D01*
X186849Y186607D01*
X187030Y186291D01*
X187218Y185979D01*
M02*
