G04 EAGLE Gerber RS-274X export*
G75*
%MOMM*%
%FSLAX34Y34*%
%LPD*%
%AMOC8*
5,1,8,0,0,1.08239X$1,22.5*%
G01*
%ADD10C,3.101600*%
%ADD11C,0.326897*%
%ADD12R,1.625600X1.625600*%
%ADD13C,1.625600*%
%ADD14R,0.701600X1.451600*%
%ADD15R,1.301600X2.101600*%
%ADD16R,1.301600X1.301600*%
%ADD17R,0.901600X0.401600*%
%ADD18R,0.401600X0.901600*%


D10*
X25400Y25400D03*
X228600Y25400D03*
D11*
X143329Y182499D02*
X136691Y182499D01*
X143329Y182499D02*
X143329Y175861D01*
X136691Y175861D01*
X136691Y182499D01*
X136691Y178967D02*
X143329Y178967D01*
X143329Y182073D02*
X136691Y182073D01*
X128089Y182499D02*
X121451Y182499D01*
X128089Y182499D02*
X128089Y175861D01*
X121451Y175861D01*
X121451Y182499D01*
X121451Y178967D02*
X128089Y178967D01*
X128089Y182073D02*
X121451Y182073D01*
X155431Y106029D02*
X162069Y106029D01*
X162069Y99391D01*
X155431Y99391D01*
X155431Y106029D01*
X155431Y102497D02*
X162069Y102497D01*
X162069Y105603D02*
X155431Y105603D01*
X146829Y106029D02*
X140191Y106029D01*
X146829Y106029D02*
X146829Y99391D01*
X140191Y99391D01*
X140191Y106029D01*
X140191Y102497D02*
X146829Y102497D01*
X146829Y105603D02*
X140191Y105603D01*
D12*
X15000Y76500D03*
D13*
X15000Y101900D03*
X15000Y127300D03*
X15000Y152700D03*
X15000Y178100D03*
X15000Y203500D03*
D14*
X142000Y213000D03*
X132000Y213000D03*
X122000Y213000D03*
X112000Y213000D03*
D15*
X99000Y249750D03*
X155000Y249750D03*
D14*
X112000Y52000D03*
X122000Y52000D03*
X132000Y52000D03*
X142000Y52000D03*
D15*
X155000Y15250D03*
X99000Y15250D03*
D12*
X239000Y76500D03*
D13*
X239000Y101900D03*
X239000Y127300D03*
X239000Y152700D03*
X239000Y178100D03*
X239000Y203500D03*
D11*
X80247Y112887D02*
X80247Y106249D01*
X80247Y112887D02*
X86885Y112887D01*
X86885Y106249D01*
X80247Y106249D01*
X80247Y109355D02*
X86885Y109355D01*
X86885Y112461D02*
X80247Y112461D01*
X80247Y97647D02*
X80247Y91009D01*
X80247Y97647D02*
X86885Y97647D01*
X86885Y91009D01*
X80247Y91009D01*
X80247Y94115D02*
X86885Y94115D01*
X86885Y97221D02*
X80247Y97221D01*
X94979Y106249D02*
X94979Y112887D01*
X101617Y112887D01*
X101617Y106249D01*
X94979Y106249D01*
X94979Y109355D02*
X101617Y109355D01*
X101617Y112461D02*
X94979Y112461D01*
X94979Y97647D02*
X94979Y91009D01*
X94979Y97647D02*
X101617Y97647D01*
X101617Y91009D01*
X94979Y91009D01*
X94979Y94115D02*
X101617Y94115D01*
X101617Y97221D02*
X94979Y97221D01*
X179561Y140827D02*
X186199Y140827D01*
X186199Y134189D01*
X179561Y134189D01*
X179561Y140827D01*
X179561Y137295D02*
X186199Y137295D01*
X186199Y140401D02*
X179561Y140401D01*
X170959Y140827D02*
X164321Y140827D01*
X170959Y140827D02*
X170959Y134189D01*
X164321Y134189D01*
X164321Y140827D01*
X164321Y137295D02*
X170959Y137295D01*
X170959Y140401D02*
X164321Y140401D01*
X179561Y155813D02*
X186199Y155813D01*
X186199Y149175D01*
X179561Y149175D01*
X179561Y155813D01*
X179561Y152281D02*
X186199Y152281D01*
X186199Y155387D02*
X179561Y155387D01*
X170959Y155813D02*
X164321Y155813D01*
X170959Y155813D02*
X170959Y149175D01*
X164321Y149175D01*
X164321Y155813D01*
X164321Y152281D02*
X170959Y152281D01*
X170959Y155387D02*
X164321Y155387D01*
D16*
X127000Y140000D03*
D17*
X112750Y147500D03*
X112750Y142500D03*
X112750Y137500D03*
X112750Y132500D03*
D18*
X119500Y125750D03*
X124500Y125750D03*
X129500Y125750D03*
X134500Y125750D03*
D17*
X141250Y132500D03*
X141250Y137500D03*
X141250Y142500D03*
X141250Y147500D03*
D18*
X134500Y154250D03*
X129500Y154250D03*
X124500Y154250D03*
X119500Y154250D03*
M02*
