G04 EAGLE Gerber RS-274X export*
G75*
%MOMM*%
%FSLAX34Y34*%
%LPD*%
%AMOC8*
5,1,8,0,0,1.08239X$1,22.5*%
G01*
%ADD10C,0.025400*%
%ADD11C,0.000000*%


D10*
X0Y0D02*
X254000Y0D01*
X254000Y265000D01*
X0Y265000D01*
X0Y0D01*
D11*
X10400Y25400D02*
X10405Y25768D01*
X10418Y26136D01*
X10441Y26503D01*
X10472Y26870D01*
X10513Y27236D01*
X10562Y27601D01*
X10621Y27964D01*
X10688Y28326D01*
X10764Y28687D01*
X10850Y29045D01*
X10943Y29401D01*
X11046Y29754D01*
X11157Y30105D01*
X11277Y30453D01*
X11405Y30798D01*
X11542Y31140D01*
X11687Y31479D01*
X11840Y31813D01*
X12002Y32144D01*
X12171Y32471D01*
X12349Y32793D01*
X12534Y33112D01*
X12727Y33425D01*
X12928Y33734D01*
X13136Y34037D01*
X13352Y34335D01*
X13575Y34628D01*
X13805Y34916D01*
X14042Y35198D01*
X14286Y35473D01*
X14536Y35743D01*
X14793Y36007D01*
X15057Y36264D01*
X15327Y36514D01*
X15602Y36758D01*
X15884Y36995D01*
X16172Y37225D01*
X16465Y37448D01*
X16763Y37664D01*
X17066Y37872D01*
X17375Y38073D01*
X17688Y38266D01*
X18007Y38451D01*
X18329Y38629D01*
X18656Y38798D01*
X18987Y38960D01*
X19321Y39113D01*
X19660Y39258D01*
X20002Y39395D01*
X20347Y39523D01*
X20695Y39643D01*
X21046Y39754D01*
X21399Y39857D01*
X21755Y39950D01*
X22113Y40036D01*
X22474Y40112D01*
X22836Y40179D01*
X23199Y40238D01*
X23564Y40287D01*
X23930Y40328D01*
X24297Y40359D01*
X24664Y40382D01*
X25032Y40395D01*
X25400Y40400D01*
X25768Y40395D01*
X26136Y40382D01*
X26503Y40359D01*
X26870Y40328D01*
X27236Y40287D01*
X27601Y40238D01*
X27964Y40179D01*
X28326Y40112D01*
X28687Y40036D01*
X29045Y39950D01*
X29401Y39857D01*
X29754Y39754D01*
X30105Y39643D01*
X30453Y39523D01*
X30798Y39395D01*
X31140Y39258D01*
X31479Y39113D01*
X31813Y38960D01*
X32144Y38798D01*
X32471Y38629D01*
X32793Y38451D01*
X33112Y38266D01*
X33425Y38073D01*
X33734Y37872D01*
X34037Y37664D01*
X34335Y37448D01*
X34628Y37225D01*
X34916Y36995D01*
X35198Y36758D01*
X35473Y36514D01*
X35743Y36264D01*
X36007Y36007D01*
X36264Y35743D01*
X36514Y35473D01*
X36758Y35198D01*
X36995Y34916D01*
X37225Y34628D01*
X37448Y34335D01*
X37664Y34037D01*
X37872Y33734D01*
X38073Y33425D01*
X38266Y33112D01*
X38451Y32793D01*
X38629Y32471D01*
X38798Y32144D01*
X38960Y31813D01*
X39113Y31479D01*
X39258Y31140D01*
X39395Y30798D01*
X39523Y30453D01*
X39643Y30105D01*
X39754Y29754D01*
X39857Y29401D01*
X39950Y29045D01*
X40036Y28687D01*
X40112Y28326D01*
X40179Y27964D01*
X40238Y27601D01*
X40287Y27236D01*
X40328Y26870D01*
X40359Y26503D01*
X40382Y26136D01*
X40395Y25768D01*
X40400Y25400D01*
X40395Y25032D01*
X40382Y24664D01*
X40359Y24297D01*
X40328Y23930D01*
X40287Y23564D01*
X40238Y23199D01*
X40179Y22836D01*
X40112Y22474D01*
X40036Y22113D01*
X39950Y21755D01*
X39857Y21399D01*
X39754Y21046D01*
X39643Y20695D01*
X39523Y20347D01*
X39395Y20002D01*
X39258Y19660D01*
X39113Y19321D01*
X38960Y18987D01*
X38798Y18656D01*
X38629Y18329D01*
X38451Y18007D01*
X38266Y17688D01*
X38073Y17375D01*
X37872Y17066D01*
X37664Y16763D01*
X37448Y16465D01*
X37225Y16172D01*
X36995Y15884D01*
X36758Y15602D01*
X36514Y15327D01*
X36264Y15057D01*
X36007Y14793D01*
X35743Y14536D01*
X35473Y14286D01*
X35198Y14042D01*
X34916Y13805D01*
X34628Y13575D01*
X34335Y13352D01*
X34037Y13136D01*
X33734Y12928D01*
X33425Y12727D01*
X33112Y12534D01*
X32793Y12349D01*
X32471Y12171D01*
X32144Y12002D01*
X31813Y11840D01*
X31479Y11687D01*
X31140Y11542D01*
X30798Y11405D01*
X30453Y11277D01*
X30105Y11157D01*
X29754Y11046D01*
X29401Y10943D01*
X29045Y10850D01*
X28687Y10764D01*
X28326Y10688D01*
X27964Y10621D01*
X27601Y10562D01*
X27236Y10513D01*
X26870Y10472D01*
X26503Y10441D01*
X26136Y10418D01*
X25768Y10405D01*
X25400Y10400D01*
X25032Y10405D01*
X24664Y10418D01*
X24297Y10441D01*
X23930Y10472D01*
X23564Y10513D01*
X23199Y10562D01*
X22836Y10621D01*
X22474Y10688D01*
X22113Y10764D01*
X21755Y10850D01*
X21399Y10943D01*
X21046Y11046D01*
X20695Y11157D01*
X20347Y11277D01*
X20002Y11405D01*
X19660Y11542D01*
X19321Y11687D01*
X18987Y11840D01*
X18656Y12002D01*
X18329Y12171D01*
X18007Y12349D01*
X17688Y12534D01*
X17375Y12727D01*
X17066Y12928D01*
X16763Y13136D01*
X16465Y13352D01*
X16172Y13575D01*
X15884Y13805D01*
X15602Y14042D01*
X15327Y14286D01*
X15057Y14536D01*
X14793Y14793D01*
X14536Y15057D01*
X14286Y15327D01*
X14042Y15602D01*
X13805Y15884D01*
X13575Y16172D01*
X13352Y16465D01*
X13136Y16763D01*
X12928Y17066D01*
X12727Y17375D01*
X12534Y17688D01*
X12349Y18007D01*
X12171Y18329D01*
X12002Y18656D01*
X11840Y18987D01*
X11687Y19321D01*
X11542Y19660D01*
X11405Y20002D01*
X11277Y20347D01*
X11157Y20695D01*
X11046Y21046D01*
X10943Y21399D01*
X10850Y21755D01*
X10764Y22113D01*
X10688Y22474D01*
X10621Y22836D01*
X10562Y23199D01*
X10513Y23564D01*
X10472Y23930D01*
X10441Y24297D01*
X10418Y24664D01*
X10405Y25032D01*
X10400Y25400D01*
X213600Y25400D02*
X213605Y25768D01*
X213618Y26136D01*
X213641Y26503D01*
X213672Y26870D01*
X213713Y27236D01*
X213762Y27601D01*
X213821Y27964D01*
X213888Y28326D01*
X213964Y28687D01*
X214050Y29045D01*
X214143Y29401D01*
X214246Y29754D01*
X214357Y30105D01*
X214477Y30453D01*
X214605Y30798D01*
X214742Y31140D01*
X214887Y31479D01*
X215040Y31813D01*
X215202Y32144D01*
X215371Y32471D01*
X215549Y32793D01*
X215734Y33112D01*
X215927Y33425D01*
X216128Y33734D01*
X216336Y34037D01*
X216552Y34335D01*
X216775Y34628D01*
X217005Y34916D01*
X217242Y35198D01*
X217486Y35473D01*
X217736Y35743D01*
X217993Y36007D01*
X218257Y36264D01*
X218527Y36514D01*
X218802Y36758D01*
X219084Y36995D01*
X219372Y37225D01*
X219665Y37448D01*
X219963Y37664D01*
X220266Y37872D01*
X220575Y38073D01*
X220888Y38266D01*
X221207Y38451D01*
X221529Y38629D01*
X221856Y38798D01*
X222187Y38960D01*
X222521Y39113D01*
X222860Y39258D01*
X223202Y39395D01*
X223547Y39523D01*
X223895Y39643D01*
X224246Y39754D01*
X224599Y39857D01*
X224955Y39950D01*
X225313Y40036D01*
X225674Y40112D01*
X226036Y40179D01*
X226399Y40238D01*
X226764Y40287D01*
X227130Y40328D01*
X227497Y40359D01*
X227864Y40382D01*
X228232Y40395D01*
X228600Y40400D01*
X228968Y40395D01*
X229336Y40382D01*
X229703Y40359D01*
X230070Y40328D01*
X230436Y40287D01*
X230801Y40238D01*
X231164Y40179D01*
X231526Y40112D01*
X231887Y40036D01*
X232245Y39950D01*
X232601Y39857D01*
X232954Y39754D01*
X233305Y39643D01*
X233653Y39523D01*
X233998Y39395D01*
X234340Y39258D01*
X234679Y39113D01*
X235013Y38960D01*
X235344Y38798D01*
X235671Y38629D01*
X235993Y38451D01*
X236312Y38266D01*
X236625Y38073D01*
X236934Y37872D01*
X237237Y37664D01*
X237535Y37448D01*
X237828Y37225D01*
X238116Y36995D01*
X238398Y36758D01*
X238673Y36514D01*
X238943Y36264D01*
X239207Y36007D01*
X239464Y35743D01*
X239714Y35473D01*
X239958Y35198D01*
X240195Y34916D01*
X240425Y34628D01*
X240648Y34335D01*
X240864Y34037D01*
X241072Y33734D01*
X241273Y33425D01*
X241466Y33112D01*
X241651Y32793D01*
X241829Y32471D01*
X241998Y32144D01*
X242160Y31813D01*
X242313Y31479D01*
X242458Y31140D01*
X242595Y30798D01*
X242723Y30453D01*
X242843Y30105D01*
X242954Y29754D01*
X243057Y29401D01*
X243150Y29045D01*
X243236Y28687D01*
X243312Y28326D01*
X243379Y27964D01*
X243438Y27601D01*
X243487Y27236D01*
X243528Y26870D01*
X243559Y26503D01*
X243582Y26136D01*
X243595Y25768D01*
X243600Y25400D01*
X243595Y25032D01*
X243582Y24664D01*
X243559Y24297D01*
X243528Y23930D01*
X243487Y23564D01*
X243438Y23199D01*
X243379Y22836D01*
X243312Y22474D01*
X243236Y22113D01*
X243150Y21755D01*
X243057Y21399D01*
X242954Y21046D01*
X242843Y20695D01*
X242723Y20347D01*
X242595Y20002D01*
X242458Y19660D01*
X242313Y19321D01*
X242160Y18987D01*
X241998Y18656D01*
X241829Y18329D01*
X241651Y18007D01*
X241466Y17688D01*
X241273Y17375D01*
X241072Y17066D01*
X240864Y16763D01*
X240648Y16465D01*
X240425Y16172D01*
X240195Y15884D01*
X239958Y15602D01*
X239714Y15327D01*
X239464Y15057D01*
X239207Y14793D01*
X238943Y14536D01*
X238673Y14286D01*
X238398Y14042D01*
X238116Y13805D01*
X237828Y13575D01*
X237535Y13352D01*
X237237Y13136D01*
X236934Y12928D01*
X236625Y12727D01*
X236312Y12534D01*
X235993Y12349D01*
X235671Y12171D01*
X235344Y12002D01*
X235013Y11840D01*
X234679Y11687D01*
X234340Y11542D01*
X233998Y11405D01*
X233653Y11277D01*
X233305Y11157D01*
X232954Y11046D01*
X232601Y10943D01*
X232245Y10850D01*
X231887Y10764D01*
X231526Y10688D01*
X231164Y10621D01*
X230801Y10562D01*
X230436Y10513D01*
X230070Y10472D01*
X229703Y10441D01*
X229336Y10418D01*
X228968Y10405D01*
X228600Y10400D01*
X228232Y10405D01*
X227864Y10418D01*
X227497Y10441D01*
X227130Y10472D01*
X226764Y10513D01*
X226399Y10562D01*
X226036Y10621D01*
X225674Y10688D01*
X225313Y10764D01*
X224955Y10850D01*
X224599Y10943D01*
X224246Y11046D01*
X223895Y11157D01*
X223547Y11277D01*
X223202Y11405D01*
X222860Y11542D01*
X222521Y11687D01*
X222187Y11840D01*
X221856Y12002D01*
X221529Y12171D01*
X221207Y12349D01*
X220888Y12534D01*
X220575Y12727D01*
X220266Y12928D01*
X219963Y13136D01*
X219665Y13352D01*
X219372Y13575D01*
X219084Y13805D01*
X218802Y14042D01*
X218527Y14286D01*
X218257Y14536D01*
X217993Y14793D01*
X217736Y15057D01*
X217486Y15327D01*
X217242Y15602D01*
X217005Y15884D01*
X216775Y16172D01*
X216552Y16465D01*
X216336Y16763D01*
X216128Y17066D01*
X215927Y17375D01*
X215734Y17688D01*
X215549Y18007D01*
X215371Y18329D01*
X215202Y18656D01*
X215040Y18987D01*
X214887Y19321D01*
X214742Y19660D01*
X214605Y20002D01*
X214477Y20347D01*
X214357Y20695D01*
X214246Y21046D01*
X214143Y21399D01*
X214050Y21755D01*
X213964Y22113D01*
X213888Y22474D01*
X213821Y22836D01*
X213762Y23199D01*
X213713Y23564D01*
X213672Y23930D01*
X213641Y24297D01*
X213618Y24664D01*
X213605Y25032D01*
X213600Y25400D01*
M02*
