G04 EAGLE Gerber RS-274X export*
G75*
%MOMM*%
%FSLAX34Y34*%
%LPD*%
%AMOC8*
5,1,8,0,0,1.08239X$1,22.5*%
G01*
%ADD10C,0.222250*%
%ADD11R,1.524000X1.524000*%
%ADD12C,1.524000*%
%ADD13R,0.600000X1.350000*%
%ADD14R,1.200000X2.000000*%
%ADD15R,1.200000X1.200000*%
%ADD16R,0.800000X0.300000*%
%ADD17R,0.300000X0.800000*%
%ADD18C,0.609600*%
%ADD19C,0.203200*%
%ADD20C,0.304800*%

G36*
X107182Y150298D02*
X107182Y150298D01*
X107203Y150296D01*
X107313Y150318D01*
X107424Y150335D01*
X107443Y150344D01*
X107464Y150348D01*
X107502Y150372D01*
X107663Y150450D01*
X107746Y150527D01*
X107789Y150555D01*
X108013Y150779D01*
X115333Y150779D01*
X115435Y150794D01*
X115537Y150802D01*
X115565Y150814D01*
X115596Y150819D01*
X115688Y150863D01*
X115784Y150901D01*
X115807Y150921D01*
X115835Y150934D01*
X115910Y151004D01*
X115990Y151069D01*
X116007Y151095D01*
X116029Y151116D01*
X116080Y151205D01*
X116137Y151290D01*
X116143Y151314D01*
X116161Y151346D01*
X116219Y151606D01*
X116216Y151644D01*
X116221Y151667D01*
X116221Y158987D01*
X117263Y160029D01*
X120309Y160029D01*
X120411Y160044D01*
X120513Y160052D01*
X120541Y160064D01*
X120572Y160069D01*
X120664Y160113D01*
X120760Y160151D01*
X120783Y160171D01*
X120811Y160184D01*
X120886Y160254D01*
X120966Y160319D01*
X120983Y160345D01*
X121005Y160366D01*
X121056Y160455D01*
X121113Y160540D01*
X121119Y160564D01*
X121137Y160596D01*
X121195Y160856D01*
X121192Y160894D01*
X121197Y160917D01*
X121197Y172068D01*
X121182Y172170D01*
X121174Y172272D01*
X121162Y172300D01*
X121157Y172331D01*
X121113Y172423D01*
X121075Y172519D01*
X121055Y172542D01*
X121042Y172570D01*
X120972Y172645D01*
X120907Y172725D01*
X120881Y172742D01*
X120860Y172764D01*
X120771Y172815D01*
X120686Y172872D01*
X120662Y172878D01*
X120630Y172896D01*
X120370Y172954D01*
X120332Y172951D01*
X120309Y172956D01*
X120239Y172956D01*
X118546Y174649D01*
X118546Y174989D01*
X118531Y175091D01*
X118523Y175193D01*
X118511Y175221D01*
X118506Y175252D01*
X118462Y175344D01*
X118424Y175440D01*
X118404Y175463D01*
X118391Y175491D01*
X118321Y175566D01*
X118256Y175646D01*
X118230Y175663D01*
X118209Y175685D01*
X118120Y175736D01*
X118035Y175793D01*
X118011Y175799D01*
X117979Y175817D01*
X117719Y175875D01*
X117681Y175872D01*
X117658Y175877D01*
X92778Y175877D01*
X92757Y175874D01*
X92736Y175876D01*
X92626Y175854D01*
X92515Y175837D01*
X92496Y175828D01*
X92476Y175824D01*
X92437Y175800D01*
X92276Y175722D01*
X92193Y175645D01*
X92150Y175617D01*
X82557Y166024D01*
X82544Y166007D01*
X82528Y165994D01*
X82466Y165900D01*
X82399Y165810D01*
X82392Y165790D01*
X82381Y165773D01*
X82371Y165728D01*
X82312Y165559D01*
X82308Y165446D01*
X82297Y165396D01*
X82297Y163609D01*
X79469Y160781D01*
X75471Y160781D01*
X72643Y163609D01*
X72643Y167607D01*
X75471Y170435D01*
X77258Y170435D01*
X77279Y170438D01*
X77300Y170436D01*
X77410Y170458D01*
X77521Y170475D01*
X77540Y170484D01*
X77560Y170488D01*
X77599Y170512D01*
X77760Y170590D01*
X77843Y170667D01*
X77886Y170695D01*
X89674Y182483D01*
X100139Y182483D01*
X100190Y182490D01*
X100241Y182489D01*
X100321Y182510D01*
X100402Y182523D01*
X100448Y182545D01*
X100498Y182559D01*
X100567Y182603D01*
X100641Y182638D01*
X100679Y182673D01*
X100722Y182701D01*
X100775Y182764D01*
X100835Y182820D01*
X100861Y182864D01*
X100894Y182904D01*
X100927Y182979D01*
X100967Y183050D01*
X100978Y183101D01*
X100999Y183148D01*
X101007Y183230D01*
X101025Y183310D01*
X101021Y183361D01*
X101026Y183413D01*
X101010Y183493D01*
X101003Y183575D01*
X100984Y183623D01*
X100974Y183673D01*
X100946Y183717D01*
X100904Y183822D01*
X100791Y183961D01*
X100767Y183999D01*
X99059Y185707D01*
X99059Y189705D01*
X101887Y192533D01*
X104392Y192533D01*
X104413Y192536D01*
X104434Y192534D01*
X104544Y192556D01*
X104655Y192573D01*
X104674Y192582D01*
X104695Y192586D01*
X104733Y192610D01*
X104895Y192688D01*
X104977Y192765D01*
X105021Y192793D01*
X108945Y196717D01*
X108958Y196734D01*
X108974Y196748D01*
X109036Y196841D01*
X109103Y196931D01*
X109110Y196951D01*
X109121Y196969D01*
X109131Y197013D01*
X109190Y197182D01*
X109194Y197295D01*
X109205Y197346D01*
X109205Y203583D01*
X109190Y203685D01*
X109182Y203787D01*
X109170Y203815D01*
X109165Y203846D01*
X109121Y203938D01*
X109083Y204034D01*
X109063Y204057D01*
X109050Y204085D01*
X108980Y204160D01*
X108915Y204240D01*
X108889Y204257D01*
X108868Y204279D01*
X108779Y204330D01*
X108694Y204387D01*
X108670Y204393D01*
X108638Y204411D01*
X108378Y204469D01*
X108340Y204466D01*
X108317Y204471D01*
X108263Y204471D01*
X107221Y205513D01*
X107221Y220487D01*
X108263Y221529D01*
X115737Y221529D01*
X116372Y220894D01*
X116455Y220833D01*
X116533Y220766D01*
X116561Y220754D01*
X116586Y220736D01*
X116683Y220702D01*
X116777Y220662D01*
X116808Y220659D01*
X116837Y220649D01*
X116940Y220645D01*
X117042Y220634D01*
X117072Y220640D01*
X117103Y220639D01*
X117202Y220666D01*
X117302Y220686D01*
X117323Y220699D01*
X117359Y220709D01*
X117583Y220852D01*
X117608Y220881D01*
X117628Y220894D01*
X118263Y221529D01*
X125737Y221529D01*
X126372Y220894D01*
X126455Y220833D01*
X126533Y220766D01*
X126561Y220754D01*
X126586Y220736D01*
X126683Y220702D01*
X126777Y220662D01*
X126808Y220659D01*
X126837Y220649D01*
X126940Y220645D01*
X127042Y220634D01*
X127072Y220640D01*
X127103Y220639D01*
X127202Y220666D01*
X127302Y220686D01*
X127323Y220699D01*
X127359Y220709D01*
X127583Y220852D01*
X127608Y220881D01*
X127628Y220894D01*
X128263Y221529D01*
X135737Y221529D01*
X135833Y221432D01*
X135916Y221371D01*
X135994Y221305D01*
X136022Y221293D01*
X136047Y221275D01*
X136144Y221241D01*
X136238Y221201D01*
X136269Y221197D01*
X136298Y221187D01*
X136401Y221184D01*
X136503Y221173D01*
X136533Y221179D01*
X136564Y221178D01*
X136663Y221205D01*
X136764Y221225D01*
X136784Y221238D01*
X136820Y221248D01*
X137045Y221391D01*
X137069Y221420D01*
X137089Y221432D01*
X137440Y221783D01*
X138019Y222118D01*
X138665Y222291D01*
X140501Y222291D01*
X140501Y213611D01*
X140516Y213510D01*
X140524Y213407D01*
X140536Y213379D01*
X140540Y213348D01*
X140585Y213256D01*
X140623Y213161D01*
X140643Y213137D01*
X140656Y213109D01*
X140726Y213034D01*
X140752Y213003D01*
X140732Y212987D01*
X140715Y212961D01*
X140693Y212940D01*
X140642Y212851D01*
X140585Y212766D01*
X140579Y212742D01*
X140561Y212709D01*
X140503Y212450D01*
X140506Y212412D01*
X140501Y212389D01*
X140501Y203709D01*
X138665Y203709D01*
X138019Y203882D01*
X137440Y204217D01*
X137089Y204568D01*
X137007Y204628D01*
X136928Y204695D01*
X136900Y204707D01*
X136875Y204725D01*
X136778Y204759D01*
X136684Y204799D01*
X136653Y204803D01*
X136624Y204813D01*
X136522Y204816D01*
X136419Y204827D01*
X136389Y204821D01*
X136359Y204822D01*
X136259Y204795D01*
X136159Y204775D01*
X136139Y204762D01*
X136102Y204752D01*
X135878Y204609D01*
X135853Y204580D01*
X135833Y204568D01*
X135563Y204297D01*
X135550Y204280D01*
X135534Y204267D01*
X135472Y204174D01*
X135405Y204083D01*
X135398Y204064D01*
X135387Y204046D01*
X135377Y204002D01*
X135318Y203832D01*
X135314Y203720D01*
X135303Y203669D01*
X135303Y192062D01*
X135306Y192041D01*
X135304Y192020D01*
X135326Y191910D01*
X135343Y191799D01*
X135352Y191780D01*
X135356Y191760D01*
X135380Y191721D01*
X135458Y191560D01*
X135535Y191477D01*
X135563Y191434D01*
X136490Y190507D01*
X136507Y190494D01*
X136520Y190478D01*
X136614Y190416D01*
X136704Y190349D01*
X136724Y190342D01*
X136741Y190331D01*
X136786Y190321D01*
X136955Y190262D01*
X137068Y190258D01*
X137118Y190247D01*
X169516Y190247D01*
X176622Y183141D01*
X176639Y183128D01*
X176652Y183112D01*
X176746Y183050D01*
X176836Y182983D01*
X176856Y182976D01*
X176873Y182965D01*
X176918Y182955D01*
X177087Y182896D01*
X177200Y182892D01*
X177250Y182881D01*
X179037Y182881D01*
X180255Y181663D01*
X180272Y181650D01*
X180285Y181634D01*
X180379Y181572D01*
X180469Y181505D01*
X180489Y181498D01*
X180506Y181487D01*
X180551Y181477D01*
X180720Y181418D01*
X180833Y181414D01*
X180883Y181403D01*
X229601Y181403D01*
X229663Y181412D01*
X229725Y181411D01*
X229793Y181432D01*
X229864Y181443D01*
X229920Y181469D01*
X229979Y181487D01*
X230039Y181527D01*
X230104Y181558D01*
X230149Y181601D01*
X230200Y181635D01*
X230228Y181674D01*
X230298Y181740D01*
X230404Y181926D01*
X230422Y181951D01*
X231032Y183424D01*
X233676Y186068D01*
X237130Y187499D01*
X240870Y187499D01*
X244324Y186068D01*
X246968Y183424D01*
X247083Y183145D01*
X247131Y183066D01*
X247171Y182983D01*
X247199Y182953D01*
X247221Y182917D01*
X247290Y182856D01*
X247353Y182789D01*
X247388Y182768D01*
X247419Y182741D01*
X247503Y182702D01*
X247583Y182657D01*
X247624Y182648D01*
X247661Y182631D01*
X247753Y182619D01*
X247843Y182599D01*
X247884Y182602D01*
X247925Y182597D01*
X248016Y182613D01*
X248108Y182620D01*
X248146Y182636D01*
X248187Y182643D01*
X248269Y182685D01*
X248355Y182719D01*
X248387Y182745D01*
X248423Y182764D01*
X248489Y182829D01*
X248561Y182887D01*
X248584Y182921D01*
X248613Y182950D01*
X248657Y183031D01*
X248708Y183108D01*
X248715Y183139D01*
X248740Y183184D01*
X248791Y183445D01*
X248788Y183465D01*
X248792Y183485D01*
X248792Y196958D01*
X248774Y197077D01*
X248759Y197197D01*
X248754Y197208D01*
X248752Y197221D01*
X248700Y197329D01*
X248650Y197439D01*
X248642Y197449D01*
X248637Y197460D01*
X248554Y197548D01*
X248474Y197639D01*
X248464Y197645D01*
X248455Y197654D01*
X248351Y197714D01*
X248247Y197777D01*
X248235Y197780D01*
X248225Y197786D01*
X248107Y197812D01*
X247989Y197842D01*
X247977Y197841D01*
X247965Y197844D01*
X247844Y197834D01*
X247724Y197828D01*
X247712Y197823D01*
X247700Y197822D01*
X247588Y197777D01*
X247475Y197735D01*
X247467Y197729D01*
X247453Y197723D01*
X247247Y197556D01*
X247213Y197504D01*
X247185Y197480D01*
X246750Y196881D01*
X245619Y195750D01*
X244325Y194810D01*
X242900Y194084D01*
X241379Y193589D01*
X240777Y193494D01*
X240777Y202611D01*
X240762Y202712D01*
X240753Y202815D01*
X240742Y202843D01*
X240737Y202874D01*
X240693Y202966D01*
X240654Y203061D01*
X240635Y203085D01*
X240622Y203113D01*
X240552Y203188D01*
X240487Y203268D01*
X240461Y203285D01*
X240440Y203307D01*
X240351Y203358D01*
X240266Y203415D01*
X240242Y203420D01*
X240210Y203439D01*
X239950Y203497D01*
X239912Y203494D01*
X239889Y203499D01*
X238999Y203499D01*
X238999Y203501D01*
X239889Y203501D01*
X239990Y203516D01*
X240093Y203525D01*
X240121Y203536D01*
X240152Y203541D01*
X240244Y203585D01*
X240339Y203624D01*
X240363Y203643D01*
X240391Y203656D01*
X240466Y203726D01*
X240546Y203791D01*
X240563Y203817D01*
X240585Y203838D01*
X240636Y203927D01*
X240693Y204012D01*
X240699Y204036D01*
X240717Y204069D01*
X240775Y204328D01*
X240772Y204366D01*
X240777Y204389D01*
X240777Y213506D01*
X241379Y213411D01*
X242900Y212916D01*
X244325Y212190D01*
X245619Y211250D01*
X246750Y210119D01*
X247185Y209520D01*
X247270Y209434D01*
X247353Y209346D01*
X247363Y209340D01*
X247372Y209331D01*
X247479Y209274D01*
X247583Y209214D01*
X247596Y209211D01*
X247606Y209205D01*
X247725Y209182D01*
X247843Y209156D01*
X247855Y209157D01*
X247867Y209155D01*
X247988Y209168D01*
X248108Y209178D01*
X248119Y209182D01*
X248132Y209184D01*
X248243Y209232D01*
X248355Y209277D01*
X248364Y209285D01*
X248375Y209289D01*
X248466Y209367D01*
X248561Y209444D01*
X248568Y209455D01*
X248577Y209463D01*
X248641Y209565D01*
X248708Y209665D01*
X248711Y209675D01*
X248718Y209688D01*
X248787Y209945D01*
X248784Y210007D01*
X248792Y210042D01*
X248792Y258904D01*
X248777Y259006D01*
X248769Y259108D01*
X248757Y259136D01*
X248752Y259167D01*
X248708Y259259D01*
X248670Y259355D01*
X248650Y259378D01*
X248637Y259406D01*
X248567Y259481D01*
X248502Y259561D01*
X248476Y259578D01*
X248455Y259600D01*
X248366Y259651D01*
X248281Y259708D01*
X248257Y259714D01*
X248225Y259732D01*
X247965Y259790D01*
X247927Y259787D01*
X247904Y259792D01*
X164429Y259792D01*
X164327Y259777D01*
X164225Y259769D01*
X164197Y259757D01*
X164166Y259752D01*
X164074Y259708D01*
X163978Y259670D01*
X163955Y259650D01*
X163927Y259637D01*
X163852Y259567D01*
X163772Y259502D01*
X163755Y259476D01*
X163733Y259455D01*
X163682Y259366D01*
X163625Y259281D01*
X163619Y259257D01*
X163601Y259225D01*
X163543Y258965D01*
X163546Y258927D01*
X163541Y258904D01*
X163541Y251527D01*
X155889Y251527D01*
X155788Y251512D01*
X155685Y251503D01*
X155657Y251492D01*
X155626Y251487D01*
X155534Y251443D01*
X155439Y251404D01*
X155415Y251385D01*
X155387Y251372D01*
X155312Y251302D01*
X155232Y251237D01*
X155215Y251211D01*
X155193Y251190D01*
X155142Y251101D01*
X155085Y251016D01*
X155080Y250992D01*
X155061Y250959D01*
X155003Y250700D01*
X155006Y250662D01*
X155001Y250639D01*
X155001Y249749D01*
X154999Y249749D01*
X154999Y250639D01*
X154984Y250740D01*
X154975Y250843D01*
X154964Y250871D01*
X154959Y250902D01*
X154915Y250994D01*
X154876Y251089D01*
X154857Y251113D01*
X154844Y251141D01*
X154774Y251216D01*
X154709Y251296D01*
X154683Y251313D01*
X154662Y251335D01*
X154573Y251386D01*
X154488Y251443D01*
X154464Y251448D01*
X154431Y251467D01*
X154172Y251525D01*
X154134Y251522D01*
X154111Y251527D01*
X146459Y251527D01*
X146459Y258904D01*
X146444Y259006D01*
X146436Y259108D01*
X146424Y259136D01*
X146419Y259167D01*
X146375Y259259D01*
X146337Y259355D01*
X146317Y259378D01*
X146304Y259406D01*
X146234Y259481D01*
X146169Y259561D01*
X146143Y259578D01*
X146122Y259600D01*
X146033Y259651D01*
X145948Y259708D01*
X145924Y259714D01*
X145892Y259732D01*
X145632Y259790D01*
X145594Y259787D01*
X145571Y259792D01*
X108429Y259792D01*
X108327Y259777D01*
X108225Y259769D01*
X108197Y259757D01*
X108166Y259752D01*
X108074Y259708D01*
X107978Y259670D01*
X107955Y259650D01*
X107927Y259637D01*
X107852Y259567D01*
X107772Y259502D01*
X107755Y259476D01*
X107733Y259455D01*
X107682Y259366D01*
X107625Y259281D01*
X107619Y259257D01*
X107601Y259225D01*
X107543Y258965D01*
X107546Y258927D01*
X107541Y258904D01*
X107541Y251527D01*
X99889Y251527D01*
X99788Y251512D01*
X99685Y251503D01*
X99657Y251492D01*
X99626Y251487D01*
X99534Y251443D01*
X99439Y251404D01*
X99415Y251385D01*
X99387Y251372D01*
X99312Y251302D01*
X99232Y251237D01*
X99215Y251211D01*
X99193Y251190D01*
X99142Y251101D01*
X99085Y251016D01*
X99080Y250992D01*
X99061Y250959D01*
X99003Y250700D01*
X99006Y250662D01*
X99001Y250639D01*
X99001Y249749D01*
X98999Y249749D01*
X98999Y250639D01*
X98984Y250740D01*
X98975Y250843D01*
X98964Y250871D01*
X98959Y250902D01*
X98915Y250994D01*
X98876Y251089D01*
X98857Y251113D01*
X98844Y251141D01*
X98774Y251216D01*
X98709Y251296D01*
X98683Y251313D01*
X98662Y251335D01*
X98573Y251386D01*
X98488Y251443D01*
X98464Y251448D01*
X98431Y251467D01*
X98172Y251525D01*
X98134Y251522D01*
X98111Y251527D01*
X90459Y251527D01*
X90459Y258904D01*
X90444Y259006D01*
X90436Y259108D01*
X90424Y259136D01*
X90419Y259167D01*
X90375Y259259D01*
X90337Y259355D01*
X90317Y259378D01*
X90304Y259406D01*
X90234Y259481D01*
X90169Y259561D01*
X90143Y259578D01*
X90122Y259600D01*
X90033Y259651D01*
X89948Y259708D01*
X89924Y259714D01*
X89892Y259732D01*
X89632Y259790D01*
X89594Y259787D01*
X89571Y259792D01*
X6096Y259792D01*
X5994Y259777D01*
X5892Y259769D01*
X5864Y259757D01*
X5833Y259752D01*
X5741Y259708D01*
X5645Y259670D01*
X5622Y259650D01*
X5594Y259637D01*
X5519Y259567D01*
X5439Y259502D01*
X5422Y259476D01*
X5400Y259455D01*
X5349Y259366D01*
X5292Y259281D01*
X5286Y259257D01*
X5268Y259225D01*
X5210Y258965D01*
X5213Y258927D01*
X5208Y258904D01*
X5208Y208885D01*
X5222Y208794D01*
X5227Y208701D01*
X5241Y208663D01*
X5248Y208622D01*
X5288Y208539D01*
X5320Y208452D01*
X5345Y208420D01*
X5363Y208383D01*
X5426Y208315D01*
X5483Y208242D01*
X5517Y208219D01*
X5545Y208189D01*
X5625Y208143D01*
X5700Y208090D01*
X5740Y208077D01*
X5775Y208057D01*
X5866Y208037D01*
X5953Y208008D01*
X5995Y208008D01*
X6035Y207999D01*
X6127Y208006D01*
X6219Y208005D01*
X6259Y208017D01*
X6300Y208020D01*
X6385Y208055D01*
X6474Y208081D01*
X6508Y208104D01*
X6547Y208119D01*
X6618Y208178D01*
X6695Y208229D01*
X6713Y208254D01*
X6753Y208287D01*
X6900Y208508D01*
X6905Y208528D01*
X6917Y208545D01*
X7032Y208824D01*
X9676Y211468D01*
X13130Y212899D01*
X16870Y212899D01*
X20324Y211468D01*
X22968Y208824D01*
X24399Y205370D01*
X24399Y201630D01*
X22968Y198176D01*
X20324Y195532D01*
X16870Y194101D01*
X13130Y194101D01*
X9676Y195532D01*
X7032Y198176D01*
X6917Y198455D01*
X6869Y198534D01*
X6829Y198617D01*
X6801Y198647D01*
X6779Y198683D01*
X6710Y198744D01*
X6647Y198811D01*
X6612Y198832D01*
X6581Y198859D01*
X6497Y198898D01*
X6417Y198943D01*
X6376Y198952D01*
X6339Y198969D01*
X6247Y198981D01*
X6157Y199001D01*
X6116Y198998D01*
X6075Y199003D01*
X5984Y198987D01*
X5892Y198980D01*
X5854Y198964D01*
X5813Y198957D01*
X5731Y198915D01*
X5645Y198881D01*
X5613Y198855D01*
X5577Y198836D01*
X5511Y198771D01*
X5439Y198713D01*
X5416Y198679D01*
X5387Y198650D01*
X5343Y198569D01*
X5292Y198492D01*
X5285Y198461D01*
X5260Y198416D01*
X5209Y198155D01*
X5212Y198135D01*
X5208Y198115D01*
X5208Y183485D01*
X5222Y183394D01*
X5227Y183301D01*
X5241Y183263D01*
X5248Y183222D01*
X5288Y183139D01*
X5320Y183052D01*
X5345Y183020D01*
X5363Y182983D01*
X5426Y182915D01*
X5483Y182842D01*
X5517Y182819D01*
X5545Y182789D01*
X5625Y182743D01*
X5700Y182690D01*
X5740Y182677D01*
X5775Y182657D01*
X5866Y182637D01*
X5953Y182608D01*
X5995Y182608D01*
X6035Y182599D01*
X6127Y182606D01*
X6219Y182605D01*
X6259Y182617D01*
X6300Y182620D01*
X6385Y182655D01*
X6474Y182681D01*
X6508Y182704D01*
X6547Y182719D01*
X6618Y182778D01*
X6695Y182829D01*
X6713Y182854D01*
X6753Y182887D01*
X6900Y183108D01*
X6905Y183128D01*
X6917Y183145D01*
X7032Y183424D01*
X9676Y186068D01*
X13130Y187499D01*
X16870Y187499D01*
X20324Y186068D01*
X22968Y183424D01*
X24399Y179970D01*
X24399Y176230D01*
X23578Y174250D01*
X23563Y174189D01*
X23539Y174132D01*
X23532Y174061D01*
X23514Y173992D01*
X23518Y173930D01*
X23512Y173868D01*
X23526Y173798D01*
X23530Y173726D01*
X23551Y173668D01*
X23564Y173607D01*
X23589Y173567D01*
X23623Y173477D01*
X23754Y173308D01*
X23771Y173282D01*
X46497Y150555D01*
X46514Y150542D01*
X46528Y150526D01*
X46621Y150464D01*
X46711Y150397D01*
X46731Y150390D01*
X46749Y150379D01*
X46793Y150369D01*
X46962Y150310D01*
X47075Y150306D01*
X47126Y150295D01*
X107161Y150295D01*
X107182Y150298D01*
G37*
G36*
X89673Y5223D02*
X89673Y5223D01*
X89775Y5231D01*
X89803Y5243D01*
X89834Y5248D01*
X89926Y5292D01*
X90022Y5330D01*
X90045Y5350D01*
X90073Y5363D01*
X90148Y5433D01*
X90228Y5498D01*
X90245Y5524D01*
X90267Y5545D01*
X90318Y5634D01*
X90375Y5719D01*
X90381Y5743D01*
X90399Y5775D01*
X90457Y6035D01*
X90454Y6073D01*
X90459Y6096D01*
X90459Y13473D01*
X98111Y13473D01*
X98212Y13488D01*
X98315Y13497D01*
X98343Y13508D01*
X98374Y13513D01*
X98466Y13557D01*
X98561Y13596D01*
X98585Y13615D01*
X98613Y13628D01*
X98688Y13698D01*
X98768Y13763D01*
X98785Y13789D01*
X98807Y13810D01*
X98858Y13899D01*
X98915Y13984D01*
X98920Y14008D01*
X98939Y14040D01*
X98997Y14300D01*
X98994Y14338D01*
X98999Y14361D01*
X98999Y15251D01*
X99001Y15251D01*
X99001Y14361D01*
X99016Y14260D01*
X99025Y14157D01*
X99036Y14129D01*
X99041Y14098D01*
X99085Y14006D01*
X99124Y13911D01*
X99143Y13887D01*
X99156Y13859D01*
X99226Y13784D01*
X99291Y13704D01*
X99317Y13687D01*
X99338Y13665D01*
X99427Y13614D01*
X99512Y13557D01*
X99536Y13551D01*
X99569Y13533D01*
X99828Y13475D01*
X99866Y13478D01*
X99889Y13473D01*
X107541Y13473D01*
X107541Y6096D01*
X107556Y5994D01*
X107564Y5892D01*
X107576Y5864D01*
X107581Y5833D01*
X107625Y5741D01*
X107663Y5645D01*
X107683Y5622D01*
X107696Y5594D01*
X107766Y5519D01*
X107831Y5439D01*
X107857Y5422D01*
X107878Y5400D01*
X107967Y5349D01*
X108052Y5292D01*
X108076Y5286D01*
X108108Y5268D01*
X108368Y5210D01*
X108406Y5213D01*
X108429Y5208D01*
X145571Y5208D01*
X145673Y5223D01*
X145775Y5231D01*
X145803Y5243D01*
X145834Y5248D01*
X145926Y5292D01*
X146022Y5330D01*
X146045Y5350D01*
X146073Y5363D01*
X146148Y5433D01*
X146228Y5498D01*
X146245Y5524D01*
X146267Y5545D01*
X146318Y5634D01*
X146375Y5719D01*
X146381Y5743D01*
X146399Y5775D01*
X146457Y6035D01*
X146454Y6073D01*
X146459Y6096D01*
X146459Y13473D01*
X154111Y13473D01*
X154212Y13488D01*
X154315Y13497D01*
X154343Y13508D01*
X154374Y13513D01*
X154466Y13557D01*
X154561Y13596D01*
X154585Y13615D01*
X154613Y13628D01*
X154688Y13698D01*
X154768Y13763D01*
X154785Y13789D01*
X154807Y13810D01*
X154858Y13899D01*
X154915Y13984D01*
X154920Y14008D01*
X154939Y14040D01*
X154997Y14300D01*
X154994Y14338D01*
X154999Y14361D01*
X154999Y15251D01*
X155001Y15251D01*
X155001Y14361D01*
X155016Y14260D01*
X155025Y14157D01*
X155036Y14129D01*
X155041Y14098D01*
X155085Y14006D01*
X155124Y13911D01*
X155143Y13887D01*
X155156Y13859D01*
X155226Y13784D01*
X155291Y13704D01*
X155317Y13687D01*
X155338Y13665D01*
X155427Y13614D01*
X155512Y13557D01*
X155536Y13551D01*
X155569Y13533D01*
X155828Y13475D01*
X155866Y13478D01*
X155889Y13473D01*
X163541Y13473D01*
X163541Y6096D01*
X163556Y5994D01*
X163564Y5892D01*
X163576Y5864D01*
X163581Y5833D01*
X163625Y5741D01*
X163663Y5645D01*
X163683Y5622D01*
X163696Y5594D01*
X163766Y5519D01*
X163831Y5439D01*
X163857Y5422D01*
X163878Y5400D01*
X163967Y5349D01*
X164052Y5292D01*
X164076Y5286D01*
X164108Y5268D01*
X164368Y5210D01*
X164406Y5213D01*
X164429Y5208D01*
X220409Y5208D01*
X220501Y5222D01*
X220593Y5227D01*
X220632Y5241D01*
X220672Y5248D01*
X220755Y5288D01*
X220842Y5320D01*
X220874Y5345D01*
X220912Y5363D01*
X220979Y5426D01*
X221052Y5483D01*
X221076Y5517D01*
X221106Y5545D01*
X221152Y5625D01*
X221205Y5700D01*
X221217Y5740D01*
X221238Y5775D01*
X221258Y5865D01*
X221286Y5953D01*
X221287Y5995D01*
X221296Y6035D01*
X221288Y6127D01*
X221289Y6219D01*
X221277Y6259D01*
X221274Y6300D01*
X221240Y6386D01*
X221213Y6474D01*
X221190Y6508D01*
X221175Y6547D01*
X221117Y6618D01*
X221065Y6695D01*
X221040Y6713D01*
X221007Y6753D01*
X220786Y6900D01*
X220766Y6905D01*
X220749Y6917D01*
X217225Y8376D01*
X211576Y14025D01*
X208519Y21406D01*
X208519Y29394D01*
X211576Y36775D01*
X217225Y42424D01*
X224606Y45481D01*
X232594Y45481D01*
X239975Y42424D01*
X245624Y36775D01*
X247083Y33251D01*
X247114Y33200D01*
X247121Y33181D01*
X247134Y33166D01*
X247171Y33088D01*
X247199Y33058D01*
X247221Y33023D01*
X247290Y32962D01*
X247353Y32894D01*
X247389Y32874D01*
X247419Y32846D01*
X247503Y32808D01*
X247583Y32762D01*
X247624Y32753D01*
X247661Y32736D01*
X247753Y32724D01*
X247843Y32704D01*
X247884Y32708D01*
X247925Y32703D01*
X248016Y32718D01*
X248108Y32726D01*
X248146Y32741D01*
X248187Y32748D01*
X248269Y32791D01*
X248355Y32825D01*
X248387Y32851D01*
X248423Y32870D01*
X248489Y32934D01*
X248561Y32993D01*
X248584Y33027D01*
X248613Y33056D01*
X248657Y33137D01*
X248708Y33214D01*
X248715Y33244D01*
X248740Y33289D01*
X248791Y33550D01*
X248789Y33565D01*
X248790Y33571D01*
X248790Y33578D01*
X248792Y33591D01*
X248792Y66392D01*
X248785Y66443D01*
X248786Y66495D01*
X248765Y66574D01*
X248752Y66655D01*
X248730Y66702D01*
X248716Y66752D01*
X248672Y66821D01*
X248637Y66894D01*
X248601Y66932D01*
X248574Y66976D01*
X248511Y67029D01*
X248455Y67089D01*
X248410Y67114D01*
X248371Y67148D01*
X248296Y67180D01*
X248225Y67221D01*
X248174Y67232D01*
X248127Y67252D01*
X248045Y67261D01*
X247965Y67279D01*
X247914Y67274D01*
X247862Y67280D01*
X247782Y67264D01*
X247700Y67257D01*
X247652Y67238D01*
X247602Y67228D01*
X247558Y67200D01*
X247453Y67158D01*
X247384Y67101D01*
X230643Y67101D01*
X229601Y68143D01*
X229601Y84857D01*
X230643Y85899D01*
X247374Y85899D01*
X247424Y85871D01*
X247490Y85822D01*
X247539Y85805D01*
X247583Y85779D01*
X247663Y85761D01*
X247741Y85734D01*
X247793Y85733D01*
X247843Y85721D01*
X247925Y85728D01*
X248007Y85725D01*
X248056Y85739D01*
X248108Y85743D01*
X248184Y85774D01*
X248263Y85795D01*
X248307Y85823D01*
X248355Y85842D01*
X248418Y85894D01*
X248487Y85938D01*
X248521Y85977D01*
X248561Y86010D01*
X248606Y86078D01*
X248659Y86140D01*
X248680Y86188D01*
X248708Y86231D01*
X248720Y86281D01*
X248764Y86385D01*
X248782Y86563D01*
X248792Y86608D01*
X248792Y96515D01*
X248778Y96606D01*
X248773Y96699D01*
X248759Y96737D01*
X248752Y96778D01*
X248712Y96861D01*
X248680Y96948D01*
X248655Y96980D01*
X248637Y97017D01*
X248574Y97085D01*
X248517Y97158D01*
X248483Y97181D01*
X248455Y97211D01*
X248375Y97257D01*
X248300Y97310D01*
X248260Y97323D01*
X248225Y97343D01*
X248134Y97363D01*
X248047Y97392D01*
X248005Y97392D01*
X247965Y97401D01*
X247873Y97394D01*
X247781Y97395D01*
X247741Y97383D01*
X247700Y97380D01*
X247615Y97345D01*
X247526Y97319D01*
X247492Y97296D01*
X247453Y97281D01*
X247382Y97222D01*
X247305Y97171D01*
X247287Y97146D01*
X247247Y97113D01*
X247100Y96892D01*
X247095Y96872D01*
X247083Y96855D01*
X246968Y96576D01*
X244324Y93932D01*
X240870Y92501D01*
X237130Y92501D01*
X233676Y93932D01*
X231032Y96576D01*
X229601Y100030D01*
X229601Y103770D01*
X231032Y107224D01*
X233676Y109868D01*
X237130Y111299D01*
X240870Y111299D01*
X244324Y109868D01*
X246968Y107224D01*
X247083Y106945D01*
X247131Y106866D01*
X247171Y106783D01*
X247199Y106753D01*
X247221Y106717D01*
X247290Y106656D01*
X247353Y106589D01*
X247388Y106568D01*
X247419Y106541D01*
X247503Y106502D01*
X247583Y106457D01*
X247624Y106448D01*
X247661Y106431D01*
X247753Y106419D01*
X247843Y106399D01*
X247884Y106402D01*
X247925Y106397D01*
X248016Y106413D01*
X248108Y106420D01*
X248146Y106436D01*
X248187Y106443D01*
X248269Y106485D01*
X248355Y106519D01*
X248387Y106545D01*
X248423Y106564D01*
X248489Y106629D01*
X248561Y106687D01*
X248584Y106721D01*
X248613Y106750D01*
X248657Y106831D01*
X248708Y106908D01*
X248715Y106939D01*
X248740Y106984D01*
X248791Y107245D01*
X248788Y107265D01*
X248792Y107285D01*
X248792Y121915D01*
X248778Y122006D01*
X248773Y122099D01*
X248759Y122137D01*
X248752Y122178D01*
X248712Y122261D01*
X248680Y122348D01*
X248655Y122380D01*
X248637Y122417D01*
X248574Y122485D01*
X248517Y122558D01*
X248483Y122581D01*
X248455Y122611D01*
X248375Y122657D01*
X248300Y122710D01*
X248260Y122723D01*
X248225Y122743D01*
X248134Y122763D01*
X248047Y122792D01*
X248005Y122792D01*
X247965Y122801D01*
X247873Y122794D01*
X247781Y122795D01*
X247741Y122783D01*
X247700Y122780D01*
X247615Y122745D01*
X247526Y122719D01*
X247492Y122696D01*
X247453Y122681D01*
X247382Y122622D01*
X247305Y122571D01*
X247287Y122546D01*
X247247Y122513D01*
X247100Y122292D01*
X247095Y122272D01*
X247083Y122255D01*
X246968Y121976D01*
X244324Y119332D01*
X240870Y117901D01*
X237130Y117901D01*
X235150Y118722D01*
X235089Y118737D01*
X235032Y118761D01*
X234961Y118768D01*
X234892Y118786D01*
X234830Y118782D01*
X234768Y118788D01*
X234698Y118774D01*
X234626Y118770D01*
X234568Y118749D01*
X234507Y118736D01*
X234467Y118711D01*
X234377Y118677D01*
X234208Y118546D01*
X234182Y118529D01*
X206703Y91051D01*
X204806Y89153D01*
X137028Y89153D01*
X136977Y89146D01*
X136925Y89147D01*
X136846Y89126D01*
X136765Y89113D01*
X136718Y89091D01*
X136669Y89077D01*
X136599Y89033D01*
X136525Y88998D01*
X136488Y88963D01*
X136444Y88935D01*
X136391Y88872D01*
X136331Y88816D01*
X136306Y88772D01*
X136272Y88732D01*
X136240Y88657D01*
X136199Y88586D01*
X136188Y88535D01*
X136168Y88488D01*
X136159Y88406D01*
X136141Y88326D01*
X136146Y88275D01*
X136140Y88223D01*
X136156Y88143D01*
X136163Y88061D01*
X136182Y88013D01*
X136192Y87963D01*
X136220Y87919D01*
X136262Y87814D01*
X136375Y87675D01*
X136400Y87637D01*
X142897Y81139D01*
X144795Y79242D01*
X144795Y61417D01*
X144810Y61315D01*
X144818Y61213D01*
X144830Y61185D01*
X144835Y61154D01*
X144879Y61062D01*
X144917Y60966D01*
X144937Y60943D01*
X144950Y60915D01*
X145020Y60840D01*
X145085Y60760D01*
X145111Y60743D01*
X145132Y60721D01*
X145221Y60670D01*
X145306Y60613D01*
X145330Y60607D01*
X145362Y60589D01*
X145622Y60531D01*
X145660Y60534D01*
X145683Y60529D01*
X145737Y60529D01*
X146779Y59487D01*
X146779Y44513D01*
X145737Y43471D01*
X142534Y43471D01*
X142513Y43468D01*
X142492Y43470D01*
X142381Y43448D01*
X142271Y43431D01*
X142252Y43422D01*
X142231Y43418D01*
X142193Y43394D01*
X142031Y43316D01*
X141949Y43239D01*
X141905Y43211D01*
X130444Y31749D01*
X55798Y31749D01*
X20707Y66841D01*
X20690Y66854D01*
X20676Y66870D01*
X20583Y66932D01*
X20493Y66999D01*
X20473Y67006D01*
X20455Y67017D01*
X20411Y67027D01*
X20242Y67086D01*
X20129Y67090D01*
X20078Y67101D01*
X6626Y67101D01*
X6576Y67129D01*
X6510Y67178D01*
X6461Y67195D01*
X6417Y67221D01*
X6337Y67239D01*
X6259Y67266D01*
X6207Y67267D01*
X6157Y67279D01*
X6075Y67272D01*
X5993Y67275D01*
X5944Y67261D01*
X5892Y67257D01*
X5816Y67226D01*
X5737Y67205D01*
X5693Y67177D01*
X5645Y67158D01*
X5582Y67106D01*
X5513Y67062D01*
X5479Y67023D01*
X5439Y66990D01*
X5394Y66922D01*
X5341Y66860D01*
X5320Y66812D01*
X5292Y66769D01*
X5280Y66719D01*
X5236Y66615D01*
X5218Y66437D01*
X5208Y66392D01*
X5208Y33591D01*
X5222Y33499D01*
X5227Y33407D01*
X5241Y33368D01*
X5248Y33328D01*
X5288Y33245D01*
X5320Y33158D01*
X5345Y33126D01*
X5363Y33088D01*
X5426Y33021D01*
X5483Y32948D01*
X5517Y32924D01*
X5545Y32894D01*
X5625Y32848D01*
X5700Y32795D01*
X5740Y32783D01*
X5775Y32762D01*
X5865Y32742D01*
X5953Y32714D01*
X5995Y32713D01*
X6035Y32704D01*
X6127Y32712D01*
X6219Y32711D01*
X6259Y32723D01*
X6300Y32726D01*
X6386Y32760D01*
X6474Y32787D01*
X6508Y32810D01*
X6547Y32825D01*
X6618Y32883D01*
X6695Y32935D01*
X6713Y32960D01*
X6753Y32993D01*
X6900Y33214D01*
X6905Y33234D01*
X6917Y33251D01*
X8376Y36775D01*
X14025Y42424D01*
X21406Y45481D01*
X29394Y45481D01*
X36775Y42424D01*
X42424Y36775D01*
X45481Y29394D01*
X45481Y21406D01*
X42424Y14025D01*
X36775Y8376D01*
X33251Y6917D01*
X33172Y6869D01*
X33088Y6829D01*
X33058Y6801D01*
X33023Y6779D01*
X32962Y6710D01*
X32894Y6647D01*
X32874Y6611D01*
X32846Y6581D01*
X32808Y6497D01*
X32762Y6417D01*
X32753Y6376D01*
X32736Y6339D01*
X32724Y6247D01*
X32704Y6157D01*
X32708Y6116D01*
X32703Y6075D01*
X32718Y5984D01*
X32726Y5892D01*
X32741Y5854D01*
X32748Y5813D01*
X32791Y5731D01*
X32825Y5645D01*
X32851Y5613D01*
X32870Y5577D01*
X32934Y5511D01*
X32993Y5439D01*
X33027Y5416D01*
X33056Y5387D01*
X33137Y5343D01*
X33214Y5292D01*
X33244Y5285D01*
X33289Y5260D01*
X33550Y5209D01*
X33570Y5212D01*
X33591Y5208D01*
X89571Y5208D01*
X89673Y5223D01*
G37*
G36*
X152857Y94748D02*
X152857Y94748D01*
X152891Y94745D01*
X152988Y94768D01*
X153086Y94783D01*
X153117Y94798D01*
X153150Y94805D01*
X153236Y94855D01*
X153325Y94898D01*
X153350Y94922D01*
X153380Y94939D01*
X153447Y95012D01*
X153519Y95080D01*
X153536Y95110D01*
X153560Y95135D01*
X153602Y95225D01*
X153651Y95310D01*
X153659Y95344D01*
X153673Y95375D01*
X153687Y95473D01*
X153709Y95570D01*
X153706Y95604D01*
X153711Y95638D01*
X153695Y95736D01*
X153687Y95835D01*
X153674Y95867D01*
X153669Y95901D01*
X153625Y95990D01*
X153588Y96082D01*
X153566Y96108D01*
X153551Y96139D01*
X153513Y96175D01*
X153421Y96288D01*
X153306Y96365D01*
X153267Y96400D01*
X153174Y96454D01*
X152494Y97134D01*
X152013Y97967D01*
X151764Y98895D01*
X151764Y100933D01*
X157861Y100933D01*
X157962Y100948D01*
X158065Y100957D01*
X158093Y100968D01*
X158124Y100973D01*
X158216Y101017D01*
X158311Y101056D01*
X158335Y101075D01*
X158363Y101088D01*
X158438Y101158D01*
X158518Y101223D01*
X158535Y101249D01*
X158557Y101270D01*
X158608Y101359D01*
X158665Y101444D01*
X158670Y101468D01*
X158689Y101500D01*
X158747Y101760D01*
X158744Y101798D01*
X158749Y101821D01*
X158749Y102711D01*
X158751Y102711D01*
X158751Y101821D01*
X158766Y101720D01*
X158775Y101617D01*
X158786Y101589D01*
X158791Y101558D01*
X158835Y101466D01*
X158874Y101371D01*
X158893Y101347D01*
X158906Y101319D01*
X158976Y101244D01*
X159041Y101164D01*
X159067Y101147D01*
X159088Y101125D01*
X159177Y101074D01*
X159262Y101017D01*
X159286Y101011D01*
X159319Y100993D01*
X159578Y100935D01*
X159616Y100938D01*
X159639Y100933D01*
X165736Y100933D01*
X165736Y98895D01*
X165487Y97967D01*
X165006Y97134D01*
X164326Y96454D01*
X164233Y96400D01*
X164206Y96379D01*
X164175Y96364D01*
X164103Y96296D01*
X164025Y96234D01*
X164006Y96206D01*
X163981Y96182D01*
X163932Y96096D01*
X163876Y96015D01*
X163866Y95981D01*
X163849Y95952D01*
X163827Y95855D01*
X163798Y95760D01*
X163799Y95726D01*
X163791Y95692D01*
X163799Y95594D01*
X163799Y95495D01*
X163810Y95461D01*
X163813Y95427D01*
X163849Y95335D01*
X163879Y95241D01*
X163899Y95213D01*
X163912Y95180D01*
X163974Y95104D01*
X164030Y95022D01*
X164057Y95001D01*
X164079Y94974D01*
X164162Y94919D01*
X164239Y94858D01*
X164272Y94846D01*
X164300Y94827D01*
X164352Y94815D01*
X164488Y94763D01*
X164626Y94754D01*
X164677Y94743D01*
X202122Y94743D01*
X202143Y94746D01*
X202164Y94744D01*
X202274Y94766D01*
X202385Y94783D01*
X202404Y94792D01*
X202425Y94796D01*
X202463Y94820D01*
X202625Y94898D01*
X202707Y94975D01*
X202751Y95003D01*
X230229Y122482D01*
X230266Y122531D01*
X230310Y122575D01*
X230344Y122638D01*
X230387Y122696D01*
X230407Y122754D01*
X230437Y122809D01*
X230451Y122879D01*
X230474Y122947D01*
X230476Y123008D01*
X230488Y123069D01*
X230480Y123117D01*
X230483Y123212D01*
X230427Y123419D01*
X230422Y123450D01*
X229601Y125430D01*
X229601Y129170D01*
X231032Y132624D01*
X233676Y135268D01*
X237130Y136699D01*
X240870Y136699D01*
X244324Y135268D01*
X246968Y132624D01*
X247083Y132345D01*
X247131Y132266D01*
X247171Y132183D01*
X247199Y132153D01*
X247221Y132117D01*
X247290Y132056D01*
X247353Y131989D01*
X247388Y131968D01*
X247419Y131941D01*
X247503Y131902D01*
X247583Y131857D01*
X247624Y131848D01*
X247661Y131831D01*
X247753Y131819D01*
X247843Y131799D01*
X247884Y131802D01*
X247925Y131797D01*
X248016Y131813D01*
X248108Y131820D01*
X248146Y131836D01*
X248187Y131843D01*
X248269Y131885D01*
X248355Y131919D01*
X248387Y131945D01*
X248423Y131964D01*
X248489Y132029D01*
X248561Y132087D01*
X248584Y132121D01*
X248613Y132150D01*
X248657Y132231D01*
X248708Y132308D01*
X248715Y132339D01*
X248740Y132384D01*
X248791Y132645D01*
X248788Y132665D01*
X248792Y132685D01*
X248792Y147315D01*
X248778Y147406D01*
X248773Y147499D01*
X248759Y147537D01*
X248752Y147578D01*
X248712Y147661D01*
X248680Y147748D01*
X248655Y147780D01*
X248637Y147817D01*
X248574Y147885D01*
X248517Y147958D01*
X248483Y147981D01*
X248455Y148011D01*
X248375Y148057D01*
X248300Y148110D01*
X248260Y148123D01*
X248225Y148143D01*
X248134Y148163D01*
X248047Y148192D01*
X248005Y148192D01*
X247965Y148201D01*
X247873Y148194D01*
X247781Y148195D01*
X247741Y148183D01*
X247700Y148180D01*
X247615Y148145D01*
X247526Y148119D01*
X247492Y148096D01*
X247453Y148081D01*
X247382Y148022D01*
X247305Y147971D01*
X247287Y147946D01*
X247247Y147913D01*
X247100Y147692D01*
X247095Y147672D01*
X247083Y147655D01*
X246968Y147376D01*
X244324Y144732D01*
X240870Y143301D01*
X237130Y143301D01*
X233676Y144732D01*
X231032Y147376D01*
X229601Y150830D01*
X229601Y154570D01*
X231032Y158024D01*
X233676Y160668D01*
X237130Y162099D01*
X240870Y162099D01*
X244324Y160668D01*
X246968Y158024D01*
X247083Y157745D01*
X247131Y157666D01*
X247171Y157583D01*
X247199Y157553D01*
X247221Y157517D01*
X247290Y157456D01*
X247353Y157389D01*
X247388Y157368D01*
X247419Y157341D01*
X247503Y157302D01*
X247583Y157257D01*
X247624Y157248D01*
X247661Y157231D01*
X247753Y157219D01*
X247843Y157199D01*
X247884Y157202D01*
X247925Y157197D01*
X248016Y157213D01*
X248108Y157220D01*
X248146Y157236D01*
X248187Y157243D01*
X248269Y157285D01*
X248355Y157319D01*
X248387Y157345D01*
X248423Y157364D01*
X248489Y157429D01*
X248561Y157487D01*
X248584Y157521D01*
X248613Y157550D01*
X248657Y157631D01*
X248708Y157708D01*
X248715Y157739D01*
X248740Y157784D01*
X248791Y158045D01*
X248788Y158065D01*
X248792Y158085D01*
X248792Y172715D01*
X248778Y172806D01*
X248773Y172899D01*
X248759Y172937D01*
X248752Y172978D01*
X248712Y173061D01*
X248680Y173148D01*
X248655Y173180D01*
X248637Y173217D01*
X248574Y173285D01*
X248517Y173358D01*
X248483Y173381D01*
X248455Y173411D01*
X248375Y173457D01*
X248300Y173510D01*
X248260Y173523D01*
X248225Y173543D01*
X248134Y173563D01*
X248047Y173592D01*
X248005Y173592D01*
X247965Y173601D01*
X247873Y173594D01*
X247781Y173595D01*
X247741Y173583D01*
X247700Y173580D01*
X247615Y173545D01*
X247526Y173519D01*
X247492Y173496D01*
X247453Y173481D01*
X247382Y173422D01*
X247305Y173371D01*
X247287Y173346D01*
X247247Y173313D01*
X247100Y173092D01*
X247095Y173072D01*
X247083Y173055D01*
X246968Y172776D01*
X244324Y170132D01*
X240870Y168701D01*
X237130Y168701D01*
X233676Y170132D01*
X231032Y172776D01*
X230422Y174249D01*
X230390Y174302D01*
X230367Y174360D01*
X230322Y174415D01*
X230285Y174477D01*
X230239Y174518D01*
X230199Y174566D01*
X230140Y174606D01*
X230086Y174653D01*
X230030Y174679D01*
X229978Y174713D01*
X229931Y174724D01*
X229844Y174763D01*
X229632Y174790D01*
X229601Y174797D01*
X180975Y174797D01*
X180955Y174794D01*
X180934Y174796D01*
X180823Y174774D01*
X180712Y174757D01*
X180694Y174748D01*
X180673Y174744D01*
X180634Y174720D01*
X180473Y174642D01*
X180391Y174565D01*
X180347Y174537D01*
X179037Y173227D01*
X175039Y173227D01*
X172211Y176055D01*
X172211Y177842D01*
X172208Y177863D01*
X172210Y177884D01*
X172188Y177994D01*
X172171Y178105D01*
X172162Y178124D01*
X172158Y178144D01*
X172134Y178183D01*
X172056Y178344D01*
X171979Y178427D01*
X171951Y178470D01*
X167040Y183381D01*
X167023Y183394D01*
X167010Y183410D01*
X166916Y183472D01*
X166826Y183539D01*
X166806Y183546D01*
X166789Y183557D01*
X166744Y183567D01*
X166575Y183626D01*
X166462Y183630D01*
X166412Y183641D01*
X147884Y183641D01*
X147782Y183626D01*
X147680Y183618D01*
X147652Y183606D01*
X147621Y183601D01*
X147529Y183557D01*
X147433Y183519D01*
X147410Y183499D01*
X147382Y183486D01*
X147307Y183416D01*
X147227Y183351D01*
X147210Y183325D01*
X147188Y183304D01*
X147137Y183215D01*
X147080Y183130D01*
X147074Y183106D01*
X147056Y183074D01*
X146998Y182814D01*
X147001Y182776D01*
X146996Y182753D01*
X146996Y180957D01*
X140899Y180957D01*
X140798Y180942D01*
X140695Y180933D01*
X140667Y180922D01*
X140636Y180917D01*
X140544Y180873D01*
X140449Y180834D01*
X140425Y180815D01*
X140397Y180802D01*
X140322Y180732D01*
X140242Y180667D01*
X140225Y180641D01*
X140203Y180620D01*
X140152Y180531D01*
X140095Y180446D01*
X140090Y180422D01*
X140071Y180389D01*
X140013Y180130D01*
X140016Y180092D01*
X140011Y180069D01*
X140011Y179179D01*
X140009Y179179D01*
X140009Y180069D01*
X139994Y180170D01*
X139985Y180273D01*
X139974Y180301D01*
X139969Y180332D01*
X139925Y180424D01*
X139886Y180519D01*
X139867Y180543D01*
X139854Y180571D01*
X139784Y180646D01*
X139719Y180726D01*
X139693Y180743D01*
X139672Y180765D01*
X139583Y180816D01*
X139498Y180873D01*
X139474Y180878D01*
X139441Y180897D01*
X139182Y180955D01*
X139144Y180952D01*
X139121Y180957D01*
X132954Y180957D01*
X132948Y180978D01*
X132904Y181047D01*
X132869Y181121D01*
X132833Y181159D01*
X132806Y181203D01*
X132743Y181256D01*
X132687Y181316D01*
X132643Y181341D01*
X132603Y181375D01*
X132528Y181407D01*
X132457Y181447D01*
X132406Y181459D01*
X132359Y181479D01*
X132277Y181487D01*
X132197Y181505D01*
X132146Y181501D01*
X132094Y181506D01*
X132014Y181490D01*
X131932Y181484D01*
X131884Y181464D01*
X131834Y181454D01*
X131790Y181427D01*
X131685Y181385D01*
X131546Y181272D01*
X131508Y181247D01*
X131254Y180993D01*
X131241Y180976D01*
X131225Y180963D01*
X131163Y180869D01*
X131096Y180779D01*
X131089Y180759D01*
X131078Y180742D01*
X131068Y180697D01*
X131009Y180528D01*
X131005Y180415D01*
X130994Y180365D01*
X130994Y174649D01*
X129301Y172956D01*
X128691Y172956D01*
X128589Y172941D01*
X128487Y172933D01*
X128459Y172921D01*
X128428Y172916D01*
X128336Y172872D01*
X128240Y172834D01*
X128217Y172814D01*
X128189Y172801D01*
X128114Y172731D01*
X128034Y172666D01*
X128017Y172640D01*
X127995Y172619D01*
X127944Y172530D01*
X127887Y172445D01*
X127881Y172421D01*
X127863Y172389D01*
X127805Y172129D01*
X127808Y172091D01*
X127803Y172068D01*
X127803Y160917D01*
X127818Y160815D01*
X127826Y160713D01*
X127838Y160685D01*
X127843Y160654D01*
X127887Y160562D01*
X127925Y160466D01*
X127945Y160443D01*
X127958Y160415D01*
X128028Y160340D01*
X128093Y160260D01*
X128119Y160243D01*
X128140Y160221D01*
X128229Y160170D01*
X128314Y160113D01*
X128338Y160107D01*
X128370Y160089D01*
X128630Y160031D01*
X128668Y160034D01*
X128691Y160029D01*
X130818Y160029D01*
X130839Y160032D01*
X130860Y160030D01*
X130970Y160052D01*
X131081Y160069D01*
X131099Y160078D01*
X131120Y160082D01*
X131159Y160106D01*
X131320Y160184D01*
X131402Y160261D01*
X131404Y160262D01*
X132019Y160618D01*
X132665Y160791D01*
X133612Y160791D01*
X133612Y154250D01*
X133612Y149094D01*
X133629Y148979D01*
X133635Y148900D01*
X133643Y148881D01*
X133649Y148838D01*
X133651Y148834D01*
X133651Y148831D01*
X133707Y148715D01*
X133723Y148682D01*
X133734Y148654D01*
X133739Y148648D01*
X133763Y148598D01*
X133765Y148596D01*
X133767Y148591D01*
X133948Y148397D01*
X133977Y148381D01*
X134013Y148360D01*
X134043Y148332D01*
X134113Y148303D01*
X134180Y148265D01*
X134236Y148252D01*
X134289Y148231D01*
X134365Y148224D01*
X134439Y148207D01*
X134496Y148212D01*
X134554Y148207D01*
X134628Y148223D01*
X134704Y148229D01*
X134757Y148250D01*
X134814Y148262D01*
X134880Y148299D01*
X134951Y148328D01*
X134995Y148364D01*
X135046Y148392D01*
X135098Y148447D01*
X135157Y148495D01*
X135189Y148543D01*
X135229Y148585D01*
X135262Y148653D01*
X135305Y148717D01*
X135313Y148757D01*
X135316Y148761D01*
X135329Y148784D01*
X135330Y148790D01*
X135346Y148823D01*
X135369Y148967D01*
X135386Y149043D01*
X135385Y149063D01*
X135388Y149086D01*
X135388Y149090D01*
X135388Y149093D01*
X135388Y153362D01*
X138541Y153362D01*
X138541Y151667D01*
X138556Y151565D01*
X138564Y151463D01*
X138576Y151435D01*
X138580Y151404D01*
X138625Y151312D01*
X138663Y151216D01*
X138683Y151193D01*
X138696Y151165D01*
X138766Y151090D01*
X138831Y151010D01*
X138857Y150993D01*
X138878Y150971D01*
X138967Y150920D01*
X139052Y150863D01*
X139076Y150857D01*
X139108Y150839D01*
X139368Y150781D01*
X139406Y150784D01*
X139429Y150779D01*
X145987Y150779D01*
X146211Y150555D01*
X146228Y150542D01*
X146241Y150526D01*
X146334Y150464D01*
X146425Y150397D01*
X146444Y150390D01*
X146462Y150379D01*
X146506Y150369D01*
X146676Y150310D01*
X146788Y150306D01*
X146839Y150295D01*
X150292Y150295D01*
X150313Y150298D01*
X150334Y150296D01*
X150444Y150318D01*
X150555Y150335D01*
X150574Y150344D01*
X150595Y150348D01*
X150633Y150372D01*
X150795Y150450D01*
X150877Y150527D01*
X150921Y150555D01*
X151631Y151265D01*
X151644Y151282D01*
X151660Y151296D01*
X151722Y151389D01*
X151789Y151479D01*
X151796Y151499D01*
X151807Y151517D01*
X151817Y151561D01*
X151876Y151730D01*
X151880Y151843D01*
X151891Y151894D01*
X151891Y154399D01*
X154719Y157227D01*
X158717Y157227D01*
X159900Y156044D01*
X159941Y156013D01*
X159977Y155976D01*
X160048Y155935D01*
X160114Y155886D01*
X160163Y155869D01*
X160207Y155844D01*
X160287Y155826D01*
X160365Y155799D01*
X160417Y155797D01*
X160467Y155786D01*
X160549Y155793D01*
X160631Y155790D01*
X160680Y155803D01*
X160732Y155808D01*
X160808Y155838D01*
X160887Y155860D01*
X160931Y155887D01*
X160979Y155907D01*
X161042Y155958D01*
X161111Y156002D01*
X161145Y156042D01*
X161185Y156074D01*
X161230Y156143D01*
X161283Y156205D01*
X161304Y156252D01*
X161332Y156295D01*
X161344Y156346D01*
X161388Y156449D01*
X161406Y156628D01*
X161416Y156672D01*
X161416Y157025D01*
X163109Y158718D01*
X172171Y158718D01*
X173864Y157025D01*
X173864Y147963D01*
X172171Y146270D01*
X163109Y146270D01*
X161416Y147963D01*
X161416Y148128D01*
X161409Y148179D01*
X161410Y148230D01*
X161389Y148310D01*
X161376Y148391D01*
X161354Y148437D01*
X161340Y148487D01*
X161296Y148556D01*
X161261Y148630D01*
X161226Y148668D01*
X161198Y148711D01*
X161135Y148764D01*
X161079Y148824D01*
X161035Y148850D01*
X160995Y148883D01*
X160920Y148916D01*
X160849Y148956D01*
X160798Y148967D01*
X160751Y148988D01*
X160669Y148996D01*
X160589Y149014D01*
X160538Y149010D01*
X160486Y149015D01*
X160406Y148999D01*
X160324Y148992D01*
X160276Y148973D01*
X160226Y148963D01*
X160182Y148935D01*
X160077Y148893D01*
X159938Y148780D01*
X159900Y148756D01*
X158717Y147573D01*
X156212Y147573D01*
X156191Y147570D01*
X156170Y147572D01*
X156060Y147550D01*
X155949Y147533D01*
X155930Y147524D01*
X155909Y147520D01*
X155871Y147496D01*
X155709Y147418D01*
X155627Y147341D01*
X155583Y147313D01*
X153899Y145629D01*
X153839Y145546D01*
X153772Y145468D01*
X153760Y145440D01*
X153742Y145415D01*
X153708Y145318D01*
X153668Y145224D01*
X153664Y145193D01*
X153654Y145164D01*
X153651Y145061D01*
X153640Y144959D01*
X153646Y144929D01*
X153645Y144898D01*
X153672Y144799D01*
X153692Y144699D01*
X153705Y144678D01*
X153715Y144642D01*
X153858Y144418D01*
X153887Y144393D01*
X153899Y144373D01*
X155771Y142501D01*
X155788Y142488D01*
X155802Y142472D01*
X155895Y142410D01*
X155985Y142343D01*
X156005Y142336D01*
X156023Y142325D01*
X156067Y142315D01*
X156236Y142256D01*
X156349Y142252D01*
X156400Y142241D01*
X158717Y142241D01*
X159900Y141058D01*
X159941Y141027D01*
X159977Y140990D01*
X160048Y140949D01*
X160114Y140900D01*
X160163Y140883D01*
X160207Y140858D01*
X160287Y140840D01*
X160365Y140813D01*
X160417Y140811D01*
X160467Y140800D01*
X160549Y140807D01*
X160631Y140804D01*
X160680Y140817D01*
X160732Y140822D01*
X160808Y140852D01*
X160887Y140874D01*
X160931Y140901D01*
X160979Y140921D01*
X161042Y140972D01*
X161111Y141016D01*
X161145Y141056D01*
X161185Y141088D01*
X161230Y141157D01*
X161283Y141219D01*
X161304Y141266D01*
X161332Y141309D01*
X161344Y141360D01*
X161388Y141463D01*
X161406Y141642D01*
X161416Y141686D01*
X161416Y142039D01*
X163109Y143732D01*
X172171Y143732D01*
X173864Y142039D01*
X173864Y132977D01*
X172171Y131284D01*
X163109Y131284D01*
X161416Y132977D01*
X161416Y133142D01*
X161409Y133193D01*
X161410Y133244D01*
X161394Y133305D01*
X161393Y133320D01*
X161387Y133332D01*
X161376Y133405D01*
X161354Y133451D01*
X161340Y133501D01*
X161296Y133570D01*
X161261Y133644D01*
X161226Y133682D01*
X161198Y133725D01*
X161135Y133778D01*
X161079Y133838D01*
X161035Y133864D01*
X160995Y133897D01*
X160920Y133930D01*
X160849Y133970D01*
X160798Y133981D01*
X160751Y134002D01*
X160669Y134010D01*
X160589Y134028D01*
X160538Y134024D01*
X160486Y134029D01*
X160406Y134013D01*
X160324Y134006D01*
X160276Y133987D01*
X160226Y133977D01*
X160182Y133949D01*
X160077Y133907D01*
X160013Y133855D01*
X160000Y133848D01*
X159965Y133816D01*
X159938Y133794D01*
X159900Y133770D01*
X158717Y132587D01*
X154719Y132587D01*
X151891Y135415D01*
X151891Y138108D01*
X151888Y138129D01*
X151890Y138150D01*
X151868Y138260D01*
X151851Y138371D01*
X151842Y138390D01*
X151838Y138411D01*
X151814Y138449D01*
X151736Y138611D01*
X151659Y138693D01*
X151631Y138737D01*
X150923Y139445D01*
X150906Y139458D01*
X150892Y139474D01*
X150799Y139536D01*
X150709Y139603D01*
X150689Y139610D01*
X150671Y139621D01*
X150627Y139631D01*
X150458Y139690D01*
X150345Y139694D01*
X150294Y139705D01*
X147917Y139705D01*
X147815Y139690D01*
X147713Y139682D01*
X147685Y139670D01*
X147654Y139665D01*
X147562Y139621D01*
X147466Y139583D01*
X147443Y139563D01*
X147415Y139550D01*
X147340Y139480D01*
X147260Y139415D01*
X147243Y139389D01*
X147221Y139368D01*
X147170Y139279D01*
X147113Y139194D01*
X147107Y139170D01*
X147089Y139138D01*
X147031Y138878D01*
X147034Y138840D01*
X147029Y138817D01*
X147029Y130263D01*
X145987Y129221D01*
X138667Y129221D01*
X138565Y129206D01*
X138463Y129198D01*
X138435Y129186D01*
X138404Y129181D01*
X138312Y129137D01*
X138216Y129099D01*
X138193Y129079D01*
X138165Y129066D01*
X138090Y128996D01*
X138010Y128931D01*
X137993Y128905D01*
X137971Y128884D01*
X137920Y128795D01*
X137863Y128710D01*
X137857Y128686D01*
X137839Y128654D01*
X137781Y128394D01*
X137784Y128356D01*
X137779Y128333D01*
X137779Y127510D01*
X137782Y127489D01*
X137780Y127468D01*
X137802Y127358D01*
X137803Y127351D01*
X137803Y113456D01*
X137806Y113435D01*
X137804Y113414D01*
X137826Y113304D01*
X137843Y113193D01*
X137852Y113174D01*
X137856Y113154D01*
X137880Y113115D01*
X137958Y112954D01*
X138035Y112871D01*
X138063Y112828D01*
X141697Y109194D01*
X141714Y109181D01*
X141727Y109165D01*
X141821Y109103D01*
X141911Y109036D01*
X141931Y109029D01*
X141948Y109018D01*
X141993Y109008D01*
X142162Y108949D01*
X142275Y108945D01*
X142325Y108934D01*
X144695Y108934D01*
X144716Y108937D01*
X144737Y108935D01*
X144847Y108957D01*
X144958Y108974D01*
X144977Y108983D01*
X144997Y108987D01*
X145036Y109011D01*
X145197Y109089D01*
X145280Y109166D01*
X145323Y109194D01*
X158395Y122266D01*
X160590Y124461D01*
X172893Y124461D01*
X172913Y124464D01*
X172934Y124462D01*
X173045Y124484D01*
X173156Y124501D01*
X173174Y124510D01*
X173195Y124514D01*
X173234Y124538D01*
X173395Y124616D01*
X173477Y124693D01*
X173521Y124721D01*
X174785Y125985D01*
X178783Y125985D01*
X181611Y123157D01*
X181611Y119159D01*
X178783Y116331D01*
X174785Y116331D01*
X173521Y117595D01*
X173504Y117608D01*
X173491Y117624D01*
X173397Y117686D01*
X173307Y117753D01*
X173287Y117760D01*
X173270Y117771D01*
X173225Y117781D01*
X173056Y117840D01*
X172943Y117844D01*
X172893Y117855D01*
X163694Y117855D01*
X163673Y117852D01*
X163652Y117854D01*
X163542Y117832D01*
X163431Y117815D01*
X163412Y117806D01*
X163392Y117802D01*
X163353Y117778D01*
X163192Y117700D01*
X163109Y117623D01*
X163066Y117595D01*
X156683Y111212D01*
X156652Y111171D01*
X156614Y111135D01*
X156574Y111064D01*
X156525Y110998D01*
X156508Y110949D01*
X156483Y110905D01*
X156465Y110825D01*
X156438Y110747D01*
X156436Y110695D01*
X156425Y110645D01*
X156431Y110563D01*
X156429Y110481D01*
X156442Y110432D01*
X156446Y110380D01*
X156477Y110304D01*
X156498Y110225D01*
X156526Y110181D01*
X156545Y110133D01*
X156597Y110070D01*
X156641Y110001D01*
X156680Y109967D01*
X156713Y109927D01*
X156781Y109882D01*
X156844Y109829D01*
X156891Y109808D01*
X156934Y109780D01*
X156973Y109771D01*
X156973Y104487D01*
X151694Y104487D01*
X151688Y104508D01*
X151644Y104577D01*
X151609Y104651D01*
X151574Y104689D01*
X151546Y104732D01*
X151483Y104786D01*
X151427Y104846D01*
X151383Y104871D01*
X151343Y104905D01*
X151268Y104937D01*
X151197Y104977D01*
X151146Y104989D01*
X151099Y105009D01*
X151017Y105017D01*
X150937Y105035D01*
X150886Y105031D01*
X150834Y105036D01*
X150754Y105020D01*
X150672Y105014D01*
X150624Y104994D01*
X150574Y104984D01*
X150530Y104957D01*
X150425Y104915D01*
X150286Y104802D01*
X150248Y104777D01*
X149994Y104523D01*
X149981Y104506D01*
X149965Y104493D01*
X149903Y104399D01*
X149836Y104309D01*
X149829Y104289D01*
X149818Y104272D01*
X149808Y104227D01*
X149749Y104058D01*
X149745Y103945D01*
X149734Y103895D01*
X149734Y98179D01*
X147814Y96259D01*
X147783Y96218D01*
X147745Y96182D01*
X147705Y96111D01*
X147656Y96045D01*
X147639Y95996D01*
X147613Y95952D01*
X147596Y95872D01*
X147569Y95794D01*
X147567Y95742D01*
X147556Y95692D01*
X147562Y95610D01*
X147559Y95528D01*
X147573Y95479D01*
X147577Y95427D01*
X147608Y95351D01*
X147629Y95272D01*
X147657Y95228D01*
X147676Y95180D01*
X147728Y95117D01*
X147772Y95048D01*
X147811Y95014D01*
X147844Y94974D01*
X147912Y94929D01*
X147975Y94876D01*
X148022Y94855D01*
X148065Y94827D01*
X148115Y94815D01*
X148219Y94771D01*
X148397Y94753D01*
X148442Y94743D01*
X152823Y94743D01*
X152857Y94748D01*
G37*
G36*
X107760Y41151D02*
X107760Y41151D01*
X107777Y41149D01*
X107891Y41171D01*
X108005Y41189D01*
X108021Y41196D01*
X108038Y41199D01*
X108141Y41254D01*
X108245Y41304D01*
X108258Y41316D01*
X108273Y41324D01*
X108354Y41407D01*
X108439Y41486D01*
X108448Y41501D01*
X108460Y41513D01*
X108514Y41616D01*
X108571Y41716D01*
X108575Y41733D01*
X108583Y41749D01*
X108604Y41863D01*
X108629Y41976D01*
X108627Y41993D01*
X108631Y42010D01*
X108617Y42125D01*
X108607Y42241D01*
X108601Y42257D01*
X108599Y42274D01*
X108551Y42380D01*
X108508Y42488D01*
X108497Y42501D01*
X108490Y42517D01*
X108414Y42604D01*
X108341Y42694D01*
X108326Y42704D01*
X108315Y42717D01*
X108278Y42736D01*
X108119Y42841D01*
X108072Y42852D01*
X107440Y43217D01*
X106967Y43690D01*
X106632Y44269D01*
X106459Y44915D01*
X106459Y50501D01*
X111389Y50501D01*
X111490Y50516D01*
X111593Y50524D01*
X111621Y50536D01*
X111652Y50540D01*
X111744Y50585D01*
X111839Y50623D01*
X111863Y50643D01*
X111891Y50656D01*
X111966Y50726D01*
X112046Y50791D01*
X112063Y50817D01*
X112085Y50838D01*
X112136Y50927D01*
X112193Y51012D01*
X112198Y51036D01*
X112217Y51068D01*
X112275Y51328D01*
X112274Y51334D01*
X112275Y51336D01*
X112272Y51368D01*
X112277Y51389D01*
X112277Y51723D01*
X112611Y51723D01*
X112713Y51738D01*
X112815Y51747D01*
X112843Y51758D01*
X112874Y51763D01*
X112966Y51807D01*
X113062Y51846D01*
X113085Y51865D01*
X113113Y51878D01*
X113188Y51949D01*
X113268Y52013D01*
X113285Y52039D01*
X113307Y52060D01*
X113358Y52149D01*
X113415Y52234D01*
X113421Y52258D01*
X113439Y52291D01*
X113497Y52550D01*
X113494Y52588D01*
X113499Y52611D01*
X113499Y61291D01*
X115335Y61291D01*
X115981Y61118D01*
X116560Y60783D01*
X116911Y60432D01*
X116993Y60372D01*
X117072Y60305D01*
X117100Y60293D01*
X117125Y60275D01*
X117222Y60241D01*
X117316Y60201D01*
X117347Y60197D01*
X117376Y60187D01*
X117478Y60184D01*
X117580Y60173D01*
X117611Y60179D01*
X117641Y60178D01*
X117740Y60205D01*
X117841Y60225D01*
X117861Y60238D01*
X117898Y60248D01*
X118122Y60391D01*
X118147Y60420D01*
X118167Y60432D01*
X118437Y60703D01*
X118450Y60719D01*
X118466Y60733D01*
X118528Y60826D01*
X118595Y60917D01*
X118602Y60936D01*
X118613Y60954D01*
X118623Y60998D01*
X118682Y61168D01*
X118686Y61280D01*
X118697Y61331D01*
X118697Y63716D01*
X118694Y63737D01*
X118696Y63758D01*
X118674Y63868D01*
X118657Y63979D01*
X118648Y63998D01*
X118644Y64018D01*
X118620Y64057D01*
X118542Y64218D01*
X118465Y64301D01*
X118437Y64344D01*
X110144Y72637D01*
X110127Y72650D01*
X110114Y72666D01*
X110020Y72728D01*
X109930Y72795D01*
X109910Y72802D01*
X109893Y72813D01*
X109848Y72823D01*
X109679Y72882D01*
X109566Y72886D01*
X109516Y72897D01*
X79404Y72897D01*
X77209Y75092D01*
X71790Y80511D01*
X69595Y82706D01*
X69595Y107107D01*
X69592Y107127D01*
X69594Y107148D01*
X69572Y107259D01*
X69555Y107370D01*
X69546Y107388D01*
X69542Y107409D01*
X69518Y107448D01*
X69440Y107609D01*
X69363Y107691D01*
X69335Y107735D01*
X68071Y108999D01*
X68071Y110786D01*
X68068Y110807D01*
X68070Y110828D01*
X68048Y110938D01*
X68031Y111049D01*
X68022Y111068D01*
X68018Y111088D01*
X67994Y111127D01*
X67916Y111288D01*
X67839Y111371D01*
X67811Y111414D01*
X57012Y122213D01*
X57003Y122220D01*
X56998Y122225D01*
X56992Y122230D01*
X56982Y122242D01*
X56888Y122304D01*
X56798Y122371D01*
X56778Y122378D01*
X56761Y122389D01*
X56716Y122399D01*
X56547Y122458D01*
X56434Y122462D01*
X56384Y122473D01*
X54597Y122473D01*
X53333Y123737D01*
X53316Y123750D01*
X53303Y123766D01*
X53209Y123828D01*
X53119Y123895D01*
X53099Y123902D01*
X53082Y123913D01*
X53037Y123923D01*
X52868Y123982D01*
X52755Y123986D01*
X52705Y123997D01*
X24399Y123997D01*
X24337Y123988D01*
X24275Y123989D01*
X24207Y123968D01*
X24136Y123957D01*
X24080Y123931D01*
X24021Y123913D01*
X23961Y123873D01*
X23896Y123842D01*
X23851Y123799D01*
X23800Y123765D01*
X23772Y123726D01*
X23702Y123660D01*
X23596Y123474D01*
X23578Y123449D01*
X22968Y121976D01*
X20324Y119332D01*
X16870Y117901D01*
X13130Y117901D01*
X9676Y119332D01*
X7032Y121976D01*
X6917Y122255D01*
X6869Y122334D01*
X6829Y122417D01*
X6801Y122447D01*
X6779Y122483D01*
X6710Y122544D01*
X6647Y122612D01*
X6612Y122632D01*
X6581Y122659D01*
X6497Y122698D01*
X6417Y122743D01*
X6376Y122752D01*
X6339Y122769D01*
X6247Y122781D01*
X6157Y122801D01*
X6116Y122798D01*
X6075Y122803D01*
X5984Y122787D01*
X5892Y122780D01*
X5854Y122764D01*
X5813Y122757D01*
X5731Y122715D01*
X5645Y122681D01*
X5613Y122655D01*
X5577Y122636D01*
X5511Y122571D01*
X5439Y122513D01*
X5416Y122479D01*
X5387Y122450D01*
X5343Y122369D01*
X5292Y122292D01*
X5285Y122261D01*
X5260Y122216D01*
X5209Y121955D01*
X5212Y121935D01*
X5208Y121915D01*
X5208Y107285D01*
X5222Y107193D01*
X5227Y107101D01*
X5241Y107063D01*
X5248Y107022D01*
X5288Y106939D01*
X5320Y106852D01*
X5345Y106820D01*
X5363Y106783D01*
X5426Y106715D01*
X5483Y106642D01*
X5516Y106619D01*
X5545Y106588D01*
X5625Y106543D01*
X5700Y106490D01*
X5740Y106477D01*
X5775Y106457D01*
X5866Y106436D01*
X5954Y106408D01*
X5995Y106408D01*
X6035Y106399D01*
X6127Y106406D01*
X6219Y106405D01*
X6259Y106417D01*
X6300Y106420D01*
X6386Y106455D01*
X6474Y106481D01*
X6508Y106504D01*
X6547Y106519D01*
X6618Y106578D01*
X6695Y106629D01*
X6713Y106654D01*
X6753Y106687D01*
X6900Y106908D01*
X6905Y106928D01*
X6917Y106945D01*
X7032Y107224D01*
X9676Y109868D01*
X13130Y111299D01*
X16870Y111299D01*
X20324Y109868D01*
X22968Y107224D01*
X24399Y103770D01*
X24399Y100030D01*
X23578Y98050D01*
X23563Y97989D01*
X23539Y97932D01*
X23532Y97861D01*
X23514Y97792D01*
X23518Y97730D01*
X23512Y97668D01*
X23526Y97598D01*
X23530Y97526D01*
X23551Y97468D01*
X23564Y97407D01*
X23589Y97367D01*
X23623Y97277D01*
X23754Y97108D01*
X23771Y97082D01*
X79443Y41409D01*
X79460Y41396D01*
X79474Y41380D01*
X79567Y41318D01*
X79657Y41251D01*
X79677Y41244D01*
X79695Y41233D01*
X79739Y41223D01*
X79908Y41164D01*
X80021Y41160D01*
X80072Y41149D01*
X107743Y41149D01*
X107760Y41151D01*
G37*
G36*
X77055Y114114D02*
X77055Y114114D01*
X77085Y114113D01*
X77184Y114140D01*
X77285Y114160D01*
X77305Y114173D01*
X77342Y114183D01*
X77566Y114326D01*
X77591Y114355D01*
X77611Y114367D01*
X79035Y115792D01*
X79883Y115792D01*
X79985Y115807D01*
X80087Y115815D01*
X80115Y115827D01*
X80146Y115832D01*
X80238Y115876D01*
X80334Y115914D01*
X80357Y115934D01*
X80385Y115947D01*
X80460Y116017D01*
X80540Y116082D01*
X80557Y116108D01*
X80579Y116129D01*
X80630Y116218D01*
X80687Y116303D01*
X80693Y116327D01*
X80711Y116359D01*
X80769Y116619D01*
X80766Y116657D01*
X80771Y116680D01*
X80771Y117490D01*
X82543Y119261D01*
X82556Y119278D01*
X82572Y119292D01*
X82634Y119385D01*
X82701Y119475D01*
X82708Y119495D01*
X82719Y119513D01*
X82729Y119557D01*
X82788Y119726D01*
X82792Y119839D01*
X82803Y119890D01*
X82803Y122395D01*
X85631Y125223D01*
X88136Y125223D01*
X88157Y125226D01*
X88178Y125224D01*
X88289Y125246D01*
X88399Y125263D01*
X88418Y125272D01*
X88439Y125276D01*
X88477Y125300D01*
X88639Y125378D01*
X88721Y125455D01*
X88765Y125483D01*
X98597Y135315D01*
X98627Y135356D01*
X98665Y135392D01*
X98706Y135463D01*
X98754Y135529D01*
X98771Y135578D01*
X98797Y135622D01*
X98815Y135702D01*
X98842Y135780D01*
X98843Y135832D01*
X98855Y135882D01*
X98848Y135964D01*
X98851Y136046D01*
X98837Y136095D01*
X98833Y136147D01*
X98803Y136223D01*
X98781Y136302D01*
X98753Y136346D01*
X98734Y136394D01*
X98682Y136457D01*
X98638Y136526D01*
X98599Y136560D01*
X98566Y136600D01*
X98498Y136645D01*
X98436Y136698D01*
X98388Y136719D01*
X98345Y136747D01*
X98295Y136759D01*
X98191Y136803D01*
X98013Y136821D01*
X97969Y136831D01*
X94267Y136831D01*
X91439Y139659D01*
X91439Y143817D01*
X91424Y143919D01*
X91416Y144021D01*
X91404Y144049D01*
X91399Y144080D01*
X91355Y144172D01*
X91317Y144268D01*
X91297Y144291D01*
X91284Y144319D01*
X91214Y144394D01*
X91149Y144474D01*
X91123Y144491D01*
X91102Y144513D01*
X91013Y144564D01*
X90928Y144621D01*
X90904Y144627D01*
X90872Y144645D01*
X90612Y144703D01*
X90574Y144700D01*
X90551Y144705D01*
X44442Y144705D01*
X19818Y169329D01*
X19769Y169366D01*
X19725Y169410D01*
X19662Y169444D01*
X19604Y169487D01*
X19546Y169507D01*
X19491Y169537D01*
X19421Y169551D01*
X19353Y169574D01*
X19292Y169576D01*
X19231Y169588D01*
X19183Y169580D01*
X19088Y169583D01*
X18881Y169527D01*
X18850Y169522D01*
X16870Y168701D01*
X13130Y168701D01*
X9676Y170132D01*
X7032Y172776D01*
X6917Y173055D01*
X6869Y173134D01*
X6829Y173217D01*
X6801Y173247D01*
X6779Y173283D01*
X6710Y173344D01*
X6647Y173411D01*
X6612Y173432D01*
X6581Y173459D01*
X6497Y173498D01*
X6417Y173543D01*
X6376Y173552D01*
X6339Y173569D01*
X6247Y173581D01*
X6157Y173601D01*
X6116Y173598D01*
X6075Y173603D01*
X5984Y173587D01*
X5892Y173580D01*
X5854Y173564D01*
X5813Y173557D01*
X5731Y173515D01*
X5645Y173481D01*
X5613Y173455D01*
X5577Y173436D01*
X5511Y173371D01*
X5439Y173313D01*
X5416Y173279D01*
X5387Y173250D01*
X5343Y173169D01*
X5292Y173092D01*
X5285Y173061D01*
X5260Y173016D01*
X5209Y172755D01*
X5212Y172735D01*
X5208Y172715D01*
X5208Y159242D01*
X5226Y159123D01*
X5241Y159003D01*
X5246Y158992D01*
X5248Y158979D01*
X5300Y158871D01*
X5350Y158761D01*
X5358Y158751D01*
X5363Y158740D01*
X5446Y158652D01*
X5526Y158561D01*
X5536Y158555D01*
X5545Y158546D01*
X5649Y158486D01*
X5753Y158423D01*
X5765Y158420D01*
X5775Y158414D01*
X5893Y158388D01*
X6011Y158358D01*
X6023Y158359D01*
X6035Y158356D01*
X6156Y158366D01*
X6276Y158372D01*
X6288Y158377D01*
X6300Y158378D01*
X6412Y158423D01*
X6525Y158465D01*
X6533Y158471D01*
X6547Y158477D01*
X6753Y158644D01*
X6787Y158696D01*
X6815Y158720D01*
X7250Y159319D01*
X8381Y160450D01*
X9675Y161390D01*
X11100Y162116D01*
X12621Y162611D01*
X13223Y162706D01*
X13223Y153589D01*
X13238Y153488D01*
X13246Y153385D01*
X13258Y153357D01*
X13263Y153326D01*
X13307Y153234D01*
X13345Y153139D01*
X13365Y153115D01*
X13378Y153087D01*
X13448Y153012D01*
X13513Y152932D01*
X13539Y152915D01*
X13560Y152893D01*
X13649Y152842D01*
X13734Y152785D01*
X13758Y152780D01*
X13790Y152761D01*
X14050Y152703D01*
X14088Y152706D01*
X14111Y152701D01*
X15001Y152701D01*
X15001Y152699D01*
X14111Y152699D01*
X14009Y152684D01*
X13907Y152675D01*
X13879Y152664D01*
X13848Y152659D01*
X13756Y152615D01*
X13660Y152576D01*
X13637Y152557D01*
X13609Y152544D01*
X13534Y152474D01*
X13454Y152409D01*
X13437Y152383D01*
X13415Y152362D01*
X13364Y152273D01*
X13307Y152188D01*
X13301Y152164D01*
X13283Y152131D01*
X13225Y151872D01*
X13227Y151841D01*
X13225Y151830D01*
X13225Y151823D01*
X13223Y151811D01*
X13223Y142694D01*
X12621Y142789D01*
X11100Y143284D01*
X9675Y144010D01*
X8381Y144950D01*
X7250Y146081D01*
X6815Y146680D01*
X6730Y146766D01*
X6647Y146854D01*
X6637Y146860D01*
X6628Y146869D01*
X6521Y146926D01*
X6417Y146986D01*
X6404Y146989D01*
X6394Y146995D01*
X6275Y147018D01*
X6157Y147044D01*
X6145Y147043D01*
X6133Y147045D01*
X6012Y147032D01*
X5892Y147022D01*
X5881Y147018D01*
X5868Y147016D01*
X5757Y146968D01*
X5645Y146923D01*
X5636Y146915D01*
X5625Y146911D01*
X5533Y146832D01*
X5439Y146756D01*
X5432Y146745D01*
X5423Y146737D01*
X5359Y146635D01*
X5292Y146535D01*
X5289Y146525D01*
X5282Y146512D01*
X5213Y146255D01*
X5216Y146193D01*
X5208Y146158D01*
X5208Y132685D01*
X5222Y132593D01*
X5227Y132501D01*
X5241Y132463D01*
X5248Y132422D01*
X5288Y132339D01*
X5320Y132252D01*
X5345Y132220D01*
X5363Y132183D01*
X5426Y132115D01*
X5483Y132042D01*
X5516Y132019D01*
X5545Y131988D01*
X5625Y131943D01*
X5700Y131890D01*
X5740Y131877D01*
X5775Y131857D01*
X5866Y131836D01*
X5954Y131808D01*
X5995Y131808D01*
X6035Y131799D01*
X6127Y131806D01*
X6219Y131805D01*
X6259Y131817D01*
X6300Y131820D01*
X6386Y131855D01*
X6474Y131881D01*
X6508Y131904D01*
X6547Y131919D01*
X6618Y131978D01*
X6695Y132029D01*
X6713Y132054D01*
X6753Y132087D01*
X6900Y132308D01*
X6905Y132328D01*
X6917Y132345D01*
X7032Y132624D01*
X9676Y135268D01*
X13130Y136699D01*
X16870Y136699D01*
X20324Y135268D01*
X22968Y132624D01*
X23578Y131151D01*
X23610Y131098D01*
X23633Y131040D01*
X23678Y130985D01*
X23715Y130923D01*
X23761Y130882D01*
X23801Y130834D01*
X23860Y130794D01*
X23914Y130747D01*
X23970Y130721D01*
X24022Y130687D01*
X24069Y130676D01*
X24156Y130637D01*
X24368Y130610D01*
X24399Y130603D01*
X52705Y130603D01*
X52725Y130606D01*
X52746Y130604D01*
X52857Y130626D01*
X52968Y130643D01*
X52986Y130652D01*
X53007Y130656D01*
X53046Y130680D01*
X53207Y130758D01*
X53289Y130835D01*
X53333Y130863D01*
X54597Y132127D01*
X58595Y132127D01*
X61423Y129299D01*
X61423Y127512D01*
X61426Y127491D01*
X61424Y127470D01*
X61446Y127360D01*
X61463Y127249D01*
X61472Y127230D01*
X61476Y127210D01*
X61500Y127171D01*
X61578Y127010D01*
X61655Y126927D01*
X61683Y126884D01*
X72482Y116085D01*
X72499Y116072D01*
X72512Y116056D01*
X72606Y115994D01*
X72696Y115927D01*
X72716Y115920D01*
X72733Y115909D01*
X72778Y115899D01*
X72947Y115840D01*
X73060Y115836D01*
X73110Y115825D01*
X74897Y115825D01*
X76355Y114367D01*
X76437Y114306D01*
X76516Y114240D01*
X76544Y114228D01*
X76569Y114210D01*
X76666Y114176D01*
X76760Y114136D01*
X76791Y114132D01*
X76820Y114122D01*
X76922Y114119D01*
X77024Y114108D01*
X77055Y114114D01*
G37*
G36*
X127072Y59640D02*
X127072Y59640D01*
X127103Y59639D01*
X127202Y59666D01*
X127302Y59686D01*
X127322Y59699D01*
X127359Y59709D01*
X127583Y59852D01*
X127608Y59881D01*
X127628Y59894D01*
X128263Y60529D01*
X128317Y60529D01*
X128419Y60544D01*
X128521Y60552D01*
X128549Y60564D01*
X128580Y60569D01*
X128672Y60613D01*
X128768Y60651D01*
X128791Y60671D01*
X128819Y60684D01*
X128894Y60754D01*
X128974Y60819D01*
X128991Y60845D01*
X129013Y60866D01*
X129064Y60955D01*
X129121Y61040D01*
X129127Y61064D01*
X129145Y61096D01*
X129203Y61356D01*
X129200Y61394D01*
X129205Y61417D01*
X129205Y73096D01*
X129202Y73117D01*
X129204Y73138D01*
X129182Y73248D01*
X129165Y73359D01*
X129156Y73378D01*
X129152Y73399D01*
X129128Y73437D01*
X129050Y73599D01*
X128973Y73681D01*
X128945Y73725D01*
X120635Y82035D01*
X120618Y82048D01*
X120604Y82064D01*
X120511Y82126D01*
X120421Y82193D01*
X120401Y82200D01*
X120383Y82211D01*
X120339Y82221D01*
X120170Y82280D01*
X120057Y82284D01*
X120006Y82295D01*
X117501Y82295D01*
X114673Y85123D01*
X114673Y89121D01*
X116445Y90893D01*
X116458Y90910D01*
X116474Y90923D01*
X116536Y91017D01*
X116603Y91107D01*
X116610Y91127D01*
X116621Y91144D01*
X116631Y91189D01*
X116690Y91358D01*
X116694Y91471D01*
X116705Y91521D01*
X116705Y104835D01*
X116702Y104855D01*
X116704Y104876D01*
X116682Y104987D01*
X116665Y105097D01*
X116656Y105116D01*
X116652Y105137D01*
X116628Y105176D01*
X116550Y105337D01*
X116473Y105419D01*
X116445Y105463D01*
X115395Y106513D01*
X115378Y106526D01*
X115365Y106542D01*
X115271Y106604D01*
X115181Y106671D01*
X115161Y106678D01*
X115143Y106689D01*
X115099Y106699D01*
X114930Y106758D01*
X114817Y106762D01*
X114767Y106773D01*
X105410Y106773D01*
X105308Y106758D01*
X105206Y106750D01*
X105178Y106738D01*
X105147Y106733D01*
X105055Y106689D01*
X104959Y106651D01*
X104936Y106631D01*
X104908Y106618D01*
X104833Y106548D01*
X104753Y106483D01*
X104736Y106457D01*
X104714Y106436D01*
X104663Y106347D01*
X104606Y106262D01*
X104600Y106238D01*
X104582Y106206D01*
X104524Y105946D01*
X104527Y105908D01*
X104522Y105885D01*
X104522Y105037D01*
X102829Y103344D01*
X93767Y103344D01*
X92074Y105037D01*
X92074Y114099D01*
X93767Y115792D01*
X102829Y115792D01*
X104522Y114099D01*
X104522Y113759D01*
X104537Y113657D01*
X104545Y113555D01*
X104557Y113526D01*
X104562Y113496D01*
X104606Y113404D01*
X104644Y113308D01*
X104664Y113284D01*
X104677Y113257D01*
X104747Y113182D01*
X104812Y113102D01*
X104838Y113085D01*
X104859Y113062D01*
X104948Y113012D01*
X105033Y112954D01*
X105057Y112949D01*
X105089Y112930D01*
X105349Y112873D01*
X105387Y112876D01*
X105410Y112871D01*
X114259Y112871D01*
X114279Y112874D01*
X114300Y112872D01*
X114411Y112894D01*
X114522Y112910D01*
X114540Y112920D01*
X114561Y112924D01*
X114600Y112948D01*
X114761Y113026D01*
X114843Y113103D01*
X114887Y113131D01*
X116445Y114689D01*
X116458Y114706D01*
X116474Y114719D01*
X116536Y114813D01*
X116603Y114903D01*
X116610Y114923D01*
X116621Y114940D01*
X116631Y114985D01*
X116690Y115154D01*
X116693Y115245D01*
X116703Y115290D01*
X116702Y115303D01*
X116705Y115317D01*
X116705Y120161D01*
X116702Y120182D01*
X116704Y120203D01*
X116682Y120313D01*
X116665Y120424D01*
X116656Y120443D01*
X116652Y120464D01*
X116628Y120502D01*
X116550Y120663D01*
X116473Y120746D01*
X116445Y120789D01*
X116221Y121013D01*
X116221Y128333D01*
X116206Y128435D01*
X116198Y128537D01*
X116186Y128565D01*
X116181Y128596D01*
X116137Y128688D01*
X116099Y128784D01*
X116079Y128807D01*
X116066Y128835D01*
X115996Y128910D01*
X115931Y128990D01*
X115905Y129007D01*
X115884Y129029D01*
X115795Y129080D01*
X115710Y129137D01*
X115686Y129143D01*
X115654Y129161D01*
X115394Y129219D01*
X115356Y129216D01*
X115333Y129221D01*
X108013Y129221D01*
X106971Y130263D01*
X106971Y133641D01*
X106964Y133691D01*
X106965Y133743D01*
X106944Y133822D01*
X106931Y133903D01*
X106909Y133950D01*
X106895Y134000D01*
X106851Y134069D01*
X106816Y134143D01*
X106781Y134180D01*
X106753Y134224D01*
X106690Y134277D01*
X106634Y134337D01*
X106590Y134363D01*
X106550Y134396D01*
X106475Y134428D01*
X106404Y134469D01*
X106353Y134480D01*
X106306Y134500D01*
X106224Y134509D01*
X106144Y134527D01*
X106093Y134522D01*
X106041Y134528D01*
X105961Y134512D01*
X105879Y134505D01*
X105831Y134486D01*
X105781Y134476D01*
X105737Y134448D01*
X105632Y134406D01*
X105493Y134293D01*
X105455Y134269D01*
X92717Y121531D01*
X92704Y121514D01*
X92688Y121500D01*
X92626Y121407D01*
X92559Y121317D01*
X92552Y121297D01*
X92541Y121279D01*
X92531Y121235D01*
X92472Y121066D01*
X92468Y120953D01*
X92457Y120902D01*
X92457Y118397D01*
X89602Y115542D01*
X89541Y115459D01*
X89475Y115381D01*
X89463Y115353D01*
X89445Y115328D01*
X89411Y115231D01*
X89371Y115137D01*
X89367Y115106D01*
X89357Y115077D01*
X89354Y114975D01*
X89343Y114873D01*
X89349Y114842D01*
X89348Y114812D01*
X89375Y114712D01*
X89395Y114612D01*
X89408Y114592D01*
X89418Y114555D01*
X89561Y114331D01*
X89590Y114306D01*
X89602Y114286D01*
X89790Y114099D01*
X89790Y105037D01*
X88097Y103344D01*
X79035Y103344D01*
X77717Y104662D01*
X77676Y104693D01*
X77640Y104731D01*
X77569Y104771D01*
X77503Y104820D01*
X77454Y104837D01*
X77410Y104863D01*
X77330Y104880D01*
X77252Y104907D01*
X77200Y104909D01*
X77150Y104920D01*
X77068Y104914D01*
X76986Y104917D01*
X76937Y104903D01*
X76885Y104899D01*
X76809Y104868D01*
X76730Y104847D01*
X76686Y104819D01*
X76638Y104800D01*
X76575Y104748D01*
X76506Y104704D01*
X76472Y104665D01*
X76432Y104632D01*
X76387Y104564D01*
X76334Y104501D01*
X76313Y104454D01*
X76285Y104411D01*
X76273Y104361D01*
X76229Y104257D01*
X76211Y104079D01*
X76201Y104034D01*
X76201Y99862D01*
X76208Y99811D01*
X76207Y99759D01*
X76228Y99680D01*
X76241Y99599D01*
X76263Y99552D01*
X76277Y99503D01*
X76321Y99433D01*
X76356Y99360D01*
X76391Y99322D01*
X76419Y99278D01*
X76482Y99225D01*
X76538Y99165D01*
X76582Y99140D01*
X76622Y99106D01*
X76697Y99074D01*
X76768Y99033D01*
X76819Y99022D01*
X76866Y99002D01*
X76948Y98993D01*
X77028Y98976D01*
X77079Y98980D01*
X77131Y98974D01*
X77211Y98991D01*
X77293Y98997D01*
X77341Y99016D01*
X77391Y99026D01*
X77435Y99054D01*
X77540Y99096D01*
X77679Y99209D01*
X77717Y99234D01*
X79035Y100552D01*
X88097Y100552D01*
X89790Y98859D01*
X89790Y89797D01*
X87984Y87992D01*
X87923Y87909D01*
X87857Y87831D01*
X87845Y87803D01*
X87827Y87778D01*
X87793Y87681D01*
X87753Y87586D01*
X87749Y87556D01*
X87739Y87527D01*
X87736Y87424D01*
X87725Y87322D01*
X87731Y87292D01*
X87730Y87261D01*
X87757Y87162D01*
X87777Y87061D01*
X87790Y87041D01*
X87800Y87005D01*
X87943Y86780D01*
X87972Y86756D01*
X87984Y86736D01*
X88393Y86327D01*
X88393Y82329D01*
X87083Y81019D01*
X87052Y80978D01*
X87015Y80942D01*
X86974Y80871D01*
X86925Y80805D01*
X86908Y80756D01*
X86883Y80712D01*
X86865Y80632D01*
X86838Y80554D01*
X86836Y80502D01*
X86825Y80452D01*
X86832Y80370D01*
X86829Y80288D01*
X86842Y80239D01*
X86847Y80187D01*
X86877Y80111D01*
X86899Y80032D01*
X86926Y79988D01*
X86946Y79940D01*
X86997Y79877D01*
X87041Y79808D01*
X87081Y79774D01*
X87113Y79734D01*
X87182Y79689D01*
X87244Y79636D01*
X87291Y79615D01*
X87334Y79587D01*
X87385Y79575D01*
X87488Y79531D01*
X87667Y79513D01*
X87711Y79503D01*
X94153Y79503D01*
X94204Y79510D01*
X94255Y79509D01*
X94335Y79530D01*
X94416Y79543D01*
X94462Y79565D01*
X94512Y79579D01*
X94581Y79623D01*
X94655Y79658D01*
X94693Y79693D01*
X94736Y79721D01*
X94789Y79784D01*
X94849Y79840D01*
X94875Y79884D01*
X94908Y79924D01*
X94941Y79999D01*
X94981Y80070D01*
X94992Y80121D01*
X95013Y80168D01*
X95021Y80250D01*
X95039Y80330D01*
X95035Y80381D01*
X95040Y80433D01*
X95024Y80513D01*
X95017Y80595D01*
X94998Y80643D01*
X94988Y80693D01*
X94960Y80737D01*
X94918Y80842D01*
X94805Y80981D01*
X94781Y81019D01*
X93471Y82329D01*
X93471Y86327D01*
X93880Y86736D01*
X93940Y86818D01*
X94007Y86897D01*
X94019Y86925D01*
X94037Y86950D01*
X94071Y87047D01*
X94111Y87141D01*
X94115Y87172D01*
X94125Y87201D01*
X94128Y87303D01*
X94139Y87405D01*
X94133Y87436D01*
X94134Y87466D01*
X94107Y87565D01*
X94087Y87666D01*
X94074Y87686D01*
X94064Y87723D01*
X93921Y87947D01*
X93892Y87972D01*
X93880Y87992D01*
X92074Y89797D01*
X92074Y98859D01*
X93767Y100552D01*
X102829Y100552D01*
X104522Y98859D01*
X104522Y89797D01*
X102716Y87992D01*
X102655Y87909D01*
X102589Y87831D01*
X102577Y87803D01*
X102559Y87778D01*
X102525Y87681D01*
X102485Y87586D01*
X102481Y87556D01*
X102471Y87527D01*
X102468Y87424D01*
X102457Y87322D01*
X102463Y87292D01*
X102462Y87261D01*
X102489Y87162D01*
X102509Y87061D01*
X102522Y87041D01*
X102532Y87005D01*
X102675Y86780D01*
X102704Y86756D01*
X102716Y86736D01*
X103125Y86327D01*
X103125Y82329D01*
X101815Y81019D01*
X101784Y80978D01*
X101747Y80942D01*
X101706Y80871D01*
X101657Y80805D01*
X101640Y80756D01*
X101615Y80712D01*
X101597Y80632D01*
X101570Y80554D01*
X101568Y80502D01*
X101557Y80452D01*
X101564Y80370D01*
X101561Y80288D01*
X101574Y80239D01*
X101579Y80187D01*
X101609Y80111D01*
X101631Y80032D01*
X101658Y79988D01*
X101678Y79940D01*
X101729Y79877D01*
X101773Y79808D01*
X101813Y79774D01*
X101845Y79734D01*
X101914Y79689D01*
X101976Y79636D01*
X102023Y79615D01*
X102066Y79587D01*
X102117Y79575D01*
X102220Y79531D01*
X102399Y79513D01*
X102443Y79503D01*
X112620Y79503D01*
X125303Y66820D01*
X125303Y61331D01*
X125306Y61310D01*
X125304Y61289D01*
X125326Y61179D01*
X125343Y61068D01*
X125352Y61049D01*
X125356Y61028D01*
X125380Y60990D01*
X125458Y60829D01*
X125535Y60746D01*
X125563Y60703D01*
X126372Y59894D01*
X126455Y59833D01*
X126533Y59766D01*
X126561Y59754D01*
X126586Y59736D01*
X126683Y59702D01*
X126777Y59662D01*
X126808Y59659D01*
X126837Y59649D01*
X126939Y59645D01*
X127042Y59634D01*
X127072Y59640D01*
G37*
G36*
X73515Y37346D02*
X73515Y37346D01*
X73567Y37345D01*
X73646Y37366D01*
X73727Y37379D01*
X73774Y37401D01*
X73824Y37415D01*
X73893Y37459D01*
X73967Y37494D01*
X74004Y37529D01*
X74048Y37557D01*
X74101Y37620D01*
X74161Y37676D01*
X74187Y37720D01*
X74220Y37760D01*
X74252Y37835D01*
X74293Y37906D01*
X74304Y37957D01*
X74324Y38004D01*
X74333Y38086D01*
X74351Y38166D01*
X74346Y38217D01*
X74352Y38269D01*
X74336Y38349D01*
X74329Y38431D01*
X74310Y38479D01*
X74300Y38529D01*
X74272Y38573D01*
X74230Y38678D01*
X74117Y38817D01*
X74093Y38855D01*
X19818Y93129D01*
X19768Y93166D01*
X19725Y93210D01*
X19662Y93244D01*
X19604Y93287D01*
X19546Y93307D01*
X19491Y93337D01*
X19421Y93351D01*
X19353Y93374D01*
X19291Y93376D01*
X19231Y93388D01*
X19183Y93380D01*
X19088Y93383D01*
X18881Y93327D01*
X18850Y93322D01*
X16870Y92501D01*
X13130Y92501D01*
X9676Y93932D01*
X7032Y96576D01*
X6917Y96855D01*
X6869Y96934D01*
X6829Y97017D01*
X6801Y97047D01*
X6779Y97083D01*
X6710Y97144D01*
X6647Y97212D01*
X6612Y97232D01*
X6581Y97259D01*
X6497Y97298D01*
X6417Y97343D01*
X6376Y97352D01*
X6339Y97369D01*
X6247Y97381D01*
X6157Y97401D01*
X6116Y97398D01*
X6075Y97403D01*
X5984Y97387D01*
X5892Y97380D01*
X5854Y97364D01*
X5813Y97357D01*
X5731Y97315D01*
X5645Y97281D01*
X5613Y97255D01*
X5577Y97236D01*
X5511Y97171D01*
X5439Y97113D01*
X5416Y97079D01*
X5387Y97050D01*
X5343Y96969D01*
X5292Y96892D01*
X5285Y96861D01*
X5260Y96816D01*
X5209Y96555D01*
X5212Y96535D01*
X5208Y96515D01*
X5208Y86608D01*
X5215Y86557D01*
X5214Y86505D01*
X5235Y86426D01*
X5248Y86345D01*
X5270Y86298D01*
X5284Y86248D01*
X5328Y86179D01*
X5363Y86106D01*
X5399Y86068D01*
X5426Y86024D01*
X5489Y85971D01*
X5545Y85911D01*
X5590Y85886D01*
X5629Y85852D01*
X5704Y85820D01*
X5775Y85779D01*
X5826Y85768D01*
X5873Y85748D01*
X5955Y85739D01*
X6035Y85721D01*
X6086Y85726D01*
X6138Y85720D01*
X6218Y85736D01*
X6300Y85743D01*
X6348Y85762D01*
X6398Y85772D01*
X6442Y85800D01*
X6547Y85842D01*
X6616Y85899D01*
X23357Y85899D01*
X24399Y84857D01*
X24399Y71422D01*
X24402Y71401D01*
X24400Y71380D01*
X24422Y71270D01*
X24439Y71159D01*
X24448Y71140D01*
X24452Y71119D01*
X24476Y71081D01*
X24554Y70919D01*
X24631Y70837D01*
X24659Y70793D01*
X57853Y37599D01*
X57870Y37586D01*
X57884Y37570D01*
X57977Y37508D01*
X58067Y37441D01*
X58087Y37434D01*
X58105Y37423D01*
X58149Y37413D01*
X58318Y37354D01*
X58431Y37350D01*
X58482Y37339D01*
X73465Y37339D01*
X73515Y37346D01*
G37*
%LPC*%
G36*
X100777Y17027D02*
X100777Y17027D01*
X100777Y27791D01*
X105335Y27791D01*
X105981Y27618D01*
X106560Y27283D01*
X107033Y26810D01*
X107368Y26231D01*
X107541Y25585D01*
X107541Y17027D01*
X100777Y17027D01*
G37*
%LPD*%
%LPC*%
G36*
X156777Y17027D02*
X156777Y17027D01*
X156777Y27791D01*
X161335Y27791D01*
X161981Y27618D01*
X162560Y27283D01*
X163033Y26810D01*
X163368Y26231D01*
X163541Y25585D01*
X163541Y17027D01*
X156777Y17027D01*
G37*
%LPD*%
%LPC*%
G36*
X90459Y17027D02*
X90459Y17027D01*
X90459Y25585D01*
X90632Y26231D01*
X90967Y26810D01*
X91440Y27283D01*
X92019Y27618D01*
X92665Y27791D01*
X97223Y27791D01*
X97223Y17027D01*
X90459Y17027D01*
G37*
%LPD*%
%LPC*%
G36*
X146459Y17027D02*
X146459Y17027D01*
X146459Y25585D01*
X146632Y26231D01*
X146967Y26810D01*
X147440Y27283D01*
X148019Y27618D01*
X148665Y27791D01*
X153223Y27791D01*
X153223Y17027D01*
X146459Y17027D01*
G37*
%LPD*%
%LPC*%
G36*
X156777Y237209D02*
X156777Y237209D01*
X156777Y247973D01*
X163541Y247973D01*
X163541Y239415D01*
X163368Y238769D01*
X163033Y238190D01*
X162560Y237717D01*
X161981Y237382D01*
X161335Y237209D01*
X156777Y237209D01*
G37*
%LPD*%
%LPC*%
G36*
X100777Y237209D02*
X100777Y237209D01*
X100777Y247973D01*
X107541Y247973D01*
X107541Y239415D01*
X107368Y238769D01*
X107033Y238190D01*
X106560Y237717D01*
X105981Y237382D01*
X105335Y237209D01*
X100777Y237209D01*
G37*
%LPD*%
%LPC*%
G36*
X148665Y237209D02*
X148665Y237209D01*
X148019Y237382D01*
X147440Y237717D01*
X146967Y238190D01*
X146632Y238769D01*
X146459Y239415D01*
X146459Y247973D01*
X153223Y247973D01*
X153223Y237209D01*
X148665Y237209D01*
G37*
%LPD*%
%LPC*%
G36*
X92665Y237209D02*
X92665Y237209D01*
X92019Y237382D01*
X91440Y237717D01*
X90967Y238190D01*
X90632Y238769D01*
X90459Y239415D01*
X90459Y247973D01*
X97223Y247973D01*
X97223Y237209D01*
X92665Y237209D01*
G37*
%LPD*%
%LPC*%
G36*
X184657Y139285D02*
X184657Y139285D01*
X184657Y150717D01*
X189866Y150717D01*
X189866Y148679D01*
X189617Y147751D01*
X189136Y146918D01*
X188456Y146238D01*
X187646Y145770D01*
X187592Y145727D01*
X187533Y145693D01*
X187489Y145645D01*
X187438Y145604D01*
X187400Y145548D01*
X187353Y145497D01*
X187325Y145438D01*
X187289Y145384D01*
X187269Y145319D01*
X187240Y145257D01*
X187230Y145192D01*
X187211Y145130D01*
X187212Y145062D01*
X187202Y144994D01*
X187212Y144929D01*
X187212Y144864D01*
X187233Y144799D01*
X187244Y144731D01*
X187273Y144673D01*
X187292Y144611D01*
X187331Y144554D01*
X187362Y144493D01*
X187395Y144462D01*
X187443Y144392D01*
X187636Y144241D01*
X187646Y144232D01*
X188456Y143764D01*
X189136Y143084D01*
X189617Y142251D01*
X189866Y141323D01*
X189866Y139285D01*
X184657Y139285D01*
G37*
%LPD*%
%LPC*%
G36*
X175894Y139285D02*
X175894Y139285D01*
X175894Y141323D01*
X176143Y142251D01*
X176624Y143084D01*
X177304Y143764D01*
X178114Y144232D01*
X178168Y144275D01*
X178227Y144309D01*
X178271Y144357D01*
X178322Y144398D01*
X178360Y144454D01*
X178407Y144505D01*
X178434Y144564D01*
X178471Y144617D01*
X178491Y144683D01*
X178520Y144745D01*
X178530Y144810D01*
X178549Y144872D01*
X178548Y144940D01*
X178558Y145008D01*
X178548Y145073D01*
X178548Y145138D01*
X178527Y145203D01*
X178516Y145271D01*
X178487Y145329D01*
X178468Y145391D01*
X178429Y145448D01*
X178398Y145509D01*
X178365Y145540D01*
X178317Y145610D01*
X178124Y145761D01*
X178114Y145770D01*
X177304Y146238D01*
X176624Y146918D01*
X176143Y147751D01*
X175894Y148679D01*
X175894Y150717D01*
X181103Y150717D01*
X181103Y139285D01*
X175894Y139285D01*
G37*
%LPD*%
%LPC*%
G36*
X16777Y154477D02*
X16777Y154477D01*
X16777Y162706D01*
X17379Y162611D01*
X18900Y162116D01*
X20325Y161390D01*
X21619Y160450D01*
X22750Y159319D01*
X23690Y158025D01*
X24416Y156600D01*
X24911Y155079D01*
X25006Y154477D01*
X16777Y154477D01*
G37*
%LPD*%
%LPC*%
G36*
X228994Y205277D02*
X228994Y205277D01*
X229089Y205879D01*
X229584Y207400D01*
X230310Y208825D01*
X231250Y210119D01*
X232381Y211250D01*
X233675Y212190D01*
X235100Y212916D01*
X236621Y213411D01*
X237223Y213506D01*
X237223Y205277D01*
X228994Y205277D01*
G37*
%LPD*%
%LPC*%
G36*
X16777Y150923D02*
X16777Y150923D01*
X25006Y150923D01*
X24911Y150321D01*
X24416Y148800D01*
X23690Y147375D01*
X22750Y146081D01*
X21619Y144950D01*
X20325Y144010D01*
X18900Y143284D01*
X17379Y142789D01*
X16777Y142694D01*
X16777Y150923D01*
G37*
%LPD*%
%LPC*%
G36*
X236621Y193589D02*
X236621Y193589D01*
X235100Y194084D01*
X233675Y194810D01*
X232381Y195750D01*
X231250Y196881D01*
X230310Y198175D01*
X229584Y199600D01*
X229089Y201121D01*
X228994Y201723D01*
X237223Y201723D01*
X237223Y193494D01*
X236621Y193589D01*
G37*
%LPD*%
%LPC*%
G36*
X143499Y214499D02*
X143499Y214499D01*
X143499Y222291D01*
X145335Y222291D01*
X145981Y222118D01*
X146560Y221783D01*
X147033Y221310D01*
X147368Y220731D01*
X147541Y220085D01*
X147541Y214499D01*
X143499Y214499D01*
G37*
%LPD*%
%LPC*%
G36*
X143499Y203709D02*
X143499Y203709D01*
X143499Y211501D01*
X147541Y211501D01*
X147541Y205915D01*
X147368Y205269D01*
X147033Y204690D01*
X146560Y204217D01*
X145981Y203882D01*
X145335Y203709D01*
X143499Y203709D01*
G37*
%LPD*%
%LPC*%
G36*
X106459Y53499D02*
X106459Y53499D01*
X106459Y59085D01*
X106632Y59731D01*
X106967Y60310D01*
X107440Y60783D01*
X108019Y61118D01*
X108665Y61291D01*
X110501Y61291D01*
X110501Y53499D01*
X106459Y53499D01*
G37*
%LPD*%
%LPC*%
G36*
X184657Y154271D02*
X184657Y154271D01*
X184657Y159480D01*
X186695Y159480D01*
X187623Y159231D01*
X188456Y158750D01*
X189136Y158070D01*
X189617Y157237D01*
X189866Y156309D01*
X189866Y154271D01*
X184657Y154271D01*
G37*
%LPD*%
%LPC*%
G36*
X160527Y104487D02*
X160527Y104487D01*
X160527Y109696D01*
X162565Y109696D01*
X163493Y109447D01*
X164326Y108966D01*
X165006Y108286D01*
X165487Y107453D01*
X165736Y106525D01*
X165736Y104487D01*
X160527Y104487D01*
G37*
%LPD*%
%LPC*%
G36*
X184657Y130522D02*
X184657Y130522D01*
X184657Y135731D01*
X189866Y135731D01*
X189866Y133693D01*
X189617Y132765D01*
X189136Y131932D01*
X188456Y131252D01*
X187623Y130771D01*
X186695Y130522D01*
X184657Y130522D01*
G37*
%LPD*%
%LPC*%
G36*
X175894Y154271D02*
X175894Y154271D01*
X175894Y156309D01*
X176143Y157237D01*
X176624Y158070D01*
X177304Y158750D01*
X178137Y159231D01*
X179065Y159480D01*
X181103Y159480D01*
X181103Y154271D01*
X175894Y154271D01*
G37*
%LPD*%
%LPC*%
G36*
X141787Y172194D02*
X141787Y172194D01*
X141787Y177403D01*
X146996Y177403D01*
X146996Y175365D01*
X146747Y174437D01*
X146266Y173604D01*
X145586Y172924D01*
X144753Y172443D01*
X143825Y172194D01*
X141787Y172194D01*
G37*
%LPD*%
%LPC*%
G36*
X179065Y130522D02*
X179065Y130522D01*
X178137Y130771D01*
X177304Y131252D01*
X176624Y131932D01*
X176143Y132765D01*
X175894Y133693D01*
X175894Y135731D01*
X181103Y135731D01*
X181103Y130522D01*
X179065Y130522D01*
G37*
%LPD*%
%LPC*%
G36*
X136195Y172194D02*
X136195Y172194D01*
X135267Y172443D01*
X134434Y172924D01*
X133754Y173604D01*
X133273Y174437D01*
X133024Y175365D01*
X133024Y177403D01*
X138233Y177403D01*
X138233Y172194D01*
X136195Y172194D01*
G37*
%LPD*%
%LPC*%
G36*
X135388Y155138D02*
X135388Y155138D01*
X135388Y160791D01*
X136335Y160791D01*
X136981Y160618D01*
X137560Y160283D01*
X138033Y159810D01*
X138368Y159231D01*
X138541Y158585D01*
X138541Y155138D01*
X135388Y155138D01*
G37*
%LPD*%
%LPC*%
G36*
X182879Y137507D02*
X182879Y137507D01*
X182879Y137509D01*
X182881Y137509D01*
X182881Y137507D01*
X182879Y137507D01*
G37*
%LPD*%
%LPC*%
G36*
X182879Y152493D02*
X182879Y152493D01*
X182879Y152495D01*
X182881Y152495D01*
X182881Y152493D01*
X182879Y152493D01*
G37*
%LPD*%
D10*
X136676Y182514D02*
X143344Y182514D01*
X143344Y175846D01*
X136676Y175846D01*
X136676Y182514D01*
X136676Y177958D02*
X143344Y177958D01*
X143344Y180070D02*
X136676Y180070D01*
X136676Y182182D02*
X143344Y182182D01*
X128104Y182514D02*
X121436Y182514D01*
X128104Y182514D02*
X128104Y175846D01*
X121436Y175846D01*
X121436Y182514D01*
X121436Y177958D02*
X128104Y177958D01*
X128104Y180070D02*
X121436Y180070D01*
X121436Y182182D02*
X128104Y182182D01*
X155416Y106044D02*
X162084Y106044D01*
X162084Y99376D01*
X155416Y99376D01*
X155416Y106044D01*
X155416Y101488D02*
X162084Y101488D01*
X162084Y103600D02*
X155416Y103600D01*
X155416Y105712D02*
X162084Y105712D01*
X146844Y106044D02*
X140176Y106044D01*
X146844Y106044D02*
X146844Y99376D01*
X140176Y99376D01*
X140176Y106044D01*
X140176Y101488D02*
X146844Y101488D01*
X146844Y103600D02*
X140176Y103600D01*
X140176Y105712D02*
X146844Y105712D01*
D11*
X15000Y76500D03*
D12*
X15000Y101900D03*
X15000Y127300D03*
X15000Y152700D03*
X15000Y178100D03*
X15000Y203500D03*
D13*
X142000Y213000D03*
X132000Y213000D03*
X122000Y213000D03*
X112000Y213000D03*
D14*
X99000Y249750D03*
X155000Y249750D03*
D13*
X112000Y52000D03*
X122000Y52000D03*
X132000Y52000D03*
X142000Y52000D03*
D14*
X155000Y15250D03*
X99000Y15250D03*
D11*
X239000Y76500D03*
D12*
X239000Y101900D03*
X239000Y127300D03*
X239000Y152700D03*
X239000Y178100D03*
X239000Y203500D03*
D10*
X80232Y112902D02*
X80232Y106234D01*
X80232Y112902D02*
X86900Y112902D01*
X86900Y106234D01*
X80232Y106234D01*
X80232Y108346D02*
X86900Y108346D01*
X86900Y110458D02*
X80232Y110458D01*
X80232Y112570D02*
X86900Y112570D01*
X80232Y97662D02*
X80232Y90994D01*
X80232Y97662D02*
X86900Y97662D01*
X86900Y90994D01*
X80232Y90994D01*
X80232Y93106D02*
X86900Y93106D01*
X86900Y95218D02*
X80232Y95218D01*
X80232Y97330D02*
X86900Y97330D01*
X94964Y106234D02*
X94964Y112902D01*
X101632Y112902D01*
X101632Y106234D01*
X94964Y106234D01*
X94964Y108346D02*
X101632Y108346D01*
X101632Y110458D02*
X94964Y110458D01*
X94964Y112570D02*
X101632Y112570D01*
X94964Y97662D02*
X94964Y90994D01*
X94964Y97662D02*
X101632Y97662D01*
X101632Y90994D01*
X94964Y90994D01*
X94964Y93106D02*
X101632Y93106D01*
X101632Y95218D02*
X94964Y95218D01*
X94964Y97330D02*
X101632Y97330D01*
X179546Y140842D02*
X186214Y140842D01*
X186214Y134174D01*
X179546Y134174D01*
X179546Y140842D01*
X179546Y136286D02*
X186214Y136286D01*
X186214Y138398D02*
X179546Y138398D01*
X179546Y140510D02*
X186214Y140510D01*
X170974Y140842D02*
X164306Y140842D01*
X170974Y140842D02*
X170974Y134174D01*
X164306Y134174D01*
X164306Y140842D01*
X164306Y136286D02*
X170974Y136286D01*
X170974Y138398D02*
X164306Y138398D01*
X164306Y140510D02*
X170974Y140510D01*
X179546Y155828D02*
X186214Y155828D01*
X186214Y149160D01*
X179546Y149160D01*
X179546Y155828D01*
X179546Y151272D02*
X186214Y151272D01*
X186214Y153384D02*
X179546Y153384D01*
X179546Y155496D02*
X186214Y155496D01*
X170974Y155828D02*
X164306Y155828D01*
X170974Y155828D02*
X170974Y149160D01*
X164306Y149160D01*
X164306Y155828D01*
X164306Y151272D02*
X170974Y151272D01*
X170974Y153384D02*
X164306Y153384D01*
X164306Y155496D02*
X170974Y155496D01*
D15*
X127000Y140000D03*
D16*
X112750Y147500D03*
X112750Y142500D03*
X112750Y137500D03*
X112750Y132500D03*
D17*
X119500Y125750D03*
X124500Y125750D03*
X129500Y125750D03*
X134500Y125750D03*
D16*
X141250Y132500D03*
X141250Y137500D03*
X141250Y142500D03*
X141250Y147500D03*
D17*
X134500Y154250D03*
X129500Y154250D03*
X124500Y154250D03*
X119500Y154250D03*
D18*
X245364Y89662D03*
X245110Y114808D03*
X245110Y139700D03*
X244602Y165862D03*
X245364Y190246D03*
X109220Y84582D03*
X8636Y90170D03*
X8636Y115062D03*
X8890Y139954D03*
X8636Y165608D03*
X8890Y190754D03*
X147320Y156718D03*
D19*
X134500Y154250D02*
X134500Y150201D01*
X134456Y150157D01*
X134456Y147456D01*
X127000Y140000D01*
D18*
X102362Y126492D03*
D19*
X104734Y137500D02*
X112750Y137500D01*
X83566Y116332D02*
X83566Y109568D01*
X87630Y120396D02*
X104734Y137500D01*
X142000Y52000D02*
X142000Y47258D01*
X129286Y34544D02*
X56956Y34544D01*
X129286Y34544D02*
X142000Y47258D01*
X56956Y34544D02*
X15000Y76500D01*
D18*
X87630Y120396D03*
X125342Y94742D03*
D19*
X87630Y120396D02*
X83566Y116332D01*
X125342Y94742D02*
X142000Y78084D01*
X142000Y52000D01*
D18*
X103886Y187706D03*
D19*
X112000Y195820D02*
X112000Y213000D01*
X112000Y195820D02*
X103886Y187706D01*
X119500Y125750D02*
X119500Y112268D01*
X119500Y110490D01*
X119500Y108712D01*
X119500Y107696D01*
X119500Y87122D01*
X132000Y52000D02*
X132000Y47164D01*
X123190Y38354D01*
X78546Y38354D01*
X15000Y101900D01*
X122000Y197438D02*
X122000Y213000D01*
X122000Y197438D02*
X119634Y195072D01*
D18*
X119634Y195072D03*
X119500Y87122D03*
D19*
X132000Y74622D02*
X132000Y52000D01*
X132000Y74622D02*
X119500Y87122D01*
X98298Y109568D02*
X98632Y109902D01*
X99220Y110490D01*
X98632Y109902D01*
X98298Y109568D02*
X117628Y109568D01*
X119500Y107696D01*
X117628Y109568D02*
X119500Y111440D01*
X119500Y112268D01*
X98806Y110076D02*
X98298Y109568D01*
X98806Y110076D02*
X118658Y110076D01*
D18*
X118658Y110076D03*
D19*
X83566Y94328D02*
X83566Y84328D01*
D18*
X83566Y84328D03*
D19*
X98298Y84328D02*
X98298Y94328D01*
D18*
X98298Y84328D03*
D20*
X134500Y111720D02*
X134500Y125750D01*
X134500Y111720D02*
X143510Y102710D01*
X124500Y154250D02*
X124500Y178910D01*
X124770Y179180D01*
D18*
X72898Y110998D03*
D20*
X56596Y127300D01*
X15000Y127300D01*
D18*
X56596Y127300D03*
D20*
X132000Y190500D02*
X132000Y213000D01*
X132000Y190500D02*
X132000Y186944D01*
X132000Y186410D01*
X124770Y179180D01*
X122000Y65452D02*
X122000Y52000D01*
X111252Y76200D02*
X80772Y76200D01*
X111252Y76200D02*
X122000Y65452D01*
X177084Y178100D02*
X239000Y178100D01*
X177084Y178100D02*
X177038Y178054D01*
D18*
X177038Y178054D03*
D20*
X168148Y186944D01*
X135382Y186944D01*
X132000Y186944D01*
X135382Y186944D02*
X132000Y190326D01*
X132000Y190500D01*
X161958Y121158D02*
X143510Y102710D01*
X161958Y121158D02*
X176784Y121158D01*
D18*
X176784Y121158D03*
D20*
X124770Y179180D02*
X91042Y179180D01*
X77470Y165608D01*
D18*
X77470Y165608D03*
D20*
X72898Y84074D02*
X80772Y76200D01*
X72898Y84074D02*
X72898Y110998D01*
D19*
X45600Y147500D02*
X112750Y147500D01*
X45600Y147500D02*
X15000Y178100D01*
X124500Y125750D02*
X124500Y103846D01*
X203648Y91948D02*
X239000Y127300D01*
X136398Y91948D02*
X124500Y103846D01*
X136398Y91948D02*
X203648Y91948D01*
X129500Y107736D02*
X129500Y125750D01*
X129500Y107736D02*
X131826Y105410D01*
D18*
X131826Y105410D03*
D19*
X112750Y142500D02*
X97108Y142500D01*
X96266Y141658D01*
D18*
X96266Y141658D03*
D19*
X156812Y137508D02*
X167640Y137508D01*
X156812Y137508D02*
X156718Y137414D01*
D18*
X156718Y137414D03*
D19*
X151820Y142500D02*
X141250Y142500D01*
X151820Y142500D02*
X156812Y137508D01*
X156812Y152494D02*
X167640Y152494D01*
X156812Y152494D02*
X156718Y152400D01*
D18*
X156718Y152400D03*
D19*
X151818Y147500D02*
X141250Y147500D01*
X151818Y147500D02*
X156718Y152400D01*
M02*
