M48
;GenerationSoftware,Autodesk,EAGLE,9.1.1*%
;CreationDate,2018-08-15T09:49:12Z*%
FMAT,2
ICI,OFF
METRIC,TZ,000.000
T3C0.305
T2C0.889
T1C3.000
%
G90
M71
T1
X2540Y2540
X22860Y2540
T2
X23900Y7650
X1500Y7650
X1500Y10190
X1500Y12730
X1500Y15270
X1500Y17810
X1500Y20350
X23900Y10190
X23900Y12730
X23900Y15270
X23900Y17810
X23900Y20350
T3
X12534Y9474
X10389Y18771
X11963Y19507
X11950Y8712
X11866Y11008
X8357Y8433
X9830Y8433
X7290Y11100
X10922Y8458
X17704Y17805
X17678Y12116
X7747Y16561
X13183Y10541
X9627Y14166
X15672Y13741
X15672Y15240
X24536Y8966
X24511Y11481
X24511Y13970
X24460Y16586
X24536Y19025
X864Y9017
X864Y11506
X889Y13995
X5660Y12730
X864Y16561
X889Y19075
X14732Y15672
X10236Y12649
X8763Y12040
M30