G04 EAGLE Gerber RS-274X export*
G75*
%MOMM*%
%FSLAX34Y34*%
%LPD*%
%AMOC8*
5,1,8,0,0,1.08239X$1,22.5*%
G01*
%ADD10R,1.524000X1.524000*%
%ADD11C,1.524000*%
%ADD12R,0.635000X1.270000*%
%ADD13C,0.203200*%
%ADD14C,0.609600*%
%ADD15C,0.304800*%

G36*
X179537Y97540D02*
X179537Y97540D01*
X179558Y97538D01*
X179669Y97560D01*
X179779Y97577D01*
X179798Y97586D01*
X179819Y97590D01*
X179858Y97614D01*
X180019Y97692D01*
X180101Y97769D01*
X180145Y97797D01*
X230229Y147882D01*
X230266Y147931D01*
X230310Y147975D01*
X230344Y148038D01*
X230387Y148096D01*
X230407Y148154D01*
X230437Y148209D01*
X230451Y148279D01*
X230474Y148347D01*
X230476Y148408D01*
X230488Y148469D01*
X230480Y148517D01*
X230483Y148612D01*
X230427Y148819D01*
X230422Y148850D01*
X229601Y150830D01*
X229601Y154570D01*
X231032Y158024D01*
X233676Y160668D01*
X237130Y162099D01*
X240870Y162099D01*
X244324Y160668D01*
X246968Y158024D01*
X247083Y157745D01*
X247131Y157666D01*
X247171Y157583D01*
X247199Y157553D01*
X247221Y157517D01*
X247290Y157456D01*
X247353Y157388D01*
X247388Y157368D01*
X247419Y157341D01*
X247503Y157302D01*
X247583Y157257D01*
X247624Y157248D01*
X247661Y157231D01*
X247753Y157219D01*
X247843Y157199D01*
X247884Y157202D01*
X247925Y157197D01*
X248016Y157213D01*
X248108Y157220D01*
X248146Y157236D01*
X248187Y157243D01*
X248269Y157285D01*
X248355Y157319D01*
X248387Y157345D01*
X248423Y157364D01*
X248489Y157429D01*
X248561Y157487D01*
X248584Y157521D01*
X248613Y157550D01*
X248657Y157631D01*
X248708Y157708D01*
X248715Y157739D01*
X248740Y157784D01*
X248791Y158045D01*
X248788Y158065D01*
X248792Y158085D01*
X248792Y172715D01*
X248778Y172807D01*
X248773Y172899D01*
X248759Y172937D01*
X248752Y172978D01*
X248712Y173061D01*
X248680Y173148D01*
X248655Y173180D01*
X248637Y173217D01*
X248574Y173285D01*
X248517Y173358D01*
X248484Y173381D01*
X248455Y173412D01*
X248375Y173457D01*
X248300Y173510D01*
X248260Y173523D01*
X248225Y173543D01*
X248134Y173564D01*
X248046Y173592D01*
X248005Y173592D01*
X247965Y173601D01*
X247873Y173594D01*
X247781Y173595D01*
X247741Y173583D01*
X247700Y173580D01*
X247614Y173545D01*
X247526Y173519D01*
X247492Y173496D01*
X247453Y173481D01*
X247382Y173422D01*
X247305Y173371D01*
X247287Y173346D01*
X247247Y173313D01*
X247100Y173092D01*
X247095Y173072D01*
X247083Y173055D01*
X246968Y172776D01*
X244324Y170132D01*
X240870Y168701D01*
X237130Y168701D01*
X233676Y170132D01*
X231032Y172776D01*
X229601Y176230D01*
X229601Y179970D01*
X231032Y183424D01*
X233676Y186068D01*
X237130Y187499D01*
X240870Y187499D01*
X244324Y186068D01*
X246968Y183424D01*
X247083Y183145D01*
X247131Y183066D01*
X247171Y182983D01*
X247199Y182953D01*
X247221Y182917D01*
X247290Y182856D01*
X247353Y182788D01*
X247388Y182768D01*
X247419Y182741D01*
X247503Y182702D01*
X247583Y182657D01*
X247624Y182648D01*
X247661Y182631D01*
X247753Y182619D01*
X247843Y182599D01*
X247884Y182602D01*
X247925Y182597D01*
X248016Y182613D01*
X248108Y182620D01*
X248146Y182636D01*
X248187Y182643D01*
X248269Y182685D01*
X248355Y182719D01*
X248387Y182745D01*
X248423Y182764D01*
X248489Y182829D01*
X248561Y182887D01*
X248584Y182921D01*
X248613Y182950D01*
X248657Y183031D01*
X248708Y183108D01*
X248715Y183139D01*
X248740Y183184D01*
X248791Y183445D01*
X248788Y183465D01*
X248792Y183485D01*
X248792Y196958D01*
X248774Y197077D01*
X248759Y197197D01*
X248754Y197208D01*
X248752Y197221D01*
X248700Y197329D01*
X248650Y197439D01*
X248642Y197449D01*
X248637Y197460D01*
X248554Y197548D01*
X248474Y197639D01*
X248464Y197645D01*
X248455Y197654D01*
X248351Y197714D01*
X248247Y197777D01*
X248235Y197780D01*
X248225Y197786D01*
X248107Y197812D01*
X247989Y197842D01*
X247977Y197841D01*
X247965Y197844D01*
X247844Y197834D01*
X247724Y197828D01*
X247712Y197823D01*
X247700Y197822D01*
X247588Y197777D01*
X247475Y197735D01*
X247467Y197729D01*
X247453Y197723D01*
X247247Y197556D01*
X247213Y197504D01*
X247185Y197480D01*
X246750Y196881D01*
X245619Y195750D01*
X244325Y194810D01*
X242900Y194084D01*
X241379Y193589D01*
X240777Y193494D01*
X240777Y202611D01*
X240762Y202712D01*
X240753Y202815D01*
X240742Y202843D01*
X240737Y202874D01*
X240693Y202966D01*
X240654Y203061D01*
X240635Y203085D01*
X240622Y203113D01*
X240552Y203188D01*
X240487Y203268D01*
X240461Y203285D01*
X240440Y203307D01*
X240351Y203358D01*
X240266Y203415D01*
X240242Y203420D01*
X240210Y203439D01*
X239950Y203497D01*
X239912Y203494D01*
X239889Y203499D01*
X238999Y203499D01*
X238999Y203501D01*
X239889Y203501D01*
X239990Y203516D01*
X240093Y203525D01*
X240121Y203536D01*
X240152Y203541D01*
X240244Y203585D01*
X240339Y203624D01*
X240363Y203643D01*
X240391Y203656D01*
X240466Y203726D01*
X240546Y203791D01*
X240563Y203817D01*
X240585Y203838D01*
X240636Y203927D01*
X240693Y204012D01*
X240699Y204036D01*
X240717Y204069D01*
X240775Y204328D01*
X240772Y204366D01*
X240777Y204389D01*
X240777Y213506D01*
X241379Y213411D01*
X242900Y212916D01*
X244325Y212190D01*
X245619Y211250D01*
X246750Y210119D01*
X247185Y209520D01*
X247270Y209434D01*
X247353Y209346D01*
X247363Y209340D01*
X247372Y209331D01*
X247479Y209274D01*
X247583Y209214D01*
X247596Y209211D01*
X247606Y209205D01*
X247725Y209182D01*
X247843Y209156D01*
X247855Y209157D01*
X247867Y209155D01*
X247988Y209168D01*
X248108Y209178D01*
X248119Y209182D01*
X248132Y209184D01*
X248243Y209232D01*
X248355Y209277D01*
X248364Y209285D01*
X248375Y209289D01*
X248467Y209368D01*
X248561Y209444D01*
X248568Y209455D01*
X248577Y209463D01*
X248641Y209565D01*
X248708Y209665D01*
X248711Y209675D01*
X248718Y209688D01*
X248787Y209945D01*
X248784Y210007D01*
X248792Y210042D01*
X248792Y258904D01*
X248777Y259006D01*
X248769Y259108D01*
X248757Y259136D01*
X248752Y259167D01*
X248708Y259259D01*
X248670Y259355D01*
X248650Y259378D01*
X248637Y259406D01*
X248567Y259481D01*
X248502Y259561D01*
X248476Y259578D01*
X248455Y259600D01*
X248366Y259651D01*
X248281Y259708D01*
X248257Y259714D01*
X248225Y259732D01*
X247965Y259790D01*
X247927Y259787D01*
X247904Y259792D01*
X6096Y259792D01*
X5994Y259777D01*
X5892Y259769D01*
X5864Y259757D01*
X5833Y259752D01*
X5741Y259708D01*
X5645Y259670D01*
X5622Y259650D01*
X5594Y259637D01*
X5519Y259567D01*
X5439Y259502D01*
X5422Y259476D01*
X5400Y259455D01*
X5349Y259366D01*
X5292Y259281D01*
X5286Y259257D01*
X5268Y259225D01*
X5210Y258965D01*
X5213Y258927D01*
X5208Y258904D01*
X5208Y208885D01*
X5222Y208793D01*
X5227Y208701D01*
X5241Y208663D01*
X5248Y208622D01*
X5288Y208539D01*
X5320Y208452D01*
X5345Y208420D01*
X5363Y208383D01*
X5426Y208315D01*
X5483Y208242D01*
X5516Y208219D01*
X5545Y208188D01*
X5625Y208143D01*
X5700Y208090D01*
X5740Y208077D01*
X5775Y208057D01*
X5866Y208036D01*
X5954Y208008D01*
X5995Y208008D01*
X6035Y207999D01*
X6127Y208006D01*
X6219Y208005D01*
X6259Y208017D01*
X6300Y208020D01*
X6386Y208055D01*
X6474Y208081D01*
X6508Y208104D01*
X6547Y208119D01*
X6618Y208178D01*
X6695Y208229D01*
X6713Y208254D01*
X6753Y208287D01*
X6900Y208508D01*
X6905Y208528D01*
X6917Y208545D01*
X7032Y208824D01*
X9676Y211468D01*
X13130Y212899D01*
X16870Y212899D01*
X20324Y211468D01*
X22968Y208824D01*
X23788Y206843D01*
X23820Y206790D01*
X23843Y206732D01*
X23889Y206677D01*
X23926Y206615D01*
X23972Y206574D01*
X24011Y206526D01*
X24071Y206486D01*
X24124Y206439D01*
X24181Y206413D01*
X24232Y206379D01*
X24279Y206368D01*
X24366Y206329D01*
X24578Y206302D01*
X24609Y206295D01*
X98394Y206295D01*
X115063Y189626D01*
X115063Y115451D01*
X115072Y115391D01*
X115071Y115330D01*
X115092Y115260D01*
X115103Y115188D01*
X115129Y115133D01*
X115146Y115075D01*
X115187Y115014D01*
X115218Y114949D01*
X115260Y114904D01*
X115294Y114853D01*
X115350Y114808D01*
X115400Y114755D01*
X115453Y114724D01*
X115500Y114686D01*
X115567Y114659D01*
X115630Y114623D01*
X115690Y114609D01*
X115747Y114587D01*
X115819Y114581D01*
X115890Y114565D01*
X115951Y114570D01*
X116012Y114565D01*
X116083Y114581D01*
X116155Y114587D01*
X116211Y114609D01*
X116271Y114622D01*
X116334Y114658D01*
X116402Y114686D01*
X116449Y114724D01*
X116502Y114754D01*
X116532Y114792D01*
X116608Y114853D01*
X116725Y115028D01*
X116745Y115054D01*
X116749Y115065D01*
X116755Y115074D01*
X116763Y115107D01*
X116827Y115307D01*
X116829Y115404D01*
X116839Y115451D01*
X116839Y190673D01*
X116836Y190693D01*
X116838Y190714D01*
X116816Y190825D01*
X116799Y190936D01*
X116790Y190954D01*
X116786Y190975D01*
X116762Y191014D01*
X116684Y191175D01*
X116607Y191257D01*
X116579Y191301D01*
X114807Y193073D01*
X114807Y197071D01*
X117635Y199899D01*
X121633Y199899D01*
X124461Y197071D01*
X124461Y193073D01*
X122689Y191301D01*
X122676Y191284D01*
X122660Y191271D01*
X122598Y191177D01*
X122531Y191087D01*
X122524Y191067D01*
X122513Y191050D01*
X122503Y191005D01*
X122444Y190836D01*
X122440Y190723D01*
X122429Y190673D01*
X122429Y113499D01*
X122432Y113478D01*
X122430Y113457D01*
X122452Y113347D01*
X122469Y113236D01*
X122478Y113217D01*
X122482Y113197D01*
X122506Y113158D01*
X122584Y112997D01*
X122661Y112915D01*
X122689Y112871D01*
X123485Y112075D01*
X123485Y108034D01*
X123448Y107983D01*
X123431Y107934D01*
X123405Y107890D01*
X123387Y107810D01*
X123360Y107732D01*
X123358Y107681D01*
X123347Y107630D01*
X123354Y107548D01*
X123351Y107466D01*
X123365Y107417D01*
X123369Y107365D01*
X123399Y107289D01*
X123421Y107210D01*
X123449Y107166D01*
X123468Y107118D01*
X123520Y107055D01*
X123563Y106986D01*
X123603Y106952D01*
X123635Y106912D01*
X123704Y106867D01*
X123766Y106814D01*
X123813Y106793D01*
X123856Y106765D01*
X123907Y106753D01*
X124010Y106709D01*
X124189Y106691D01*
X124233Y106681D01*
X126111Y106681D01*
X126213Y106696D01*
X126315Y106704D01*
X126343Y106716D01*
X126374Y106721D01*
X126466Y106765D01*
X126562Y106803D01*
X126585Y106823D01*
X126613Y106836D01*
X126688Y106906D01*
X126768Y106971D01*
X126785Y106997D01*
X126807Y107018D01*
X126858Y107107D01*
X126915Y107192D01*
X126921Y107216D01*
X126939Y107248D01*
X126968Y107378D01*
X129827Y110237D01*
X133825Y110237D01*
X136653Y107409D01*
X136653Y103411D01*
X133825Y100583D01*
X129827Y100583D01*
X129579Y100831D01*
X129562Y100844D01*
X129549Y100860D01*
X129455Y100922D01*
X129365Y100989D01*
X129345Y100996D01*
X129328Y101007D01*
X129283Y101017D01*
X129114Y101076D01*
X129001Y101080D01*
X128951Y101091D01*
X127963Y101091D01*
X127912Y101084D01*
X127861Y101085D01*
X127781Y101064D01*
X127700Y101051D01*
X127654Y101029D01*
X127604Y101015D01*
X127535Y100971D01*
X127461Y100936D01*
X127423Y100901D01*
X127380Y100873D01*
X127327Y100810D01*
X127267Y100754D01*
X127241Y100710D01*
X127208Y100670D01*
X127176Y100595D01*
X127135Y100524D01*
X127124Y100473D01*
X127103Y100426D01*
X127095Y100344D01*
X127077Y100264D01*
X127081Y100213D01*
X127076Y100161D01*
X127092Y100081D01*
X127099Y99999D01*
X127118Y99951D01*
X127128Y99901D01*
X127156Y99857D01*
X127198Y99752D01*
X127311Y99613D01*
X127335Y99575D01*
X129113Y97797D01*
X129130Y97785D01*
X129143Y97768D01*
X129237Y97706D01*
X129327Y97639D01*
X129347Y97632D01*
X129364Y97621D01*
X129409Y97611D01*
X129578Y97552D01*
X129691Y97548D01*
X129741Y97537D01*
X179517Y97537D01*
X179537Y97540D01*
G37*
G36*
X220501Y5222D02*
X220501Y5222D01*
X220593Y5227D01*
X220632Y5241D01*
X220672Y5248D01*
X220755Y5288D01*
X220842Y5320D01*
X220874Y5345D01*
X220912Y5363D01*
X220979Y5426D01*
X221052Y5483D01*
X221076Y5517D01*
X221106Y5545D01*
X221152Y5625D01*
X221205Y5700D01*
X221217Y5740D01*
X221238Y5775D01*
X221258Y5865D01*
X221286Y5953D01*
X221287Y5995D01*
X221296Y6035D01*
X221288Y6127D01*
X221289Y6219D01*
X221277Y6259D01*
X221274Y6300D01*
X221240Y6386D01*
X221213Y6474D01*
X221190Y6508D01*
X221175Y6547D01*
X221117Y6618D01*
X221065Y6695D01*
X221040Y6713D01*
X221007Y6753D01*
X220786Y6900D01*
X220766Y6905D01*
X220749Y6917D01*
X217225Y8376D01*
X211576Y14025D01*
X208519Y21406D01*
X208519Y29394D01*
X211576Y36775D01*
X217225Y42424D01*
X224606Y45481D01*
X232594Y45481D01*
X239975Y42424D01*
X245624Y36775D01*
X247083Y33251D01*
X247114Y33200D01*
X247121Y33181D01*
X247134Y33166D01*
X247171Y33088D01*
X247199Y33058D01*
X247221Y33023D01*
X247290Y32962D01*
X247353Y32894D01*
X247389Y32874D01*
X247419Y32846D01*
X247503Y32808D01*
X247583Y32762D01*
X247624Y32753D01*
X247661Y32736D01*
X247753Y32724D01*
X247843Y32704D01*
X247884Y32708D01*
X247925Y32703D01*
X248016Y32718D01*
X248108Y32726D01*
X248146Y32741D01*
X248187Y32748D01*
X248269Y32791D01*
X248355Y32825D01*
X248387Y32851D01*
X248423Y32870D01*
X248489Y32934D01*
X248561Y32993D01*
X248584Y33027D01*
X248613Y33056D01*
X248657Y33137D01*
X248708Y33214D01*
X248715Y33244D01*
X248740Y33289D01*
X248791Y33550D01*
X248789Y33565D01*
X248790Y33571D01*
X248790Y33578D01*
X248792Y33591D01*
X248792Y66392D01*
X248785Y66443D01*
X248786Y66495D01*
X248765Y66574D01*
X248752Y66655D01*
X248730Y66702D01*
X248716Y66752D01*
X248672Y66821D01*
X248637Y66894D01*
X248601Y66932D01*
X248574Y66976D01*
X248511Y67029D01*
X248455Y67089D01*
X248410Y67114D01*
X248371Y67148D01*
X248296Y67180D01*
X248225Y67221D01*
X248174Y67232D01*
X248127Y67252D01*
X248045Y67261D01*
X247965Y67279D01*
X247914Y67274D01*
X247862Y67280D01*
X247782Y67264D01*
X247700Y67257D01*
X247652Y67238D01*
X247602Y67228D01*
X247558Y67200D01*
X247453Y67158D01*
X247384Y67101D01*
X230643Y67101D01*
X229601Y68143D01*
X229601Y72817D01*
X229586Y72919D01*
X229578Y73021D01*
X229566Y73049D01*
X229561Y73080D01*
X229517Y73172D01*
X229479Y73268D01*
X229459Y73291D01*
X229446Y73319D01*
X229376Y73394D01*
X229311Y73474D01*
X229285Y73491D01*
X229264Y73513D01*
X229175Y73564D01*
X229090Y73621D01*
X229066Y73627D01*
X229034Y73645D01*
X228774Y73703D01*
X228736Y73700D01*
X228713Y73705D01*
X77790Y73705D01*
X64134Y87361D01*
X64134Y116855D01*
X66032Y118752D01*
X69761Y122481D01*
X69791Y122522D01*
X69829Y122558D01*
X69870Y122629D01*
X69918Y122695D01*
X69935Y122744D01*
X69961Y122788D01*
X69979Y122868D01*
X70006Y122946D01*
X70007Y122998D01*
X70019Y123048D01*
X70012Y123130D01*
X70015Y123212D01*
X70001Y123261D01*
X69997Y123313D01*
X69967Y123389D01*
X69945Y123468D01*
X69917Y123512D01*
X69898Y123560D01*
X69846Y123623D01*
X69802Y123692D01*
X69763Y123726D01*
X69730Y123766D01*
X69662Y123811D01*
X69600Y123864D01*
X69552Y123885D01*
X69509Y123913D01*
X69459Y123925D01*
X69355Y123969D01*
X69177Y123987D01*
X69133Y123997D01*
X60487Y123997D01*
X60466Y123994D01*
X60446Y123996D01*
X60335Y123974D01*
X60224Y123957D01*
X60206Y123948D01*
X60185Y123944D01*
X60146Y123920D01*
X59985Y123842D01*
X59903Y123765D01*
X59859Y123737D01*
X58595Y122473D01*
X54597Y122473D01*
X51769Y125301D01*
X51769Y129299D01*
X54597Y132127D01*
X58595Y132127D01*
X59859Y130863D01*
X59876Y130850D01*
X59889Y130834D01*
X59983Y130772D01*
X60073Y130705D01*
X60093Y130698D01*
X60110Y130687D01*
X60155Y130677D01*
X60324Y130618D01*
X60437Y130614D01*
X60487Y130603D01*
X69684Y130603D01*
X69705Y130606D01*
X69726Y130604D01*
X69836Y130626D01*
X69947Y130643D01*
X69966Y130652D01*
X69986Y130656D01*
X70025Y130680D01*
X70186Y130758D01*
X70269Y130835D01*
X70312Y130863D01*
X73105Y133656D01*
X73166Y133739D01*
X73233Y133817D01*
X73245Y133845D01*
X73263Y133870D01*
X73297Y133967D01*
X73337Y134061D01*
X73340Y134092D01*
X73350Y134121D01*
X73354Y134224D01*
X73364Y134326D01*
X73358Y134356D01*
X73360Y134387D01*
X73333Y134486D01*
X73312Y134586D01*
X73300Y134607D01*
X73290Y134643D01*
X73147Y134868D01*
X73118Y134892D01*
X73105Y134912D01*
X72516Y135501D01*
X72516Y149675D01*
X73648Y150807D01*
X73730Y150839D01*
X73753Y150859D01*
X73781Y150872D01*
X73856Y150942D01*
X73936Y151007D01*
X73953Y151033D01*
X73975Y151054D01*
X74026Y151143D01*
X74083Y151228D01*
X74089Y151252D01*
X74107Y151284D01*
X74165Y151544D01*
X74162Y151582D01*
X74167Y151605D01*
X74167Y161717D01*
X74164Y161737D01*
X74166Y161758D01*
X74144Y161869D01*
X74127Y161980D01*
X74118Y161998D01*
X74114Y162019D01*
X74090Y162058D01*
X74012Y162219D01*
X73935Y162301D01*
X73907Y162345D01*
X72643Y163609D01*
X72643Y167607D01*
X75471Y170435D01*
X79469Y170435D01*
X82297Y167607D01*
X82297Y163609D01*
X81033Y162345D01*
X81020Y162328D01*
X81004Y162315D01*
X80942Y162221D01*
X80875Y162131D01*
X80868Y162111D01*
X80857Y162094D01*
X80847Y162049D01*
X80788Y161880D01*
X80784Y161767D01*
X80773Y161717D01*
X80773Y151605D01*
X80788Y151503D01*
X80796Y151401D01*
X80808Y151373D01*
X80813Y151342D01*
X80857Y151250D01*
X80895Y151154D01*
X80915Y151131D01*
X80928Y151103D01*
X80998Y151028D01*
X81063Y150948D01*
X81089Y150931D01*
X81110Y150909D01*
X81199Y150858D01*
X81284Y150801D01*
X81308Y150795D01*
X81340Y150777D01*
X81600Y150719D01*
X81638Y150722D01*
X81661Y150717D01*
X89510Y150717D01*
X90552Y149675D01*
X90552Y145341D01*
X90567Y145239D01*
X90575Y145137D01*
X90587Y145109D01*
X90592Y145078D01*
X90636Y144986D01*
X90674Y144890D01*
X90694Y144867D01*
X90707Y144839D01*
X90777Y144764D01*
X90842Y144684D01*
X90868Y144667D01*
X90889Y144645D01*
X90978Y144594D01*
X91063Y144537D01*
X91087Y144531D01*
X91119Y144513D01*
X91379Y144455D01*
X91417Y144458D01*
X91440Y144453D01*
X91867Y144453D01*
X91887Y144456D01*
X91908Y144454D01*
X92019Y144476D01*
X92130Y144493D01*
X92148Y144502D01*
X92169Y144506D01*
X92208Y144530D01*
X92369Y144608D01*
X92451Y144685D01*
X92495Y144713D01*
X94267Y146485D01*
X98265Y146485D01*
X101093Y143657D01*
X101093Y139659D01*
X98265Y136831D01*
X94267Y136831D01*
X92495Y138603D01*
X92478Y138616D01*
X92465Y138632D01*
X92371Y138694D01*
X92281Y138761D01*
X92261Y138768D01*
X92244Y138779D01*
X92199Y138789D01*
X92030Y138848D01*
X91917Y138852D01*
X91867Y138863D01*
X91440Y138863D01*
X91338Y138848D01*
X91236Y138840D01*
X91208Y138828D01*
X91177Y138823D01*
X91085Y138779D01*
X90989Y138741D01*
X90966Y138721D01*
X90938Y138708D01*
X90863Y138638D01*
X90783Y138573D01*
X90766Y138547D01*
X90744Y138526D01*
X90693Y138437D01*
X90636Y138352D01*
X90630Y138328D01*
X90612Y138296D01*
X90554Y138036D01*
X90557Y137998D01*
X90552Y137975D01*
X90552Y135501D01*
X89510Y134459D01*
X89281Y134459D01*
X89179Y134444D01*
X89077Y134436D01*
X89049Y134424D01*
X89018Y134419D01*
X88926Y134375D01*
X88830Y134337D01*
X88807Y134317D01*
X88779Y134304D01*
X88704Y134234D01*
X88624Y134169D01*
X88607Y134143D01*
X88585Y134122D01*
X88534Y134033D01*
X88477Y133948D01*
X88471Y133924D01*
X88453Y133892D01*
X88395Y133632D01*
X88398Y133594D01*
X88393Y133571D01*
X88393Y133208D01*
X72525Y117341D01*
X72495Y117300D01*
X72457Y117264D01*
X72416Y117193D01*
X72368Y117127D01*
X72351Y117078D01*
X72325Y117034D01*
X72307Y116954D01*
X72280Y116876D01*
X72279Y116824D01*
X72267Y116774D01*
X72274Y116692D01*
X72271Y116610D01*
X72285Y116561D01*
X72289Y116509D01*
X72319Y116433D01*
X72341Y116354D01*
X72369Y116310D01*
X72388Y116262D01*
X72440Y116199D01*
X72484Y116130D01*
X72523Y116096D01*
X72556Y116056D01*
X72624Y116011D01*
X72686Y115958D01*
X72734Y115937D01*
X72777Y115909D01*
X72827Y115897D01*
X72931Y115853D01*
X73109Y115835D01*
X73153Y115825D01*
X74897Y115825D01*
X76161Y114561D01*
X76178Y114548D01*
X76191Y114532D01*
X76285Y114470D01*
X76375Y114403D01*
X76395Y114396D01*
X76412Y114385D01*
X76457Y114375D01*
X76626Y114316D01*
X76739Y114312D01*
X76789Y114301D01*
X84755Y114301D01*
X84806Y114308D01*
X84857Y114307D01*
X84937Y114328D01*
X85018Y114341D01*
X85064Y114363D01*
X85114Y114377D01*
X85183Y114421D01*
X85257Y114456D01*
X85295Y114491D01*
X85338Y114519D01*
X85391Y114582D01*
X85451Y114638D01*
X85477Y114682D01*
X85510Y114722D01*
X85543Y114797D01*
X85583Y114868D01*
X85594Y114919D01*
X85615Y114966D01*
X85623Y115048D01*
X85641Y115128D01*
X85637Y115179D01*
X85642Y115231D01*
X85626Y115311D01*
X85619Y115393D01*
X85600Y115441D01*
X85590Y115491D01*
X85562Y115535D01*
X85520Y115640D01*
X85407Y115779D01*
X85383Y115817D01*
X82803Y118397D01*
X82803Y122395D01*
X85631Y125223D01*
X89629Y125223D01*
X91401Y123451D01*
X91418Y123438D01*
X91431Y123422D01*
X91525Y123360D01*
X91615Y123293D01*
X91635Y123286D01*
X91652Y123275D01*
X91697Y123265D01*
X91866Y123206D01*
X91979Y123202D01*
X92029Y123191D01*
X104775Y123191D01*
X104877Y123206D01*
X104979Y123214D01*
X105007Y123226D01*
X105038Y123231D01*
X105130Y123275D01*
X105226Y123313D01*
X105249Y123333D01*
X105277Y123346D01*
X105352Y123416D01*
X105432Y123481D01*
X105449Y123507D01*
X105471Y123528D01*
X105522Y123617D01*
X105579Y123702D01*
X105585Y123726D01*
X105603Y123758D01*
X105661Y124018D01*
X105658Y124056D01*
X105663Y124079D01*
X105663Y181608D01*
X105660Y181629D01*
X105662Y181650D01*
X105640Y181760D01*
X105623Y181871D01*
X105614Y181890D01*
X105610Y181911D01*
X105586Y181949D01*
X105508Y182111D01*
X105431Y182193D01*
X105403Y182237D01*
X105021Y182619D01*
X105014Y182624D01*
X105012Y182626D01*
X105003Y182632D01*
X104990Y182648D01*
X104897Y182710D01*
X104807Y182777D01*
X104787Y182784D01*
X104769Y182795D01*
X104725Y182805D01*
X104556Y182864D01*
X104443Y182868D01*
X104392Y182879D01*
X101887Y182879D01*
X99059Y185707D01*
X99059Y189705D01*
X101887Y192533D01*
X102107Y192533D01*
X102157Y192540D01*
X102209Y192539D01*
X102288Y192560D01*
X102369Y192573D01*
X102416Y192595D01*
X102466Y192609D01*
X102535Y192653D01*
X102609Y192688D01*
X102646Y192723D01*
X102690Y192751D01*
X102743Y192814D01*
X102803Y192870D01*
X102829Y192914D01*
X102862Y192954D01*
X102894Y193029D01*
X102935Y193100D01*
X102946Y193151D01*
X102966Y193198D01*
X102975Y193280D01*
X102993Y193360D01*
X102988Y193411D01*
X102994Y193463D01*
X102978Y193543D01*
X102971Y193625D01*
X102952Y193673D01*
X102942Y193723D01*
X102914Y193767D01*
X102872Y193872D01*
X102759Y194011D01*
X102735Y194049D01*
X96339Y200445D01*
X96322Y200458D01*
X96308Y200474D01*
X96215Y200536D01*
X96125Y200603D01*
X96105Y200610D01*
X96087Y200621D01*
X96043Y200631D01*
X95874Y200690D01*
X95761Y200694D01*
X95710Y200705D01*
X24609Y200705D01*
X24548Y200696D01*
X24486Y200697D01*
X24417Y200676D01*
X24346Y200665D01*
X24290Y200638D01*
X24231Y200621D01*
X24171Y200581D01*
X24107Y200550D01*
X24062Y200507D01*
X24010Y200473D01*
X23982Y200434D01*
X23913Y200368D01*
X23806Y200182D01*
X23788Y200157D01*
X22968Y198176D01*
X20324Y195532D01*
X16870Y194101D01*
X13130Y194101D01*
X9676Y195532D01*
X7032Y198176D01*
X6917Y198455D01*
X6869Y198534D01*
X6829Y198617D01*
X6801Y198647D01*
X6779Y198683D01*
X6710Y198744D01*
X6647Y198812D01*
X6612Y198832D01*
X6581Y198859D01*
X6497Y198898D01*
X6417Y198943D01*
X6376Y198952D01*
X6339Y198969D01*
X6247Y198981D01*
X6157Y199001D01*
X6116Y198998D01*
X6075Y199003D01*
X5984Y198987D01*
X5892Y198980D01*
X5854Y198964D01*
X5813Y198957D01*
X5731Y198915D01*
X5645Y198881D01*
X5613Y198855D01*
X5577Y198836D01*
X5511Y198771D01*
X5439Y198713D01*
X5416Y198679D01*
X5387Y198650D01*
X5343Y198569D01*
X5292Y198492D01*
X5285Y198461D01*
X5260Y198416D01*
X5209Y198155D01*
X5212Y198135D01*
X5208Y198115D01*
X5208Y183485D01*
X5222Y183393D01*
X5227Y183301D01*
X5241Y183263D01*
X5248Y183222D01*
X5288Y183139D01*
X5320Y183052D01*
X5345Y183020D01*
X5363Y182983D01*
X5426Y182915D01*
X5483Y182842D01*
X5516Y182819D01*
X5545Y182788D01*
X5625Y182743D01*
X5700Y182690D01*
X5740Y182677D01*
X5775Y182657D01*
X5866Y182636D01*
X5954Y182608D01*
X5995Y182608D01*
X6035Y182599D01*
X6127Y182606D01*
X6219Y182605D01*
X6259Y182617D01*
X6300Y182620D01*
X6386Y182655D01*
X6474Y182681D01*
X6508Y182704D01*
X6547Y182719D01*
X6618Y182778D01*
X6695Y182829D01*
X6713Y182854D01*
X6753Y182887D01*
X6900Y183108D01*
X6905Y183128D01*
X6917Y183145D01*
X7032Y183424D01*
X9676Y186068D01*
X13130Y187499D01*
X16870Y187499D01*
X20324Y186068D01*
X22968Y183424D01*
X24399Y179970D01*
X24399Y176230D01*
X22968Y172776D01*
X20324Y170132D01*
X16870Y168701D01*
X13130Y168701D01*
X9676Y170132D01*
X7032Y172776D01*
X6917Y173055D01*
X6869Y173134D01*
X6829Y173217D01*
X6801Y173247D01*
X6779Y173283D01*
X6710Y173344D01*
X6647Y173412D01*
X6612Y173432D01*
X6581Y173459D01*
X6497Y173498D01*
X6417Y173543D01*
X6376Y173552D01*
X6339Y173569D01*
X6247Y173581D01*
X6157Y173601D01*
X6116Y173598D01*
X6075Y173603D01*
X5984Y173587D01*
X5892Y173580D01*
X5854Y173564D01*
X5813Y173557D01*
X5731Y173515D01*
X5645Y173481D01*
X5613Y173455D01*
X5577Y173436D01*
X5511Y173371D01*
X5439Y173313D01*
X5416Y173279D01*
X5387Y173250D01*
X5343Y173169D01*
X5292Y173092D01*
X5285Y173061D01*
X5260Y173016D01*
X5209Y172755D01*
X5212Y172735D01*
X5208Y172715D01*
X5208Y159242D01*
X5226Y159123D01*
X5241Y159003D01*
X5246Y158992D01*
X5248Y158979D01*
X5300Y158871D01*
X5350Y158761D01*
X5358Y158751D01*
X5363Y158740D01*
X5446Y158652D01*
X5526Y158561D01*
X5536Y158555D01*
X5545Y158546D01*
X5649Y158486D01*
X5753Y158423D01*
X5765Y158420D01*
X5775Y158414D01*
X5893Y158388D01*
X6011Y158358D01*
X6023Y158359D01*
X6035Y158356D01*
X6156Y158366D01*
X6276Y158372D01*
X6288Y158377D01*
X6300Y158378D01*
X6412Y158423D01*
X6525Y158465D01*
X6533Y158471D01*
X6547Y158477D01*
X6753Y158644D01*
X6787Y158696D01*
X6815Y158720D01*
X7250Y159319D01*
X8381Y160450D01*
X9675Y161390D01*
X11100Y162116D01*
X12621Y162611D01*
X13223Y162706D01*
X13223Y153589D01*
X13238Y153488D01*
X13246Y153385D01*
X13258Y153357D01*
X13263Y153326D01*
X13307Y153234D01*
X13345Y153139D01*
X13365Y153115D01*
X13378Y153087D01*
X13448Y153012D01*
X13513Y152932D01*
X13539Y152915D01*
X13560Y152893D01*
X13649Y152842D01*
X13734Y152785D01*
X13758Y152780D01*
X13790Y152761D01*
X14050Y152703D01*
X14088Y152706D01*
X14111Y152701D01*
X15001Y152701D01*
X15001Y152699D01*
X14111Y152699D01*
X14009Y152684D01*
X13907Y152675D01*
X13879Y152664D01*
X13848Y152659D01*
X13756Y152615D01*
X13660Y152576D01*
X13637Y152557D01*
X13609Y152544D01*
X13534Y152474D01*
X13454Y152409D01*
X13437Y152383D01*
X13415Y152362D01*
X13364Y152273D01*
X13307Y152188D01*
X13301Y152164D01*
X13283Y152131D01*
X13225Y151872D01*
X13227Y151841D01*
X13225Y151830D01*
X13225Y151823D01*
X13223Y151811D01*
X13223Y142694D01*
X12621Y142789D01*
X11100Y143284D01*
X9675Y144010D01*
X8381Y144950D01*
X7250Y146081D01*
X6815Y146680D01*
X6730Y146766D01*
X6647Y146854D01*
X6637Y146860D01*
X6628Y146869D01*
X6521Y146926D01*
X6417Y146986D01*
X6404Y146989D01*
X6394Y146995D01*
X6275Y147018D01*
X6157Y147044D01*
X6145Y147043D01*
X6133Y147045D01*
X6012Y147032D01*
X5892Y147022D01*
X5881Y147018D01*
X5868Y147016D01*
X5757Y146968D01*
X5645Y146923D01*
X5636Y146915D01*
X5625Y146911D01*
X5533Y146832D01*
X5439Y146756D01*
X5432Y146745D01*
X5423Y146737D01*
X5359Y146635D01*
X5292Y146535D01*
X5289Y146525D01*
X5282Y146512D01*
X5213Y146255D01*
X5216Y146193D01*
X5208Y146158D01*
X5208Y132685D01*
X5222Y132593D01*
X5227Y132501D01*
X5241Y132463D01*
X5248Y132422D01*
X5288Y132339D01*
X5320Y132252D01*
X5345Y132220D01*
X5363Y132183D01*
X5426Y132115D01*
X5483Y132042D01*
X5516Y132019D01*
X5545Y131988D01*
X5625Y131943D01*
X5700Y131890D01*
X5740Y131877D01*
X5775Y131857D01*
X5866Y131836D01*
X5954Y131808D01*
X5995Y131808D01*
X6035Y131799D01*
X6127Y131806D01*
X6219Y131805D01*
X6259Y131817D01*
X6300Y131820D01*
X6386Y131855D01*
X6474Y131881D01*
X6508Y131904D01*
X6547Y131919D01*
X6618Y131978D01*
X6695Y132029D01*
X6713Y132054D01*
X6753Y132087D01*
X6900Y132308D01*
X6905Y132328D01*
X6917Y132345D01*
X7032Y132624D01*
X9676Y135268D01*
X13130Y136699D01*
X16870Y136699D01*
X20324Y135268D01*
X22968Y132624D01*
X24399Y129170D01*
X24399Y125430D01*
X22968Y121976D01*
X20324Y119332D01*
X16870Y117901D01*
X13130Y117901D01*
X9676Y119332D01*
X7032Y121976D01*
X6917Y122255D01*
X6869Y122334D01*
X6829Y122417D01*
X6801Y122447D01*
X6779Y122483D01*
X6710Y122544D01*
X6647Y122612D01*
X6612Y122632D01*
X6581Y122659D01*
X6497Y122698D01*
X6417Y122743D01*
X6376Y122752D01*
X6339Y122769D01*
X6247Y122781D01*
X6157Y122801D01*
X6116Y122798D01*
X6075Y122803D01*
X5984Y122787D01*
X5892Y122780D01*
X5854Y122764D01*
X5813Y122757D01*
X5731Y122715D01*
X5645Y122681D01*
X5613Y122655D01*
X5577Y122636D01*
X5511Y122571D01*
X5439Y122513D01*
X5416Y122479D01*
X5387Y122450D01*
X5343Y122369D01*
X5292Y122292D01*
X5285Y122261D01*
X5260Y122216D01*
X5209Y121955D01*
X5212Y121935D01*
X5208Y121915D01*
X5208Y107285D01*
X5222Y107193D01*
X5227Y107101D01*
X5241Y107063D01*
X5248Y107022D01*
X5288Y106939D01*
X5320Y106852D01*
X5345Y106820D01*
X5363Y106783D01*
X5426Y106715D01*
X5483Y106642D01*
X5516Y106619D01*
X5545Y106588D01*
X5625Y106543D01*
X5700Y106490D01*
X5740Y106477D01*
X5775Y106457D01*
X5866Y106436D01*
X5954Y106408D01*
X5995Y106408D01*
X6035Y106399D01*
X6127Y106406D01*
X6219Y106405D01*
X6259Y106417D01*
X6300Y106420D01*
X6386Y106455D01*
X6474Y106481D01*
X6508Y106504D01*
X6547Y106519D01*
X6618Y106578D01*
X6695Y106629D01*
X6713Y106654D01*
X6753Y106687D01*
X6900Y106908D01*
X6905Y106928D01*
X6917Y106945D01*
X7032Y107224D01*
X9676Y109868D01*
X13130Y111299D01*
X16870Y111299D01*
X20324Y109868D01*
X22968Y107224D01*
X24399Y103770D01*
X24399Y100030D01*
X22968Y96576D01*
X20324Y93932D01*
X16870Y92501D01*
X13130Y92501D01*
X9676Y93932D01*
X7032Y96576D01*
X6917Y96855D01*
X6869Y96934D01*
X6829Y97017D01*
X6801Y97047D01*
X6779Y97083D01*
X6710Y97144D01*
X6647Y97212D01*
X6612Y97232D01*
X6581Y97259D01*
X6497Y97298D01*
X6417Y97343D01*
X6376Y97352D01*
X6339Y97369D01*
X6247Y97381D01*
X6157Y97401D01*
X6116Y97398D01*
X6075Y97403D01*
X5984Y97387D01*
X5892Y97380D01*
X5854Y97364D01*
X5813Y97357D01*
X5731Y97315D01*
X5645Y97281D01*
X5613Y97255D01*
X5577Y97236D01*
X5511Y97171D01*
X5439Y97113D01*
X5416Y97079D01*
X5387Y97050D01*
X5343Y96969D01*
X5292Y96892D01*
X5285Y96861D01*
X5260Y96816D01*
X5209Y96555D01*
X5212Y96535D01*
X5208Y96515D01*
X5208Y86608D01*
X5215Y86557D01*
X5214Y86505D01*
X5235Y86426D01*
X5248Y86345D01*
X5270Y86298D01*
X5284Y86248D01*
X5328Y86179D01*
X5363Y86106D01*
X5399Y86068D01*
X5426Y86024D01*
X5489Y85971D01*
X5545Y85911D01*
X5590Y85886D01*
X5629Y85852D01*
X5704Y85820D01*
X5775Y85779D01*
X5826Y85768D01*
X5873Y85748D01*
X5955Y85739D01*
X6035Y85721D01*
X6086Y85726D01*
X6138Y85720D01*
X6218Y85736D01*
X6300Y85743D01*
X6348Y85762D01*
X6398Y85772D01*
X6442Y85800D01*
X6547Y85842D01*
X6616Y85899D01*
X23357Y85899D01*
X24399Y84857D01*
X24399Y68143D01*
X23357Y67101D01*
X6626Y67101D01*
X6576Y67129D01*
X6510Y67178D01*
X6461Y67195D01*
X6417Y67221D01*
X6337Y67239D01*
X6259Y67266D01*
X6207Y67267D01*
X6157Y67279D01*
X6075Y67272D01*
X5993Y67275D01*
X5944Y67261D01*
X5892Y67257D01*
X5816Y67226D01*
X5737Y67205D01*
X5693Y67177D01*
X5645Y67158D01*
X5582Y67106D01*
X5513Y67062D01*
X5479Y67023D01*
X5439Y66990D01*
X5394Y66922D01*
X5341Y66860D01*
X5320Y66812D01*
X5292Y66769D01*
X5280Y66719D01*
X5236Y66615D01*
X5218Y66437D01*
X5208Y66392D01*
X5208Y33591D01*
X5222Y33499D01*
X5227Y33407D01*
X5241Y33368D01*
X5248Y33328D01*
X5288Y33245D01*
X5320Y33158D01*
X5345Y33126D01*
X5363Y33088D01*
X5426Y33021D01*
X5483Y32948D01*
X5517Y32924D01*
X5545Y32894D01*
X5625Y32848D01*
X5700Y32795D01*
X5740Y32783D01*
X5775Y32762D01*
X5865Y32742D01*
X5953Y32714D01*
X5995Y32713D01*
X6035Y32704D01*
X6127Y32712D01*
X6219Y32711D01*
X6259Y32723D01*
X6300Y32726D01*
X6386Y32760D01*
X6474Y32787D01*
X6508Y32810D01*
X6547Y32825D01*
X6618Y32883D01*
X6695Y32935D01*
X6713Y32960D01*
X6753Y32993D01*
X6900Y33214D01*
X6905Y33234D01*
X6917Y33251D01*
X8376Y36775D01*
X14025Y42424D01*
X21406Y45481D01*
X29394Y45481D01*
X36775Y42424D01*
X42424Y36775D01*
X45481Y29394D01*
X45481Y21406D01*
X42424Y14025D01*
X36775Y8376D01*
X33251Y6917D01*
X33172Y6869D01*
X33088Y6829D01*
X33058Y6801D01*
X33023Y6779D01*
X32962Y6710D01*
X32894Y6647D01*
X32874Y6611D01*
X32846Y6581D01*
X32808Y6497D01*
X32762Y6417D01*
X32753Y6376D01*
X32736Y6339D01*
X32724Y6247D01*
X32704Y6157D01*
X32708Y6116D01*
X32703Y6075D01*
X32718Y5984D01*
X32726Y5892D01*
X32741Y5854D01*
X32748Y5813D01*
X32791Y5731D01*
X32825Y5645D01*
X32851Y5613D01*
X32870Y5577D01*
X32934Y5511D01*
X32993Y5439D01*
X33027Y5416D01*
X33056Y5387D01*
X33137Y5343D01*
X33214Y5292D01*
X33244Y5285D01*
X33289Y5260D01*
X33550Y5209D01*
X33570Y5212D01*
X33591Y5208D01*
X220409Y5208D01*
X220501Y5222D01*
G37*
G36*
X228815Y79310D02*
X228815Y79310D01*
X228917Y79318D01*
X228945Y79330D01*
X228976Y79335D01*
X229068Y79379D01*
X229164Y79417D01*
X229187Y79437D01*
X229215Y79450D01*
X229290Y79520D01*
X229370Y79585D01*
X229387Y79611D01*
X229409Y79632D01*
X229460Y79721D01*
X229517Y79806D01*
X229523Y79830D01*
X229541Y79862D01*
X229599Y80122D01*
X229596Y80160D01*
X229601Y80183D01*
X229601Y84857D01*
X230643Y85899D01*
X247374Y85899D01*
X247424Y85871D01*
X247490Y85822D01*
X247539Y85805D01*
X247583Y85779D01*
X247663Y85761D01*
X247741Y85734D01*
X247793Y85733D01*
X247843Y85721D01*
X247925Y85728D01*
X248007Y85725D01*
X248056Y85739D01*
X248108Y85743D01*
X248184Y85774D01*
X248263Y85795D01*
X248307Y85823D01*
X248355Y85842D01*
X248418Y85894D01*
X248487Y85938D01*
X248521Y85977D01*
X248561Y86010D01*
X248606Y86078D01*
X248659Y86140D01*
X248680Y86188D01*
X248708Y86231D01*
X248720Y86281D01*
X248764Y86385D01*
X248782Y86563D01*
X248792Y86608D01*
X248792Y96515D01*
X248778Y96607D01*
X248773Y96699D01*
X248759Y96737D01*
X248752Y96778D01*
X248712Y96861D01*
X248680Y96948D01*
X248655Y96980D01*
X248637Y97017D01*
X248574Y97085D01*
X248517Y97158D01*
X248484Y97181D01*
X248455Y97212D01*
X248375Y97257D01*
X248300Y97310D01*
X248260Y97323D01*
X248225Y97343D01*
X248134Y97364D01*
X248046Y97392D01*
X248005Y97392D01*
X247965Y97401D01*
X247873Y97394D01*
X247781Y97395D01*
X247741Y97383D01*
X247700Y97380D01*
X247614Y97345D01*
X247526Y97319D01*
X247492Y97296D01*
X247453Y97281D01*
X247382Y97222D01*
X247305Y97171D01*
X247287Y97146D01*
X247247Y97113D01*
X247100Y96892D01*
X247095Y96872D01*
X247083Y96855D01*
X246968Y96576D01*
X244324Y93932D01*
X240870Y92501D01*
X237130Y92501D01*
X233676Y93932D01*
X231032Y96576D01*
X230212Y98557D01*
X230180Y98610D01*
X230157Y98668D01*
X230111Y98723D01*
X230074Y98785D01*
X230028Y98826D01*
X229989Y98874D01*
X229929Y98914D01*
X229876Y98961D01*
X229819Y98987D01*
X229768Y99021D01*
X229721Y99032D01*
X229634Y99071D01*
X229422Y99098D01*
X229391Y99105D01*
X195114Y99105D01*
X195093Y99102D01*
X195072Y99104D01*
X194962Y99082D01*
X194851Y99065D01*
X194832Y99056D01*
X194811Y99052D01*
X194773Y99028D01*
X194612Y98950D01*
X194529Y98873D01*
X194486Y98845D01*
X179968Y84327D01*
X123899Y84327D01*
X123879Y84324D01*
X123858Y84326D01*
X123747Y84304D01*
X123636Y84287D01*
X123618Y84278D01*
X123597Y84274D01*
X123558Y84250D01*
X123397Y84172D01*
X123315Y84095D01*
X123271Y84067D01*
X121499Y82295D01*
X117501Y82295D01*
X114673Y85123D01*
X114673Y89121D01*
X117714Y92162D01*
X117775Y92244D01*
X117841Y92323D01*
X117853Y92351D01*
X117871Y92376D01*
X117905Y92473D01*
X117945Y92567D01*
X117949Y92598D01*
X117959Y92627D01*
X117962Y92729D01*
X117973Y92831D01*
X117967Y92862D01*
X117968Y92892D01*
X117941Y92991D01*
X117921Y93092D01*
X117908Y93112D01*
X117898Y93149D01*
X117755Y93373D01*
X117726Y93398D01*
X117714Y93418D01*
X105663Y105468D01*
X105663Y116713D01*
X105648Y116815D01*
X105640Y116917D01*
X105628Y116945D01*
X105623Y116976D01*
X105579Y117068D01*
X105541Y117164D01*
X105521Y117187D01*
X105508Y117215D01*
X105438Y117290D01*
X105373Y117370D01*
X105347Y117387D01*
X105326Y117409D01*
X105237Y117460D01*
X105152Y117517D01*
X105128Y117523D01*
X105096Y117541D01*
X104836Y117599D01*
X104798Y117596D01*
X104775Y117601D01*
X92029Y117601D01*
X92008Y117598D01*
X91988Y117600D01*
X91877Y117578D01*
X91766Y117561D01*
X91748Y117552D01*
X91727Y117548D01*
X91688Y117524D01*
X91527Y117446D01*
X91445Y117369D01*
X91401Y117341D01*
X89688Y115628D01*
X89628Y115546D01*
X89561Y115468D01*
X89549Y115439D01*
X89531Y115415D01*
X89497Y115318D01*
X89457Y115223D01*
X89454Y115192D01*
X89443Y115163D01*
X89440Y115061D01*
X89429Y114959D01*
X89435Y114929D01*
X89434Y114898D01*
X89461Y114799D01*
X89481Y114698D01*
X89494Y114678D01*
X89504Y114641D01*
X89647Y114417D01*
X89676Y114392D01*
X89688Y114372D01*
X94235Y109826D01*
X94235Y105885D01*
X94250Y105783D01*
X94258Y105681D01*
X94270Y105653D01*
X94275Y105622D01*
X94319Y105530D01*
X94357Y105434D01*
X94377Y105411D01*
X94390Y105383D01*
X94460Y105308D01*
X94525Y105228D01*
X94551Y105211D01*
X94572Y105189D01*
X94661Y105138D01*
X94746Y105081D01*
X94770Y105075D01*
X94802Y105057D01*
X95062Y104999D01*
X95100Y105002D01*
X95123Y104997D01*
X102972Y104997D01*
X104014Y103955D01*
X104014Y89781D01*
X102972Y88739D01*
X102857Y88739D01*
X102806Y88732D01*
X102755Y88733D01*
X102675Y88712D01*
X102594Y88699D01*
X102548Y88677D01*
X102498Y88663D01*
X102429Y88619D01*
X102355Y88584D01*
X102317Y88549D01*
X102274Y88521D01*
X102221Y88458D01*
X102161Y88402D01*
X102135Y88358D01*
X102102Y88318D01*
X102069Y88243D01*
X102029Y88172D01*
X102018Y88121D01*
X101997Y88074D01*
X101989Y87992D01*
X101971Y87912D01*
X101975Y87861D01*
X101970Y87809D01*
X101986Y87729D01*
X101993Y87647D01*
X102012Y87599D01*
X102022Y87549D01*
X102050Y87505D01*
X102092Y87400D01*
X102205Y87261D01*
X102229Y87223D01*
X103125Y86327D01*
X103125Y82329D01*
X101607Y80811D01*
X101576Y80770D01*
X101539Y80734D01*
X101498Y80663D01*
X101449Y80597D01*
X101432Y80548D01*
X101407Y80504D01*
X101389Y80424D01*
X101362Y80346D01*
X101360Y80294D01*
X101349Y80244D01*
X101356Y80162D01*
X101353Y80080D01*
X101366Y80031D01*
X101371Y79979D01*
X101401Y79903D01*
X101423Y79824D01*
X101450Y79780D01*
X101470Y79732D01*
X101521Y79669D01*
X101565Y79600D01*
X101605Y79566D01*
X101637Y79526D01*
X101706Y79481D01*
X101768Y79428D01*
X101815Y79407D01*
X101858Y79379D01*
X101909Y79367D01*
X102012Y79323D01*
X102191Y79305D01*
X102235Y79295D01*
X228713Y79295D01*
X228815Y79310D01*
G37*
%LPC*%
G36*
X174785Y116331D02*
X174785Y116331D01*
X171957Y119159D01*
X171957Y123157D01*
X172853Y124053D01*
X172884Y124094D01*
X172921Y124130D01*
X172962Y124201D01*
X173011Y124267D01*
X173028Y124316D01*
X173053Y124360D01*
X173071Y124440D01*
X173098Y124518D01*
X173100Y124570D01*
X173111Y124620D01*
X173104Y124702D01*
X173107Y124784D01*
X173094Y124833D01*
X173089Y124885D01*
X173059Y124961D01*
X173037Y125040D01*
X173010Y125084D01*
X172990Y125132D01*
X172939Y125195D01*
X172895Y125264D01*
X172855Y125298D01*
X172823Y125338D01*
X172754Y125383D01*
X172692Y125436D01*
X172645Y125457D01*
X172602Y125485D01*
X172551Y125497D01*
X172448Y125541D01*
X172269Y125559D01*
X172225Y125569D01*
X164744Y125569D01*
X163702Y126611D01*
X163702Y130015D01*
X163687Y130117D01*
X163679Y130219D01*
X163667Y130247D01*
X163662Y130278D01*
X163618Y130370D01*
X163580Y130466D01*
X163560Y130489D01*
X163547Y130517D01*
X163477Y130592D01*
X163412Y130672D01*
X163386Y130689D01*
X163365Y130711D01*
X163276Y130762D01*
X163191Y130819D01*
X163167Y130825D01*
X163135Y130843D01*
X162875Y130901D01*
X162837Y130898D01*
X162814Y130903D01*
X159276Y130903D01*
X157853Y132327D01*
X157836Y132340D01*
X157822Y132356D01*
X157729Y132418D01*
X157639Y132485D01*
X157619Y132492D01*
X157601Y132503D01*
X157557Y132513D01*
X157388Y132572D01*
X157275Y132576D01*
X157224Y132587D01*
X154719Y132587D01*
X151891Y135415D01*
X151891Y139413D01*
X154719Y142241D01*
X158717Y142241D01*
X161545Y139413D01*
X161545Y137381D01*
X161560Y137279D01*
X161568Y137177D01*
X161580Y137149D01*
X161585Y137118D01*
X161629Y137026D01*
X161667Y136930D01*
X161687Y136907D01*
X161700Y136879D01*
X161770Y136804D01*
X161835Y136724D01*
X161861Y136707D01*
X161882Y136685D01*
X161971Y136634D01*
X162056Y136577D01*
X162080Y136571D01*
X162112Y136553D01*
X162372Y136495D01*
X162410Y136498D01*
X162433Y136493D01*
X162814Y136493D01*
X162916Y136508D01*
X163018Y136516D01*
X163046Y136528D01*
X163077Y136533D01*
X163169Y136577D01*
X163265Y136615D01*
X163288Y136635D01*
X163316Y136648D01*
X163391Y136718D01*
X163471Y136783D01*
X163488Y136809D01*
X163510Y136830D01*
X163561Y136919D01*
X163618Y137004D01*
X163624Y137028D01*
X163642Y137060D01*
X163700Y137320D01*
X163697Y137358D01*
X163702Y137381D01*
X163702Y140785D01*
X164744Y141827D01*
X172765Y141827D01*
X172867Y141842D01*
X172969Y141850D01*
X172997Y141862D01*
X173028Y141867D01*
X173120Y141911D01*
X173216Y141949D01*
X173239Y141969D01*
X173267Y141982D01*
X173342Y142052D01*
X173422Y142117D01*
X173439Y142143D01*
X173461Y142164D01*
X173512Y142253D01*
X173569Y142338D01*
X173575Y142362D01*
X173593Y142394D01*
X173651Y142654D01*
X173648Y142692D01*
X173653Y142715D01*
X173653Y146851D01*
X173638Y146953D01*
X173630Y147055D01*
X173618Y147083D01*
X173613Y147114D01*
X173569Y147206D01*
X173531Y147302D01*
X173511Y147325D01*
X173498Y147353D01*
X173428Y147428D01*
X173363Y147508D01*
X173337Y147525D01*
X173316Y147547D01*
X173227Y147598D01*
X173142Y147655D01*
X173118Y147661D01*
X173086Y147679D01*
X172826Y147737D01*
X172788Y147734D01*
X172765Y147739D01*
X164916Y147739D01*
X163874Y148781D01*
X163874Y152185D01*
X163859Y152287D01*
X163851Y152389D01*
X163839Y152417D01*
X163834Y152448D01*
X163790Y152540D01*
X163752Y152636D01*
X163732Y152659D01*
X163719Y152687D01*
X163649Y152762D01*
X163584Y152842D01*
X163558Y152859D01*
X163537Y152881D01*
X163448Y152932D01*
X163363Y152989D01*
X163339Y152995D01*
X163307Y153013D01*
X163047Y153071D01*
X163009Y153068D01*
X162986Y153073D01*
X162433Y153073D01*
X162331Y153058D01*
X162229Y153050D01*
X162201Y153038D01*
X162170Y153033D01*
X162078Y152989D01*
X161982Y152951D01*
X161959Y152931D01*
X161931Y152918D01*
X161856Y152848D01*
X161776Y152783D01*
X161759Y152757D01*
X161737Y152736D01*
X161686Y152647D01*
X161629Y152562D01*
X161623Y152538D01*
X161605Y152506D01*
X161547Y152246D01*
X161550Y152208D01*
X161545Y152185D01*
X161545Y150401D01*
X158717Y147573D01*
X154719Y147573D01*
X151891Y150401D01*
X151891Y154399D01*
X154719Y157227D01*
X157224Y157227D01*
X157245Y157230D01*
X157266Y157228D01*
X157376Y157250D01*
X157487Y157267D01*
X157506Y157276D01*
X157527Y157280D01*
X157565Y157304D01*
X157727Y157382D01*
X157809Y157459D01*
X157853Y157487D01*
X159028Y158663D01*
X162986Y158663D01*
X163088Y158678D01*
X163190Y158686D01*
X163218Y158698D01*
X163249Y158703D01*
X163341Y158747D01*
X163437Y158785D01*
X163460Y158805D01*
X163488Y158818D01*
X163563Y158888D01*
X163643Y158953D01*
X163660Y158979D01*
X163682Y159000D01*
X163733Y159089D01*
X163790Y159174D01*
X163796Y159198D01*
X163814Y159230D01*
X163872Y159490D01*
X163869Y159528D01*
X163874Y159551D01*
X163874Y162955D01*
X164916Y163997D01*
X172765Y163997D01*
X172867Y164012D01*
X172969Y164020D01*
X172997Y164032D01*
X173028Y164037D01*
X173120Y164081D01*
X173216Y164119D01*
X173239Y164139D01*
X173267Y164152D01*
X173342Y164222D01*
X173422Y164287D01*
X173439Y164313D01*
X173461Y164334D01*
X173512Y164423D01*
X173569Y164508D01*
X173575Y164532D01*
X173593Y164564D01*
X173651Y164824D01*
X173648Y164862D01*
X173653Y164885D01*
X173653Y174245D01*
X173650Y174266D01*
X173652Y174286D01*
X173630Y174397D01*
X173613Y174508D01*
X173604Y174526D01*
X173600Y174547D01*
X173576Y174586D01*
X173498Y174747D01*
X173421Y174829D01*
X173393Y174873D01*
X172211Y176055D01*
X172211Y180053D01*
X175039Y182881D01*
X179037Y182881D01*
X181865Y180053D01*
X181865Y176055D01*
X180519Y174709D01*
X180506Y174692D01*
X180490Y174679D01*
X180428Y174585D01*
X180361Y174495D01*
X180354Y174475D01*
X180343Y174458D01*
X180333Y174413D01*
X180274Y174244D01*
X180270Y174131D01*
X180259Y174081D01*
X180259Y164885D01*
X180274Y164783D01*
X180282Y164681D01*
X180294Y164653D01*
X180299Y164622D01*
X180343Y164530D01*
X180381Y164434D01*
X180401Y164411D01*
X180414Y164383D01*
X180484Y164308D01*
X180549Y164228D01*
X180575Y164211D01*
X180596Y164189D01*
X180685Y164138D01*
X180770Y164081D01*
X180788Y164077D01*
X181910Y162955D01*
X181910Y148781D01*
X180778Y147649D01*
X180696Y147617D01*
X180673Y147597D01*
X180645Y147584D01*
X180570Y147514D01*
X180490Y147449D01*
X180473Y147423D01*
X180451Y147402D01*
X180400Y147313D01*
X180343Y147228D01*
X180337Y147204D01*
X180319Y147172D01*
X180261Y146912D01*
X180264Y146874D01*
X180259Y146851D01*
X180259Y142632D01*
X180262Y142611D01*
X180260Y142590D01*
X180282Y142480D01*
X180299Y142369D01*
X180308Y142350D01*
X180312Y142329D01*
X180336Y142291D01*
X180414Y142130D01*
X180491Y142047D01*
X180519Y142004D01*
X181738Y140785D01*
X181738Y126611D01*
X180575Y125449D01*
X180514Y125366D01*
X180448Y125288D01*
X180436Y125260D01*
X180418Y125235D01*
X180384Y125138D01*
X180344Y125043D01*
X180340Y125013D01*
X180330Y124984D01*
X180327Y124881D01*
X180316Y124779D01*
X180322Y124749D01*
X180321Y124718D01*
X180348Y124619D01*
X180368Y124518D01*
X180381Y124498D01*
X180391Y124462D01*
X180534Y124237D01*
X180562Y124213D01*
X180575Y124193D01*
X181611Y123157D01*
X181611Y119159D01*
X178783Y116331D01*
X174785Y116331D01*
G37*
%LPD*%
G36*
X229452Y104704D02*
X229452Y104704D01*
X229514Y104703D01*
X229583Y104724D01*
X229654Y104735D01*
X229710Y104762D01*
X229769Y104779D01*
X229829Y104819D01*
X229893Y104850D01*
X229938Y104893D01*
X229990Y104927D01*
X230018Y104966D01*
X230087Y105032D01*
X230194Y105218D01*
X230212Y105243D01*
X231032Y107224D01*
X233676Y109868D01*
X237130Y111299D01*
X240870Y111299D01*
X244324Y109868D01*
X246968Y107224D01*
X247083Y106945D01*
X247131Y106866D01*
X247171Y106783D01*
X247199Y106753D01*
X247221Y106717D01*
X247290Y106656D01*
X247353Y106588D01*
X247388Y106568D01*
X247419Y106541D01*
X247503Y106502D01*
X247583Y106457D01*
X247624Y106448D01*
X247661Y106431D01*
X247753Y106419D01*
X247843Y106399D01*
X247884Y106402D01*
X247925Y106397D01*
X248016Y106413D01*
X248108Y106420D01*
X248146Y106436D01*
X248187Y106443D01*
X248269Y106485D01*
X248355Y106519D01*
X248387Y106545D01*
X248423Y106564D01*
X248489Y106629D01*
X248561Y106687D01*
X248584Y106721D01*
X248613Y106750D01*
X248657Y106831D01*
X248708Y106908D01*
X248715Y106939D01*
X248740Y106984D01*
X248791Y107245D01*
X248788Y107265D01*
X248792Y107285D01*
X248792Y121915D01*
X248778Y122007D01*
X248773Y122099D01*
X248759Y122137D01*
X248752Y122178D01*
X248712Y122261D01*
X248680Y122348D01*
X248655Y122380D01*
X248637Y122417D01*
X248574Y122485D01*
X248517Y122558D01*
X248484Y122581D01*
X248455Y122612D01*
X248375Y122657D01*
X248300Y122710D01*
X248260Y122723D01*
X248225Y122743D01*
X248134Y122764D01*
X248046Y122792D01*
X248005Y122792D01*
X247965Y122801D01*
X247873Y122794D01*
X247781Y122795D01*
X247741Y122783D01*
X247700Y122780D01*
X247614Y122745D01*
X247526Y122719D01*
X247492Y122696D01*
X247453Y122681D01*
X247382Y122622D01*
X247305Y122571D01*
X247287Y122546D01*
X247247Y122513D01*
X247100Y122292D01*
X247095Y122272D01*
X247083Y122255D01*
X246968Y121976D01*
X244324Y119332D01*
X240870Y117901D01*
X237130Y117901D01*
X233676Y119332D01*
X231032Y121976D01*
X229601Y125430D01*
X229601Y129170D01*
X231032Y132624D01*
X233676Y135268D01*
X237130Y136699D01*
X240870Y136699D01*
X244324Y135268D01*
X246968Y132624D01*
X247083Y132345D01*
X247131Y132266D01*
X247171Y132183D01*
X247199Y132153D01*
X247221Y132117D01*
X247290Y132056D01*
X247353Y131988D01*
X247388Y131968D01*
X247419Y131941D01*
X247503Y131902D01*
X247583Y131857D01*
X247624Y131848D01*
X247661Y131831D01*
X247753Y131819D01*
X247843Y131799D01*
X247884Y131802D01*
X247925Y131797D01*
X248016Y131813D01*
X248108Y131820D01*
X248146Y131836D01*
X248187Y131843D01*
X248269Y131885D01*
X248355Y131919D01*
X248387Y131945D01*
X248423Y131964D01*
X248489Y132029D01*
X248561Y132087D01*
X248584Y132121D01*
X248613Y132150D01*
X248657Y132231D01*
X248708Y132308D01*
X248715Y132339D01*
X248740Y132384D01*
X248791Y132645D01*
X248788Y132665D01*
X248792Y132685D01*
X248792Y147315D01*
X248778Y147407D01*
X248773Y147499D01*
X248759Y147537D01*
X248752Y147578D01*
X248712Y147661D01*
X248680Y147748D01*
X248655Y147780D01*
X248637Y147817D01*
X248574Y147885D01*
X248517Y147958D01*
X248484Y147981D01*
X248455Y148012D01*
X248375Y148057D01*
X248300Y148110D01*
X248260Y148123D01*
X248225Y148143D01*
X248134Y148164D01*
X248046Y148192D01*
X248005Y148192D01*
X247965Y148201D01*
X247873Y148194D01*
X247781Y148195D01*
X247741Y148183D01*
X247700Y148180D01*
X247614Y148145D01*
X247526Y148119D01*
X247492Y148096D01*
X247453Y148081D01*
X247382Y148022D01*
X247305Y147971D01*
X247287Y147946D01*
X247247Y147913D01*
X247100Y147692D01*
X247095Y147672D01*
X247083Y147655D01*
X246968Y147376D01*
X244324Y144732D01*
X240870Y143301D01*
X237130Y143301D01*
X235150Y144122D01*
X235089Y144137D01*
X235032Y144161D01*
X234961Y144168D01*
X234892Y144186D01*
X234830Y144182D01*
X234768Y144188D01*
X234698Y144174D01*
X234626Y144170D01*
X234568Y144149D01*
X234507Y144136D01*
X234467Y144111D01*
X234377Y144077D01*
X234208Y143946D01*
X234182Y143929D01*
X196463Y106211D01*
X196433Y106170D01*
X196395Y106134D01*
X196354Y106063D01*
X196306Y105997D01*
X196289Y105948D01*
X196263Y105904D01*
X196245Y105824D01*
X196218Y105746D01*
X196217Y105694D01*
X196205Y105644D01*
X196212Y105562D01*
X196209Y105480D01*
X196223Y105431D01*
X196227Y105379D01*
X196257Y105303D01*
X196279Y105224D01*
X196307Y105180D01*
X196326Y105132D01*
X196378Y105069D01*
X196422Y105000D01*
X196461Y104966D01*
X196494Y104926D01*
X196562Y104881D01*
X196624Y104828D01*
X196672Y104807D01*
X196715Y104779D01*
X196765Y104767D01*
X196869Y104723D01*
X197047Y104705D01*
X197091Y104695D01*
X229391Y104695D01*
X229452Y104704D01*
G37*
%LPC*%
G36*
X16777Y154477D02*
X16777Y154477D01*
X16777Y162706D01*
X17379Y162611D01*
X18900Y162116D01*
X20325Y161390D01*
X21619Y160450D01*
X22750Y159319D01*
X23690Y158025D01*
X24416Y156600D01*
X24911Y155079D01*
X25006Y154477D01*
X16777Y154477D01*
G37*
%LPD*%
%LPC*%
G36*
X228994Y205277D02*
X228994Y205277D01*
X229089Y205879D01*
X229584Y207400D01*
X230310Y208825D01*
X231250Y210119D01*
X232381Y211250D01*
X233675Y212190D01*
X235100Y212916D01*
X236621Y213411D01*
X237223Y213506D01*
X237223Y205277D01*
X228994Y205277D01*
G37*
%LPD*%
%LPC*%
G36*
X16777Y150923D02*
X16777Y150923D01*
X25006Y150923D01*
X24911Y150321D01*
X24416Y148800D01*
X23690Y147375D01*
X22750Y146081D01*
X21619Y144950D01*
X20325Y144010D01*
X18900Y143284D01*
X17379Y142789D01*
X16777Y142694D01*
X16777Y150923D01*
G37*
%LPD*%
%LPC*%
G36*
X236621Y193589D02*
X236621Y193589D01*
X235100Y194084D01*
X233675Y194810D01*
X232381Y195750D01*
X231250Y196881D01*
X230310Y198175D01*
X229584Y199600D01*
X229089Y201121D01*
X228994Y201723D01*
X237223Y201723D01*
X237223Y193494D01*
X236621Y193589D01*
G37*
%LPD*%
D10*
X15000Y76500D03*
D11*
X15000Y101900D03*
X15000Y127300D03*
X15000Y152700D03*
X15000Y178100D03*
X15000Y203500D03*
D10*
X239000Y76500D03*
D11*
X239000Y101900D03*
X239000Y127300D03*
X239000Y152700D03*
X239000Y178100D03*
X239000Y203500D03*
D12*
X99060Y96868D03*
X90932Y96868D03*
X82804Y96868D03*
D13*
X90932Y96868D02*
X99314Y96868D01*
X90932Y96868D02*
X82296Y96868D01*
D12*
X168828Y155868D03*
X176956Y155868D03*
X168656Y133698D03*
X176784Y133698D03*
X85598Y142588D03*
X77470Y142588D03*
D13*
X85598Y142588D01*
D14*
X245364Y89662D03*
X245110Y114808D03*
X245110Y139700D03*
X244602Y165862D03*
X245364Y190246D03*
X109220Y84582D03*
X8636Y90170D03*
X8636Y115062D03*
X8890Y139954D03*
X8636Y165608D03*
X8890Y190754D03*
X147320Y156718D03*
X102362Y126492D03*
X87630Y120396D03*
X125342Y94742D03*
D13*
X181042Y94742D02*
X239000Y152700D01*
X181042Y94742D02*
X125342Y94742D01*
D14*
X103886Y187706D03*
D13*
X108458Y183134D01*
X108458Y122428D01*
X108458Y118618D01*
X106426Y120396D02*
X108458Y122428D01*
X106426Y120396D02*
X87630Y120396D01*
X106426Y120396D02*
X106680Y120396D01*
X108458Y118618D01*
X108458Y106626D01*
X120342Y94742D02*
X125342Y94742D01*
X120342Y94742D02*
X108458Y106626D01*
D14*
X119634Y195072D03*
D13*
X119634Y111466D01*
X193588Y101900D02*
X239000Y101900D01*
X178810Y87122D02*
X119500Y87122D01*
D14*
X119500Y87122D03*
D13*
X178810Y87122D02*
X193588Y101900D01*
D14*
X118658Y110076D03*
D13*
X118658Y110490D01*
X119634Y111466D01*
D14*
X83566Y84328D03*
D13*
X83566Y96106D02*
X82804Y96868D01*
X83566Y96106D02*
X83566Y84328D01*
D14*
X98298Y84328D03*
D13*
X98298Y96106D02*
X99060Y96868D01*
X98298Y96106D02*
X98298Y84328D01*
D15*
X90932Y96868D02*
X90932Y108458D01*
X88392Y110998D01*
X72898Y110998D01*
D14*
X72898Y110998D03*
X56596Y127300D03*
D15*
X176956Y133870D02*
X176956Y155868D01*
X176956Y133870D02*
X176784Y133698D01*
D14*
X177038Y178054D03*
D15*
X176956Y177972D01*
X176956Y155868D01*
D14*
X176784Y121158D03*
D15*
X176784Y133698D01*
D14*
X77470Y165608D03*
D15*
X77470Y142588D01*
X77470Y133350D01*
X71420Y127300D02*
X56596Y127300D01*
X71420Y127300D02*
X77470Y133350D01*
D14*
X131826Y105410D03*
D13*
X130302Y103886D01*
X116586Y103886D01*
X112268Y108204D01*
X97236Y203500D02*
X15000Y203500D01*
X112268Y188468D02*
X112268Y108204D01*
X112268Y188468D02*
X97236Y203500D01*
D14*
X96266Y141658D03*
D13*
X86528Y141658D02*
X85598Y142588D01*
X86528Y141658D02*
X96266Y141658D01*
X78948Y76500D02*
X239000Y76500D01*
X85598Y134366D02*
X85598Y142588D01*
X85598Y134366D02*
X66929Y115697D01*
X66929Y88519D01*
X78948Y76500D01*
D14*
X156718Y137414D03*
D13*
X160434Y133698D02*
X168656Y133698D01*
X160434Y133698D02*
X156718Y137414D01*
D14*
X156718Y152400D03*
D13*
X160186Y155868D02*
X168828Y155868D01*
X160186Y155868D02*
X156718Y152400D01*
M02*
