G04 EAGLE Gerber RS-274X export*
G75*
%MOMM*%
%FSLAX34Y34*%
%LPD*%
%AMOC8*
5,1,8,0,0,1.08239X$1,22.5*%
G01*
%ADD10C,0.076200*%
%ADD11C,0.101600*%
%ADD12C,0.254000*%
%ADD13C,0.152400*%
%ADD14C,0.127000*%
%ADD15C,0.400000*%


D10*
X30861Y173101D02*
X33318Y173101D01*
X32090Y173101D02*
X32090Y180473D01*
X33318Y180473D02*
X30861Y180473D01*
X35850Y180473D02*
X35850Y173101D01*
X40765Y173101D02*
X35850Y180473D01*
X40765Y180473D02*
X40765Y173101D01*
X45792Y173101D02*
X45792Y180473D01*
X43335Y180473D02*
X48249Y180473D01*
X33318Y198501D02*
X33318Y205873D01*
X30861Y205873D02*
X35776Y205873D01*
X38345Y205873D02*
X38345Y198501D01*
X38345Y205873D02*
X42031Y205873D01*
X43260Y204645D01*
X43260Y202187D01*
X42031Y200958D01*
X38345Y200958D01*
X40803Y200958D02*
X43260Y198501D01*
X45829Y198501D02*
X48287Y198501D01*
X47058Y198501D02*
X47058Y205873D01*
X45829Y205873D02*
X48287Y205873D01*
X54505Y205873D02*
X55734Y204645D01*
X54505Y205873D02*
X52047Y205873D01*
X50819Y204645D01*
X50819Y199730D01*
X52047Y198501D01*
X54505Y198501D01*
X55734Y199730D01*
X55734Y202187D01*
X53276Y202187D01*
X34547Y155073D02*
X35776Y153845D01*
X34547Y155073D02*
X32090Y155073D01*
X30861Y153845D01*
X30861Y148930D01*
X32090Y147701D01*
X34547Y147701D01*
X35776Y148930D01*
X35776Y151387D01*
X33318Y151387D01*
X38345Y147701D02*
X38345Y155073D01*
X43260Y147701D01*
X43260Y155073D01*
X45829Y155073D02*
X45829Y147701D01*
X49515Y147701D01*
X50744Y148930D01*
X50744Y153845D01*
X49515Y155073D01*
X45829Y155073D01*
X32090Y132213D02*
X30861Y130985D01*
X32090Y132213D02*
X34547Y132213D01*
X35776Y130985D01*
X35776Y129756D01*
X34547Y128527D01*
X33318Y128527D01*
X34547Y128527D02*
X35776Y127298D01*
X35776Y126070D01*
X34547Y124841D01*
X32090Y124841D01*
X30861Y126070D01*
X38345Y127298D02*
X38345Y132213D01*
X38345Y127298D02*
X40803Y124841D01*
X43260Y127298D01*
X43260Y132213D01*
X45829Y130985D02*
X47058Y132213D01*
X49515Y132213D01*
X50744Y130985D01*
X50744Y129756D01*
X49515Y128527D01*
X48287Y128527D01*
X49515Y128527D02*
X50744Y127298D01*
X50744Y126070D01*
X49515Y124841D01*
X47058Y124841D01*
X45829Y126070D01*
X34547Y104273D02*
X35776Y103045D01*
X34547Y104273D02*
X32090Y104273D01*
X30861Y103045D01*
X30861Y101816D01*
X32090Y100587D01*
X34547Y100587D01*
X35776Y99358D01*
X35776Y98130D01*
X34547Y96901D01*
X32090Y96901D01*
X30861Y98130D01*
X38345Y96901D02*
X38345Y104273D01*
X38345Y96901D02*
X42031Y96901D01*
X43260Y98130D01*
X43260Y103045D01*
X42031Y104273D01*
X38345Y104273D01*
X45829Y101816D02*
X45829Y96901D01*
X45829Y101816D02*
X48287Y104273D01*
X50744Y101816D01*
X50744Y96901D01*
X50744Y100587D02*
X45829Y100587D01*
X34547Y78873D02*
X35776Y77645D01*
X34547Y78873D02*
X32090Y78873D01*
X30861Y77645D01*
X30861Y76416D01*
X32090Y75187D01*
X34547Y75187D01*
X35776Y73958D01*
X35776Y72730D01*
X34547Y71501D01*
X32090Y71501D01*
X30861Y72730D01*
X42031Y78873D02*
X43260Y77645D01*
X42031Y78873D02*
X39574Y78873D01*
X38345Y77645D01*
X38345Y72730D01*
X39574Y71501D01*
X42031Y71501D01*
X43260Y72730D01*
X45829Y71501D02*
X45829Y78873D01*
X45829Y71501D02*
X50744Y71501D01*
X212619Y80905D02*
X213848Y79677D01*
X212619Y80905D02*
X210161Y80905D01*
X208933Y79677D01*
X208933Y74762D01*
X210161Y73533D01*
X212619Y73533D01*
X213848Y74762D01*
X220103Y80905D02*
X221332Y79677D01*
X220103Y80905D02*
X217646Y80905D01*
X216417Y79677D01*
X216417Y78448D01*
X217646Y77219D01*
X220103Y77219D01*
X221332Y75990D01*
X221332Y74762D01*
X220103Y73533D01*
X217646Y73533D01*
X216417Y74762D01*
X196459Y98933D02*
X196459Y106305D01*
X198917Y103848D01*
X201374Y106305D01*
X201374Y98933D01*
X205172Y106305D02*
X207629Y106305D01*
X205172Y106305D02*
X203943Y105077D01*
X203943Y100162D01*
X205172Y98933D01*
X207629Y98933D01*
X208858Y100162D01*
X208858Y105077D01*
X207629Y106305D01*
X215114Y106305D02*
X216342Y105077D01*
X215114Y106305D02*
X212656Y106305D01*
X211427Y105077D01*
X211427Y103848D01*
X212656Y102619D01*
X215114Y102619D01*
X216342Y101390D01*
X216342Y100162D01*
X215114Y98933D01*
X212656Y98933D01*
X211427Y100162D01*
X218912Y98933D02*
X221369Y98933D01*
X220140Y98933D02*
X220140Y106305D01*
X218912Y106305D02*
X221369Y106305D01*
X196459Y124333D02*
X196459Y131705D01*
X198917Y129248D01*
X201374Y131705D01*
X201374Y124333D01*
X203943Y124333D02*
X206401Y124333D01*
X205172Y124333D02*
X205172Y131705D01*
X203943Y131705D02*
X206401Y131705D01*
X212619Y131705D02*
X213848Y130477D01*
X212619Y131705D02*
X210161Y131705D01*
X208933Y130477D01*
X208933Y129248D01*
X210161Y128019D01*
X212619Y128019D01*
X213848Y126790D01*
X213848Y125562D01*
X212619Y124333D01*
X210161Y124333D01*
X208933Y125562D01*
X217646Y131705D02*
X220103Y131705D01*
X217646Y131705D02*
X216417Y130477D01*
X216417Y125562D01*
X217646Y124333D01*
X220103Y124333D01*
X221332Y125562D01*
X221332Y130477D01*
X220103Y131705D01*
X198879Y155877D02*
X197651Y157105D01*
X195193Y157105D01*
X193964Y155877D01*
X193964Y154648D01*
X195193Y153419D01*
X197651Y153419D01*
X198879Y152190D01*
X198879Y150962D01*
X197651Y149733D01*
X195193Y149733D01*
X193964Y150962D01*
X205135Y157105D02*
X206363Y155877D01*
X205135Y157105D02*
X202677Y157105D01*
X201449Y155877D01*
X201449Y150962D01*
X202677Y149733D01*
X205135Y149733D01*
X206363Y150962D01*
X208933Y149733D02*
X208933Y157105D01*
X208933Y149733D02*
X213848Y149733D01*
X216417Y149733D02*
X216417Y157105D01*
X216417Y152190D02*
X221332Y157105D01*
X217646Y153419D02*
X221332Y149733D01*
X201449Y181277D02*
X202677Y182505D01*
X205135Y182505D01*
X206363Y181277D01*
X206363Y180048D01*
X205135Y178819D01*
X203906Y178819D01*
X205135Y178819D02*
X206363Y177590D01*
X206363Y176362D01*
X205135Y175133D01*
X202677Y175133D01*
X201449Y176362D01*
X208933Y177590D02*
X208933Y182505D01*
X208933Y177590D02*
X211390Y175133D01*
X213848Y177590D01*
X213848Y182505D01*
X216417Y181277D02*
X217646Y182505D01*
X220103Y182505D01*
X221332Y181277D01*
X221332Y180048D01*
X220103Y178819D01*
X218874Y178819D01*
X220103Y178819D02*
X221332Y177590D01*
X221332Y176362D01*
X220103Y175133D01*
X217646Y175133D01*
X216417Y176362D01*
X206363Y206677D02*
X205135Y207905D01*
X202677Y207905D01*
X201449Y206677D01*
X201449Y201762D01*
X202677Y200533D01*
X205135Y200533D01*
X206363Y201762D01*
X206363Y204219D01*
X203906Y204219D01*
X208933Y200533D02*
X208933Y207905D01*
X213848Y200533D01*
X213848Y207905D01*
X216417Y207905D02*
X216417Y200533D01*
X220103Y200533D01*
X221332Y201762D01*
X221332Y206677D01*
X220103Y207905D01*
X216417Y207905D01*
D11*
X109728Y69095D02*
X109728Y62993D01*
X109728Y69095D02*
X111253Y70620D01*
X114304Y70620D01*
X115829Y69095D01*
X115829Y62993D01*
X114304Y61468D01*
X111253Y61468D01*
X109728Y62993D01*
X112779Y64519D02*
X115829Y61468D01*
X119083Y62993D02*
X119083Y67569D01*
X119083Y62993D02*
X120608Y61468D01*
X122134Y62993D01*
X123659Y61468D01*
X125184Y62993D01*
X125184Y67569D01*
X128438Y67569D02*
X129964Y67569D01*
X129964Y61468D01*
X131489Y61468D02*
X128438Y61468D01*
X129964Y70620D02*
X129964Y72145D01*
X134675Y67569D02*
X136200Y67569D01*
X136200Y61468D01*
X134675Y61468D02*
X137726Y61468D01*
X136200Y70620D02*
X136200Y72145D01*
X142437Y67569D02*
X147013Y67569D01*
X142437Y67569D02*
X140912Y66044D01*
X140912Y62993D01*
X142437Y61468D01*
X147013Y61468D01*
X144272Y195066D02*
X144272Y201167D01*
X144272Y195066D02*
X142747Y193540D01*
X139696Y193540D01*
X138171Y195066D01*
X138171Y201167D01*
X139696Y202692D01*
X142747Y202692D01*
X144272Y201167D01*
X141221Y199641D02*
X138171Y202692D01*
X134917Y201167D02*
X134917Y196591D01*
X134917Y201167D02*
X133392Y202692D01*
X131866Y201167D01*
X130341Y202692D01*
X128816Y201167D01*
X128816Y196591D01*
X125562Y196591D02*
X124036Y196591D01*
X124036Y202692D01*
X122511Y202692D02*
X125562Y202692D01*
X124036Y193540D02*
X124036Y192015D01*
X119325Y196591D02*
X117800Y196591D01*
X117800Y202692D01*
X119325Y202692D02*
X116274Y202692D01*
X117800Y193540D02*
X117800Y192015D01*
X111563Y196591D02*
X106987Y196591D01*
X111563Y196591D02*
X113088Y198116D01*
X113088Y201167D01*
X111563Y202692D01*
X106987Y202692D01*
D12*
X43625Y240443D02*
X32195Y240443D01*
X34735Y237903D01*
X32195Y240443D02*
X34735Y242983D01*
X34989Y243237D02*
X34989Y237649D01*
D13*
X39871Y226473D02*
X41311Y226473D01*
X44192Y229354D01*
X41311Y232235D01*
X39871Y232235D01*
X44192Y229354D02*
X48514Y229354D01*
X35489Y246602D02*
X44133Y252365D01*
X44133Y246602D02*
X35489Y252365D01*
X48761Y254682D02*
X48761Y248920D01*
X48761Y254682D02*
X50201Y254682D01*
X55963Y248920D01*
X57404Y248920D01*
X57404Y254682D01*
D12*
X51245Y240665D02*
X51247Y240736D01*
X51253Y240807D01*
X51263Y240878D01*
X51277Y240948D01*
X51295Y241017D01*
X51316Y241084D01*
X51342Y241151D01*
X51371Y241216D01*
X51403Y241279D01*
X51440Y241341D01*
X51479Y241400D01*
X51522Y241457D01*
X51568Y241511D01*
X51617Y241563D01*
X51669Y241612D01*
X51723Y241658D01*
X51780Y241701D01*
X51839Y241740D01*
X51901Y241777D01*
X51964Y241809D01*
X52029Y241838D01*
X52096Y241864D01*
X52163Y241885D01*
X52232Y241903D01*
X52302Y241917D01*
X52373Y241927D01*
X52444Y241933D01*
X52515Y241935D01*
X52586Y241933D01*
X52657Y241927D01*
X52728Y241917D01*
X52798Y241903D01*
X52867Y241885D01*
X52934Y241864D01*
X53001Y241838D01*
X53066Y241809D01*
X53129Y241777D01*
X53191Y241740D01*
X53250Y241701D01*
X53307Y241658D01*
X53361Y241612D01*
X53413Y241563D01*
X53462Y241511D01*
X53508Y241457D01*
X53551Y241400D01*
X53590Y241341D01*
X53627Y241279D01*
X53659Y241216D01*
X53688Y241151D01*
X53714Y241084D01*
X53735Y241017D01*
X53753Y240948D01*
X53767Y240878D01*
X53777Y240807D01*
X53783Y240736D01*
X53785Y240665D01*
X53783Y240594D01*
X53777Y240523D01*
X53767Y240452D01*
X53753Y240382D01*
X53735Y240313D01*
X53714Y240246D01*
X53688Y240179D01*
X53659Y240114D01*
X53627Y240051D01*
X53590Y239989D01*
X53551Y239930D01*
X53508Y239873D01*
X53462Y239819D01*
X53413Y239767D01*
X53361Y239718D01*
X53307Y239672D01*
X53250Y239629D01*
X53191Y239590D01*
X53129Y239553D01*
X53066Y239521D01*
X53001Y239492D01*
X52934Y239466D01*
X52867Y239445D01*
X52798Y239427D01*
X52728Y239413D01*
X52657Y239403D01*
X52586Y239397D01*
X52515Y239395D01*
X52444Y239397D01*
X52373Y239403D01*
X52302Y239413D01*
X52232Y239427D01*
X52163Y239445D01*
X52096Y239466D01*
X52029Y239492D01*
X51964Y239521D01*
X51901Y239553D01*
X51839Y239590D01*
X51780Y239629D01*
X51723Y239672D01*
X51669Y239718D01*
X51617Y239767D01*
X51568Y239819D01*
X51522Y239873D01*
X51479Y239930D01*
X51440Y239989D01*
X51403Y240051D01*
X51371Y240114D01*
X51342Y240179D01*
X51316Y240246D01*
X51295Y240313D01*
X51277Y240382D01*
X51263Y240452D01*
X51253Y240523D01*
X51247Y240594D01*
X51245Y240665D01*
X47181Y240665D02*
X47183Y240811D01*
X47189Y240956D01*
X47199Y241102D01*
X47213Y241247D01*
X47231Y241391D01*
X47252Y241535D01*
X47278Y241679D01*
X47308Y241821D01*
X47341Y241963D01*
X47379Y242104D01*
X47420Y242244D01*
X47465Y242382D01*
X47514Y242520D01*
X47566Y242656D01*
X47623Y242790D01*
X47682Y242923D01*
X47746Y243054D01*
X47813Y243183D01*
X47884Y243311D01*
X47958Y243436D01*
X48035Y243560D01*
X48116Y243681D01*
X48200Y243800D01*
X48287Y243917D01*
X48377Y244031D01*
X48471Y244143D01*
X48567Y244252D01*
X48667Y244359D01*
X48769Y244462D01*
X48874Y244563D01*
X48982Y244661D01*
X49093Y244756D01*
X49206Y244848D01*
X49321Y244937D01*
X49439Y245023D01*
X49559Y245105D01*
X49682Y245184D01*
X49806Y245260D01*
X49933Y245332D01*
X50061Y245401D01*
X50191Y245466D01*
X50323Y245528D01*
X50457Y245586D01*
X50592Y245640D01*
X50729Y245691D01*
X50867Y245738D01*
X51006Y245781D01*
X51146Y245820D01*
X51288Y245856D01*
X51430Y245887D01*
X51573Y245915D01*
X51717Y245939D01*
X51861Y245959D01*
X52006Y245975D01*
X52151Y245987D01*
X52296Y245995D01*
X52442Y245999D01*
X52588Y245999D01*
X52734Y245995D01*
X52879Y245987D01*
X53024Y245975D01*
X53169Y245959D01*
X53313Y245939D01*
X53457Y245915D01*
X53600Y245887D01*
X53742Y245856D01*
X53884Y245820D01*
X54024Y245781D01*
X54163Y245738D01*
X54301Y245691D01*
X54438Y245640D01*
X54573Y245586D01*
X54707Y245528D01*
X54839Y245466D01*
X54969Y245401D01*
X55097Y245332D01*
X55224Y245260D01*
X55348Y245184D01*
X55471Y245105D01*
X55591Y245023D01*
X55709Y244937D01*
X55824Y244848D01*
X55937Y244756D01*
X56048Y244661D01*
X56156Y244563D01*
X56261Y244462D01*
X56363Y244359D01*
X56463Y244252D01*
X56559Y244143D01*
X56653Y244031D01*
X56743Y243917D01*
X56830Y243800D01*
X56914Y243681D01*
X56995Y243560D01*
X57072Y243436D01*
X57146Y243311D01*
X57217Y243183D01*
X57284Y243054D01*
X57348Y242923D01*
X57407Y242790D01*
X57464Y242656D01*
X57516Y242520D01*
X57565Y242382D01*
X57610Y242244D01*
X57651Y242104D01*
X57689Y241963D01*
X57722Y241821D01*
X57752Y241679D01*
X57778Y241535D01*
X57799Y241391D01*
X57817Y241247D01*
X57831Y241102D01*
X57841Y240956D01*
X57847Y240811D01*
X57849Y240665D01*
X57847Y240519D01*
X57841Y240374D01*
X57831Y240228D01*
X57817Y240083D01*
X57799Y239939D01*
X57778Y239795D01*
X57752Y239651D01*
X57722Y239509D01*
X57689Y239367D01*
X57651Y239226D01*
X57610Y239086D01*
X57565Y238948D01*
X57516Y238810D01*
X57464Y238674D01*
X57407Y238540D01*
X57348Y238407D01*
X57284Y238276D01*
X57217Y238147D01*
X57146Y238019D01*
X57072Y237894D01*
X56995Y237770D01*
X56914Y237649D01*
X56830Y237530D01*
X56743Y237413D01*
X56653Y237299D01*
X56559Y237187D01*
X56463Y237078D01*
X56363Y236971D01*
X56261Y236868D01*
X56156Y236767D01*
X56048Y236669D01*
X55937Y236574D01*
X55824Y236482D01*
X55709Y236393D01*
X55591Y236307D01*
X55471Y236225D01*
X55348Y236146D01*
X55224Y236070D01*
X55097Y235998D01*
X54969Y235929D01*
X54839Y235864D01*
X54707Y235802D01*
X54573Y235744D01*
X54438Y235690D01*
X54301Y235639D01*
X54163Y235592D01*
X54024Y235549D01*
X53884Y235510D01*
X53742Y235474D01*
X53600Y235443D01*
X53457Y235415D01*
X53313Y235391D01*
X53169Y235371D01*
X53024Y235355D01*
X52879Y235343D01*
X52734Y235335D01*
X52588Y235331D01*
X52442Y235331D01*
X52296Y235335D01*
X52151Y235343D01*
X52006Y235355D01*
X51861Y235371D01*
X51717Y235391D01*
X51573Y235415D01*
X51430Y235443D01*
X51288Y235474D01*
X51146Y235510D01*
X51006Y235549D01*
X50867Y235592D01*
X50729Y235639D01*
X50592Y235690D01*
X50457Y235744D01*
X50323Y235802D01*
X50191Y235864D01*
X50061Y235929D01*
X49933Y235998D01*
X49806Y236070D01*
X49682Y236146D01*
X49559Y236225D01*
X49439Y236307D01*
X49321Y236393D01*
X49206Y236482D01*
X49093Y236574D01*
X48982Y236669D01*
X48874Y236767D01*
X48769Y236868D01*
X48667Y236971D01*
X48567Y237078D01*
X48471Y237187D01*
X48377Y237299D01*
X48287Y237413D01*
X48200Y237530D01*
X48116Y237649D01*
X48035Y237770D01*
X47958Y237894D01*
X47884Y238019D01*
X47813Y238147D01*
X47746Y238276D01*
X47682Y238407D01*
X47623Y238540D01*
X47566Y238674D01*
X47514Y238810D01*
X47465Y238948D01*
X47420Y239086D01*
X47379Y239226D01*
X47341Y239367D01*
X47308Y239509D01*
X47278Y239651D01*
X47252Y239795D01*
X47231Y239939D01*
X47213Y240083D01*
X47199Y240228D01*
X47189Y240374D01*
X47183Y240519D01*
X47181Y240665D01*
X51403Y231839D02*
X51403Y220409D01*
X53943Y222949D01*
X51403Y220409D02*
X48863Y222949D01*
X48609Y223203D02*
X54197Y223203D01*
D14*
X118420Y172830D02*
X146360Y172830D01*
X118420Y172830D02*
X118420Y185530D01*
X146360Y185530D01*
X146360Y172830D01*
X137160Y96360D02*
X165100Y96360D01*
X137160Y96360D02*
X137160Y109060D01*
X165100Y109060D01*
X165100Y96360D01*
X27700Y63800D02*
X2300Y63800D01*
X2300Y216200D01*
X27700Y216200D01*
X27700Y63800D01*
D15*
X150586Y210000D02*
X150588Y210075D01*
X150594Y210149D01*
X150604Y210223D01*
X150617Y210296D01*
X150635Y210369D01*
X150656Y210440D01*
X150681Y210511D01*
X150710Y210580D01*
X150743Y210647D01*
X150779Y210712D01*
X150818Y210776D01*
X150860Y210837D01*
X150906Y210896D01*
X150955Y210953D01*
X151007Y211006D01*
X151061Y211057D01*
X151118Y211106D01*
X151178Y211150D01*
X151240Y211192D01*
X151304Y211231D01*
X151370Y211266D01*
X151437Y211297D01*
X151507Y211325D01*
X151577Y211349D01*
X151649Y211370D01*
X151722Y211386D01*
X151795Y211399D01*
X151870Y211408D01*
X151944Y211413D01*
X152019Y211414D01*
X152093Y211411D01*
X152168Y211404D01*
X152241Y211393D01*
X152315Y211379D01*
X152387Y211360D01*
X152458Y211338D01*
X152528Y211312D01*
X152597Y211282D01*
X152663Y211249D01*
X152728Y211212D01*
X152791Y211172D01*
X152852Y211128D01*
X152910Y211082D01*
X152966Y211032D01*
X153019Y210980D01*
X153070Y210925D01*
X153117Y210867D01*
X153161Y210807D01*
X153202Y210744D01*
X153240Y210680D01*
X153274Y210614D01*
X153305Y210545D01*
X153332Y210476D01*
X153355Y210405D01*
X153374Y210333D01*
X153390Y210260D01*
X153402Y210186D01*
X153410Y210112D01*
X153414Y210037D01*
X153414Y209963D01*
X153410Y209888D01*
X153402Y209814D01*
X153390Y209740D01*
X153374Y209667D01*
X153355Y209595D01*
X153332Y209524D01*
X153305Y209455D01*
X153274Y209386D01*
X153240Y209320D01*
X153202Y209256D01*
X153161Y209193D01*
X153117Y209133D01*
X153070Y209075D01*
X153019Y209020D01*
X152966Y208968D01*
X152910Y208918D01*
X152852Y208872D01*
X152791Y208828D01*
X152728Y208788D01*
X152663Y208751D01*
X152597Y208718D01*
X152528Y208688D01*
X152458Y208662D01*
X152387Y208640D01*
X152315Y208621D01*
X152241Y208607D01*
X152168Y208596D01*
X152093Y208589D01*
X152019Y208586D01*
X151944Y208587D01*
X151870Y208592D01*
X151795Y208601D01*
X151722Y208614D01*
X151649Y208630D01*
X151577Y208651D01*
X151507Y208675D01*
X151437Y208703D01*
X151370Y208734D01*
X151304Y208769D01*
X151240Y208808D01*
X151178Y208850D01*
X151118Y208894D01*
X151061Y208943D01*
X151007Y208994D01*
X150955Y209047D01*
X150906Y209104D01*
X150860Y209163D01*
X150818Y209224D01*
X150779Y209288D01*
X150743Y209353D01*
X150710Y209420D01*
X150681Y209489D01*
X150656Y209560D01*
X150635Y209631D01*
X150617Y209704D01*
X150604Y209777D01*
X150594Y209851D01*
X150588Y209925D01*
X150586Y210000D01*
D12*
X142000Y259000D02*
X112000Y259000D01*
X157000Y233000D02*
X157000Y216500D01*
X104500Y216500D02*
X97000Y216500D01*
X97000Y233000D01*
X149500Y216500D02*
X157000Y216500D01*
D15*
X100586Y55000D02*
X100588Y55075D01*
X100594Y55149D01*
X100604Y55223D01*
X100617Y55296D01*
X100635Y55369D01*
X100656Y55440D01*
X100681Y55511D01*
X100710Y55580D01*
X100743Y55647D01*
X100779Y55712D01*
X100818Y55776D01*
X100860Y55837D01*
X100906Y55896D01*
X100955Y55953D01*
X101007Y56006D01*
X101061Y56057D01*
X101118Y56106D01*
X101178Y56150D01*
X101240Y56192D01*
X101304Y56231D01*
X101370Y56266D01*
X101437Y56297D01*
X101507Y56325D01*
X101577Y56349D01*
X101649Y56370D01*
X101722Y56386D01*
X101795Y56399D01*
X101870Y56408D01*
X101944Y56413D01*
X102019Y56414D01*
X102093Y56411D01*
X102168Y56404D01*
X102241Y56393D01*
X102315Y56379D01*
X102387Y56360D01*
X102458Y56338D01*
X102528Y56312D01*
X102597Y56282D01*
X102663Y56249D01*
X102728Y56212D01*
X102791Y56172D01*
X102852Y56128D01*
X102910Y56082D01*
X102966Y56032D01*
X103019Y55980D01*
X103070Y55925D01*
X103117Y55867D01*
X103161Y55807D01*
X103202Y55744D01*
X103240Y55680D01*
X103274Y55614D01*
X103305Y55545D01*
X103332Y55476D01*
X103355Y55405D01*
X103374Y55333D01*
X103390Y55260D01*
X103402Y55186D01*
X103410Y55112D01*
X103414Y55037D01*
X103414Y54963D01*
X103410Y54888D01*
X103402Y54814D01*
X103390Y54740D01*
X103374Y54667D01*
X103355Y54595D01*
X103332Y54524D01*
X103305Y54455D01*
X103274Y54386D01*
X103240Y54320D01*
X103202Y54256D01*
X103161Y54193D01*
X103117Y54133D01*
X103070Y54075D01*
X103019Y54020D01*
X102966Y53968D01*
X102910Y53918D01*
X102852Y53872D01*
X102791Y53828D01*
X102728Y53788D01*
X102663Y53751D01*
X102597Y53718D01*
X102528Y53688D01*
X102458Y53662D01*
X102387Y53640D01*
X102315Y53621D01*
X102241Y53607D01*
X102168Y53596D01*
X102093Y53589D01*
X102019Y53586D01*
X101944Y53587D01*
X101870Y53592D01*
X101795Y53601D01*
X101722Y53614D01*
X101649Y53630D01*
X101577Y53651D01*
X101507Y53675D01*
X101437Y53703D01*
X101370Y53734D01*
X101304Y53769D01*
X101240Y53808D01*
X101178Y53850D01*
X101118Y53894D01*
X101061Y53943D01*
X101007Y53994D01*
X100955Y54047D01*
X100906Y54104D01*
X100860Y54163D01*
X100818Y54224D01*
X100779Y54288D01*
X100743Y54353D01*
X100710Y54420D01*
X100681Y54489D01*
X100656Y54560D01*
X100635Y54631D01*
X100617Y54704D01*
X100604Y54777D01*
X100594Y54851D01*
X100588Y54925D01*
X100586Y55000D01*
D12*
X112000Y6000D02*
X142000Y6000D01*
X97000Y32000D02*
X97000Y48500D01*
X149500Y48500D02*
X157000Y48500D01*
X157000Y32000D01*
X104500Y48500D02*
X97000Y48500D01*
D14*
X226300Y63800D02*
X251700Y63800D01*
X226300Y63800D02*
X226300Y216200D01*
X251700Y216200D01*
X251700Y63800D01*
X89916Y87978D02*
X89916Y115918D01*
X89916Y87978D02*
X77216Y87978D01*
X77216Y115918D01*
X89916Y115918D01*
X104648Y115918D02*
X104648Y87978D01*
X91948Y87978D01*
X91948Y115918D01*
X104648Y115918D01*
X161290Y131158D02*
X189230Y131158D01*
X161290Y131158D02*
X161290Y143858D01*
X189230Y143858D01*
X189230Y131158D01*
X189230Y146144D02*
X161290Y146144D01*
X161290Y158844D01*
X189230Y158844D01*
X189230Y146144D01*
X117000Y125000D02*
X112000Y125000D01*
X112000Y130000D01*
X137000Y125000D02*
X142000Y125000D01*
X142000Y130000D01*
X142000Y150000D02*
X142000Y155000D01*
X137000Y155000D01*
X105000Y160000D02*
X105002Y160089D01*
X105008Y160178D01*
X105018Y160267D01*
X105032Y160355D01*
X105049Y160442D01*
X105071Y160528D01*
X105097Y160614D01*
X105126Y160698D01*
X105159Y160781D01*
X105195Y160862D01*
X105236Y160942D01*
X105279Y161019D01*
X105326Y161095D01*
X105377Y161168D01*
X105430Y161239D01*
X105487Y161308D01*
X105547Y161374D01*
X105610Y161438D01*
X105675Y161498D01*
X105743Y161556D01*
X105814Y161610D01*
X105887Y161661D01*
X105962Y161709D01*
X106039Y161754D01*
X106118Y161795D01*
X106199Y161832D01*
X106281Y161866D01*
X106365Y161897D01*
X106450Y161923D01*
X106536Y161946D01*
X106623Y161964D01*
X106711Y161979D01*
X106800Y161990D01*
X106889Y161997D01*
X106978Y162000D01*
X107067Y161999D01*
X107156Y161994D01*
X107244Y161985D01*
X107333Y161972D01*
X107420Y161955D01*
X107507Y161935D01*
X107593Y161910D01*
X107677Y161882D01*
X107760Y161850D01*
X107842Y161814D01*
X107922Y161775D01*
X108000Y161732D01*
X108076Y161686D01*
X108150Y161636D01*
X108222Y161583D01*
X108291Y161527D01*
X108358Y161468D01*
X108422Y161406D01*
X108483Y161342D01*
X108542Y161274D01*
X108597Y161204D01*
X108649Y161132D01*
X108698Y161057D01*
X108743Y160981D01*
X108785Y160902D01*
X108823Y160822D01*
X108858Y160740D01*
X108889Y160656D01*
X108917Y160571D01*
X108940Y160485D01*
X108960Y160398D01*
X108976Y160311D01*
X108988Y160222D01*
X108996Y160134D01*
X109000Y160045D01*
X109000Y159955D01*
X108996Y159866D01*
X108988Y159778D01*
X108976Y159689D01*
X108960Y159602D01*
X108940Y159515D01*
X108917Y159429D01*
X108889Y159344D01*
X108858Y159260D01*
X108823Y159178D01*
X108785Y159098D01*
X108743Y159019D01*
X108698Y158943D01*
X108649Y158868D01*
X108597Y158796D01*
X108542Y158726D01*
X108483Y158658D01*
X108422Y158594D01*
X108358Y158532D01*
X108291Y158473D01*
X108222Y158417D01*
X108150Y158364D01*
X108076Y158314D01*
X108000Y158268D01*
X107922Y158225D01*
X107842Y158186D01*
X107760Y158150D01*
X107677Y158118D01*
X107593Y158090D01*
X107507Y158065D01*
X107420Y158045D01*
X107333Y158028D01*
X107244Y158015D01*
X107156Y158006D01*
X107067Y158001D01*
X106978Y158000D01*
X106889Y158003D01*
X106800Y158010D01*
X106711Y158021D01*
X106623Y158036D01*
X106536Y158054D01*
X106450Y158077D01*
X106365Y158103D01*
X106281Y158134D01*
X106199Y158168D01*
X106118Y158205D01*
X106039Y158246D01*
X105962Y158291D01*
X105887Y158339D01*
X105814Y158390D01*
X105743Y158444D01*
X105675Y158502D01*
X105610Y158562D01*
X105547Y158626D01*
X105487Y158692D01*
X105430Y158761D01*
X105377Y158832D01*
X105326Y158905D01*
X105279Y158981D01*
X105236Y159058D01*
X105195Y159138D01*
X105159Y159219D01*
X105126Y159302D01*
X105097Y159386D01*
X105071Y159472D01*
X105049Y159558D01*
X105032Y159645D01*
X105018Y159733D01*
X105008Y159822D01*
X105002Y159911D01*
X105000Y160000D01*
X112000Y155000D02*
X117000Y155000D01*
X112000Y155000D02*
X112000Y150000D01*
M02*
